<svg width="102" height="63" viewBox="0 0 102 63" fill="none" xmlns="http://www.w3.org/2000/svg">
<path d="M55.5225 62.0486H24.0748C23.6098 60.9215 23.2026 59.7176 22.8452 58.4637C21.9487 55.3284 21.3685 51.8717 20.9984 48.4879C20.9933 48.4456 20.9894 48.4008 20.9843 48.3573C20.349 42.4863 20.3465 36.8381 20.4323 33.4454C20.481 31.482 20.5591 30.2729 20.5642 30.214C20.6308 30.1833 20.6987 30.1564 20.7653 30.1295C22.4328 29.4302 24.0325 28.827 25.5656 28.3044C25.5733 28.3031 25.5784 28.3019 25.5784 28.3019C26.8668 27.8626 28.1079 27.4834 29.3016 27.1556C31.3994 26.5792 33.3513 26.1656 35.1572 25.8787C37.2845 25.5418 39.2121 25.3817 40.9385 25.3459C41.0167 25.3433 41.0922 25.3433 41.1703 25.3407C41.6263 25.3331 42.0669 25.3343 42.4934 25.3433C46.798 25.4355 49.6631 26.2923 51.1116 26.8636C51.3127 26.943 51.4856 27.0173 51.6303 27.0839C51.6495 27.0915 51.6687 27.0992 51.6879 27.1082C51.8519 27.1812 51.9787 27.2427 52.067 27.2875C52.0786 27.2926 52.0914 27.299 52.1016 27.3067C52.1439 27.3285 52.1862 27.3528 52.2259 27.3759L55.5251 62.046L55.5225 62.0486Z" fill="url(#paint0_linear_1708_6211)"/>
<path d="M86.8602 56.8961C83.7095 58.3587 64.9681 59.587 63.1687 59.0682C62.2452 58.8019 58.3812 55.3989 54.4941 51.2121L54.4903 51.2095C50.8119 47.2494 47.1028 42.5887 45.8528 39.2344C43.2798 32.3414 45.4916 26.2219 45.4916 26.2219C45.4916 26.2219 50.274 26.2014 52.2233 27.3784C54.1726 28.558 65.3191 49.086 66.8086 49.6265C68.2994 50.1708 85.9547 51.1801 87.9757 52.1393C87.9757 52.1393 90.0083 55.4335 86.8602 56.8961Z" fill="url(#paint1_linear_1708_6211)"/>
<path d="M29.6883 62.0486H0.0579883C-0.0214187 61.6682 -0.0239903 61.3173 0.0797512 61.0521C0.963475 58.8198 2.68866 55.144 4.67512 51.2018C6.13646 48.3009 7.73741 45.254 9.24998 42.5298C11.3491 38.7464 13.2729 35.583 14.4025 34.2843C15.2926 33.2635 16.4171 32.4067 17.5903 31.701C18.5854 31.1016 19.6152 30.6098 20.5642 30.2153C20.6308 30.1846 20.6987 30.1577 20.7653 30.1308C22.8286 29.2944 24.4641 28.9282 24.4641 28.9282C24.4641 28.9282 24.4859 29.8644 24.4885 31.304C24.4949 35.4805 24.3348 43.8977 23.0015 45.9507C22.6301 46.5232 21.9385 47.3877 21.074 48.4021C21.0483 48.4303 21.0253 48.4597 20.9997 48.4879C20.5309 49.0373 20.0122 49.6278 19.4679 50.2349C16.3748 53.6993 12.4583 57.767 11.9819 58.2627C11.9486 58.296 11.9332 58.3139 11.9332 58.3139H11.9908L28.1322 58.538C28.4972 58.6956 28.7816 58.9543 28.998 59.2745C29.509 60.0224 29.6666 61.1111 29.6896 62.0499L29.6883 62.0486Z" fill="url(#paint2_linear_1708_6211)"/>
<path d="M41.9168 20.7658L41.4749 20.8554C39.5089 21.2525 37.575 19.9692 37.1779 18.0032L36.7117 15.6953C36.3147 13.7293 37.598 11.7954 39.564 11.3983L40.0059 11.3087C41.9718 10.9116 43.9058 12.1949 44.3028 14.1609L44.769 16.4688C45.166 18.4348 43.8827 20.3688 41.9168 20.7658Z" fill="#122544"/>
<path d="M86.7088 50.4422C86.7088 50.4422 92.9807 46.9304 90.0541 42.1634C90.0541 42.1634 87.7129 39.2369 85.2039 38.4838C85.2039 38.4838 86.5423 45.592 85.2039 45.7598C83.8655 45.9275 84.2843 37.7307 84.2843 37.7307C84.2843 37.7307 77.6769 34.5531 75.0846 34.8041C75.0846 34.8041 79.1831 41.7459 77.8447 41.5781C76.5063 41.4103 71.9071 34.3853 71.9071 34.3853C71.9071 34.3853 65.1331 33.1315 64.0458 37.1454C62.9584 41.1593 64.7143 43.1662 65.7184 43.4173C66.7213 43.6683 73.1609 43.585 72.9944 44.4214C72.8267 45.2577 68.4785 46.5961 66.0527 45.843C66.0527 45.843 68.7295 52.4492 72.2413 52.1149C75.7532 51.7806 76.8406 49.6059 79.0153 49.4381C81.19 49.2703 82.7781 49.8556 81.6921 50.4422C80.6047 51.0275 76.9251 50.6343 75.1692 52.1277C73.4132 53.6211 71.9916 54.5406 75.2524 55.2092C78.5145 55.8778 84.3676 55.4602 85.5395 52.9512L86.7101 50.4422H86.7088Z" fill="#A8D29F"/>
<path d="M67.1387 38.3994C67.1387 38.3994 84.7017 44.086 86.7087 50.4424C86.7087 50.4424 86.6254 53.2857 88.3813 56.5478V57.8029C88.3813 57.8029 86.5409 53.538 85.538 52.9527C85.538 52.9527 89.4687 47.4326 67.1387 38.4007V38.3994Z" fill="#82B378"/>
<path d="M90.0076 61.9641L89.0047 61.9615C88.9727 60.5104 88.8049 58.88 88.3093 57.639C88.2478 57.4827 88.1812 57.3341 88.1082 57.192L88.1057 57.1868C87.8969 56.7796 87.756 56.4786 87.6676 56.2609C87.154 55.0019 88.381 56.5477 88.381 56.5477C88.381 56.5477 89.8526 58.7827 90.0076 61.9641Z" fill="#82B378"/>
<path d="M41.1648 26.1757L41.1597 27.3361C41.1597 27.3361 41.4812 30.9645 37.0126 31.5024C32.5441 32.0403 29.1552 30.0987 29.273 27.299C29.6726 25.1294 30.1119 23.6398 30.1388 21.8455C30.149 21.1782 30.1017 20.4712 29.9761 19.672L38.6353 19.4863L41.1866 19.8987L41.1636 26.1757H41.1648Z" fill="#EA9E6A"/>
<path d="M41.188 19.8988L41.165 26.1758C40.2454 26.6049 39.208 26.8674 38.045 26.87C34.0644 26.8764 30.1031 20.4713 29.9775 19.6721L41.188 19.8988Z" fill="#D88D59"/>
<path d="M41.6979 22.9483C41.6979 22.9483 30.6103 25.2062 29.3103 18.2799C28.0104 11.3535 25.705 6.97975 32.7287 5.2456C39.7524 3.51145 41.6287 5.89494 42.6238 8.10169C43.6203 10.3084 44.5475 22.1824 41.6966 22.9483H41.6979Z" fill="#EA9E6A"/>
<path d="M44.7736 2.95052C44.7736 2.95052 41.6806 2.71741 38.0304 1.13696C35.068 -0.146363 31.3346 1.27785 30.123 1.91822C30.155 1.72227 30.2331 1.45587 30.4176 1.18819C30.4176 1.18819 29.8732 1.57498 29.7938 2.11546C29.7375 2.15644 29.7131 2.1859 29.7272 2.19487C29.7272 2.19487 29.1099 2.08344 28.7142 2.26147C28.7142 2.26147 28.9921 2.22177 29.0907 2.39979C29.1009 2.419 29.1163 2.43437 29.1355 2.44846C24.5197 4.68723 24.1047 11.9875 25.5942 13.6743C27.386 15.703 29.5364 20.2766 29.5364 20.2766C29.5364 20.2766 30.3164 19.1944 29.9885 17.4064C29.6606 15.6185 31.2052 15.6159 33.1545 14.8001C35.1039 13.9843 33.4747 11.7109 35.1794 10.3264C36.8841 8.9419 43.1445 9.74494 43.0612 8.68832C45.3832 7.83789 44.7736 3.18746 44.7736 2.94923V2.95052Z" fill="#8E342E"/>
<path d="M24.0748 62.0485C23.6099 60.9214 23.2027 59.7175 22.8453 58.4637C21.9488 55.3284 21.3686 51.8716 20.9985 48.4878C20.9934 48.4456 20.9895 48.4007 20.9844 48.3572C21.0087 48.3687 21.0471 48.4327 21.0728 48.402C22.2972 46.915 25.6399 45.2872 29.6871 51.2133C30.4953 52.3941 34.0366 60.6678 34.6014 62.0498H24.0748V62.0485Z" fill="#3F8FF1"/>
<path d="M27.3606 62.0485C27.2696 61.5131 27.3695 60.8407 27.787 60.0018C27.787 60.0018 28.3058 59.665 28.9948 59.2731C30.022 58.6942 31.4257 57.9923 32.0622 58.105C32.1762 58.1255 32.3299 58.1588 32.513 58.2037C34.0218 58.5661 37.54 59.6496 38.0715 60.2836C38.5096 60.8062 39.1064 61.4709 39.5175 62.0485H27.3606Z" fill="#EA9E6A"/>
<path d="M86.8607 56.8961C83.71 58.3588 64.9687 59.587 63.1692 59.0683C62.2458 58.8019 58.3817 55.3989 54.4946 51.2121C54.6867 51.2377 56.4644 48.2741 64.5691 55.3644C64.5691 55.3644 66.6913 56.3096 72.4688 55.7806C78.2463 55.2516 85.6645 55.057 86.8607 56.8961Z" fill="#233862"/>
<path d="M68.4499 61.992H47.0254C47.0254 61.0493 47.79 60.2834 48.7326 60.2834H68.4487V61.992H68.4499Z" fill="#B24940"/>
<path d="M68.388 38.6592H101.511L93.5652 61.992H60.2271L68.388 38.6592Z" fill="#B24940"/>
<path d="M101.999 38.658L94.0535 61.9921H60.7153L68.875 38.658H101.999Z" fill="#C65447"/>
<path d="M84.1401 50.1094C83.9339 51.0008 83.0451 51.7231 82.1537 51.7231C81.2623 51.7231 80.7064 51.0008 80.9126 50.1094C81.1188 49.218 82.0076 48.4956 82.8991 48.4956C83.7905 48.4956 84.3463 49.218 84.1401 50.1094Z" fill="#F9DDBF"/>
<path d="M102 38.658L94.0541 61.9921H78.5454L97.1215 38.658H102Z" fill="#B24940"/>
<path d="M32.5335 20.7658L32.0916 20.8554C30.1256 21.2525 28.1917 19.9692 27.7946 18.0032L27.3284 15.6953C26.9314 13.7293 28.2147 11.7954 30.1807 11.3983L30.6226 11.3087C32.5885 10.9116 34.5225 12.1949 34.9195 14.1609L35.3857 16.4688C35.7827 18.4348 34.4994 20.3688 32.5335 20.7658Z" fill="#122544"/>
<path d="M29.0974 12.4537C28.8016 11.9196 28.3674 7.62398 29.5482 4.20307C30.1195 2.54961 31.0416 1.60697 32.1994 0.970434C32.6182 0.739897 33.087 0.616943 33.5647 0.616943L34.7276 0.636158C30.8956 2.25888 30.008 10.9373 30.3065 11.8633C30.2975 11.8351 30.2847 11.8146 30.277 11.7993L29.0961 12.4524L29.0974 12.4537Z" fill="#122544"/>
<path d="M40.2798 21.4881C33.8401 21.4881 30.6523 16.3997 30.6216 16.3471L31.1966 15.9949L30.9085 16.1704L31.1966 15.9937C31.2261 16.0423 34.2282 20.8119 40.2798 20.8119C40.3208 20.8119 40.3605 20.8119 40.4015 20.8119L40.4091 21.4868C40.3656 21.4868 40.3233 21.4868 40.2798 21.4868V21.4881Z" fill="#122544"/>
<path d="M31.4949 18.5054L31.2746 18.5502C30.2948 18.7488 29.3317 18.1084 29.1332 17.1286L28.9013 15.9785C28.7028 14.9987 29.3432 14.0356 30.323 13.837L30.5433 13.7922C31.523 13.5937 32.4862 14.2341 32.6847 15.2139L32.9165 16.364C33.115 17.3438 32.4747 18.3069 31.4949 18.5054Z" fill="#2B478B"/>
<path d="M41.081 21.7124H40.4739C40.1652 21.7124 39.9116 21.4588 39.9116 21.1501C39.9116 20.8402 40.1652 20.5879 40.4739 20.5879H41.081C41.3896 20.5879 41.6432 20.8415 41.6432 21.1501C41.6432 21.4588 41.3896 21.7124 41.081 21.7124Z" fill="#122544"/>
<defs>
<linearGradient id="paint0_linear_1708_6211" x1="-3.53345e-07" y1="43.6932" x2="79.1591" y2="43.7668" gradientUnits="userSpaceOnUse">
<stop stop-color="#3961F4"/>
<stop offset="1" stop-color="#11BAFC"/>
</linearGradient>
<linearGradient id="paint1_linear_1708_6211" x1="-3.53345e-07" y1="43.6932" x2="79.1591" y2="43.7668" gradientUnits="userSpaceOnUse">
<stop stop-color="#3961F4"/>
<stop offset="1" stop-color="#11BAFC"/>
</linearGradient>
<linearGradient id="paint2_linear_1708_6211" x1="-3.53345e-07" y1="43.6932" x2="79.1591" y2="43.7668" gradientUnits="userSpaceOnUse">
<stop stop-color="#3961F4"/>
<stop offset="1" stop-color="#11BAFC"/>
</linearGradient>
</defs>
</svg>
