<svg width="102" height="75" viewBox="0 0 102 75" fill="none" xmlns="http://www.w3.org/2000/svg">
<mask id="mask0_1708_5798" style="mask-type:alpha" maskUnits="userSpaceOnUse" x="0" y="0" width="102" height="75">
<rect y="0.615479" width="102" height="74.1026" fill="#C4C4C4"/>
</mask>
<g mask="url(#mask0_1708_5798)">
<g clip-path="url(#clip0_1708_5798)">
<path d="M57.1509 12.8258L39.5122 35.5878L86.9491 23.8746L60.5271 11.9846C59.9515 11.7251 59.3043 11.667 58.6912 11.8198C58.0781 11.9725 57.5351 12.3271 57.1509 12.8258Z" fill="#EBEBEB"/>
<path d="M39.2622 35.7499L57.0733 12.7688C57.4705 12.2521 58.033 11.885 58.6682 11.7281C59.3034 11.5712 59.9734 11.6338 60.568 11.9056L87.2513 23.9115L39.2622 35.7499ZM59.3673 11.8228C58.9529 11.8231 58.5443 11.9186 58.1733 12.1019C57.8024 12.2852 57.4791 12.5512 57.2289 12.8793L39.7607 35.4279L86.6527 23.849L60.4883 12.0694C60.136 11.9117 59.7538 11.8307 59.3673 11.832V11.8228Z" fill="#E0E0E0"/>
<path d="M39.5112 35.5889L87.1151 23.8347L93.5286 49.4611C93.6556 49.9685 93.5744 50.5052 93.303 50.9531C93.0316 51.4011 92.5922 51.7236 92.0814 51.8497L48.3294 62.6528C47.8186 62.7789 47.2783 62.6983 46.8274 62.4287C46.3764 62.1591 46.0517 61.7227 45.9247 61.2153L39.5112 35.5889Z" fill="#F0F0F0"/>
<path d="M84.1845 25.2384L67.6928 41.9745L42.7662 36.4014L39.9144 23.269C39.7566 22.5916 39.8731 21.8798 40.2388 21.2869C40.6045 20.694 41.1901 20.2676 41.8693 20.0996L77.9288 11.1969C78.2687 11.1126 78.6221 11.0958 78.9686 11.1474C79.3151 11.199 79.6479 11.3179 79.9481 11.4974C80.2483 11.6769 80.5099 11.9135 80.7179 12.1935C80.9259 12.4736 81.0763 12.7916 81.1604 13.1294L84.1845 25.2384Z" fill="white"/>
<path d="M65.4286 40.6586L45.8442 60.9856C45.9134 61.2621 46.0367 61.5223 46.2071 61.7513C46.3776 61.9804 46.5917 62.1739 46.8375 62.3207C47.0832 62.4676 47.3557 62.5649 47.6393 62.607C47.9229 62.6493 48.2121 62.6355 48.4903 62.5667L91.9062 51.8455C92.4678 51.7067 92.951 51.3521 93.2495 50.8596C93.548 50.3671 93.6373 49.777 93.4979 49.219L93.4571 49.057L67.8486 40.0844C67.4324 39.9383 66.9826 39.9147 66.5533 40.0166C66.1239 40.1185 65.7334 40.3414 65.4286 40.6586Z" fill="#E0E0E0"/>
<path d="M59.1713 22.0384L45.0645 25.5242L45.4228 26.9548L59.5296 23.469L59.1713 22.0384Z" fill="#E0E0E0"/>
<path d="M77.272 21.4173L45.9727 29.1514L46.3775 30.7678L77.6769 23.0337L77.272 21.4173Z" fill="#E0E0E0"/>
<path d="M78.2623 25.3665L46.9629 33.1006L47.3677 34.717L78.6671 26.9829L78.2623 25.3665Z" fill="#E0E0E0"/>
<path d="M78.9202 30.6L77.94 31.5737L51.6644 38.3966L48.2308 37.5997L48.1011 37.2297L79.3001 29.5215L79.4335 30.0571L78.9202 30.6Z" fill="#E0E0E0"/>
<path d="M72.1995 37.4008L60.3607 40.3235L56.7437 39.5027L74.4343 35.1313L72.1995 37.4008Z" fill="#E0E0E0"/>
<path d="M64.7134 41.3984C64.7134 41.3984 64.7005 41.4187 64.669 41.4537L64.5281 41.6064L63.9833 42.1862L61.9654 44.3083C60.257 46.0955 57.8888 48.5655 55.2668 51.273C52.6448 53.9804 50.2359 56.41 48.4793 58.1511C47.601 59.0217 46.8857 59.7248 46.3891 60.2052L45.8165 60.7573L45.6646 60.8991C45.6487 60.9166 45.6307 60.9321 45.6108 60.9451C45.6245 60.9259 45.64 60.908 45.6572 60.8917L45.8017 60.7426L46.3576 60.1776L48.4274 58.1033C50.1711 56.3492 52.567 53.9142 55.1946 51.2049C57.8221 48.4956 60.1977 46.0513 61.9117 44.2605L63.95 42.1604L64.5059 41.5935L64.6541 41.4481C64.6949 41.4132 64.7134 41.3984 64.7134 41.3984Z" fill="#FAFAFA"/>
<path d="M93.4572 49.0533C93.448 49.0791 87.9872 47.1962 81.2608 44.8476C74.5344 42.4991 69.0884 40.5739 69.0977 40.5481C69.1069 40.5223 74.5677 42.4034 81.2941 44.7519C88.0205 47.1005 93.4665 49.0257 93.4572 49.0533Z" fill="#FAFAFA"/>
<path d="M84.9684 24.4324C84.9581 24.4488 84.9464 24.4642 84.9332 24.4784L84.8294 24.6054L84.3903 25.0895L82.7541 26.8545C81.368 28.3399 79.4372 30.3755 77.2729 32.5971C75.1086 34.8186 73.111 36.8009 71.662 38.2255L69.9368 39.904L69.4625 40.355L69.3383 40.4709C69.3087 40.4967 69.2938 40.5096 69.292 40.5077C69.3038 40.492 69.3168 40.4772 69.3309 40.4636L69.4476 40.3402L69.909 39.8764L71.6101 38.1758C73.048 36.7383 75.0252 34.7468 77.1895 32.5271C79.3538 30.3074 81.292 28.2865 82.6929 26.814L84.3513 25.071L84.8053 24.5999L84.9258 24.4784C84.938 24.4614 84.9523 24.4459 84.9684 24.4324Z" fill="#FAFAFA"/>
<path d="M64.713 41.3985C64.6911 41.3973 64.6693 41.3936 64.6482 41.3875L64.4629 41.3433L63.7217 41.1593C63.088 41.001 62.167 40.7783 61.0274 40.5132C58.7501 39.9776 55.5907 39.2874 52.0997 38.5365C48.6086 37.7855 45.4511 37.0843 43.1774 36.5303C42.0397 36.2542 41.1206 36.0223 40.4887 35.853L39.7605 35.656L39.5752 35.6027C39.5533 35.5981 39.5321 35.5906 39.5122 35.5806L39.5771 35.5934L39.7624 35.6358L40.5036 35.8198C41.1391 35.9781 42.0601 36.199 43.1997 36.4659C45.477 37.0015 48.6345 37.6917 52.1274 38.4426C55.6204 39.1936 58.776 39.8948 61.0497 40.4488C62.1874 40.7249 63.1065 40.955 63.7384 41.1261L64.4647 41.3231L64.65 41.3765L64.713 41.3985Z" fill="#FAFAFA"/>
<path d="M84.1844 25.2385C84.1844 25.2385 84.1659 25.1778 84.1344 25.0544L83.9991 24.5336C83.8805 24.0716 83.7082 23.3961 83.4858 22.5255L81.6198 15.1412C81.521 14.751 81.4203 14.3516 81.3178 13.943C81.2678 13.7406 81.2159 13.5326 81.1621 13.3246C81.1362 13.2197 81.1103 13.1148 81.0769 13.0136C81.0479 12.9102 81.0107 12.8093 80.9657 12.7117C80.7821 12.2988 80.4932 11.9406 80.1276 11.6724C79.7621 11.4041 79.3324 11.2352 78.8811 11.1822C78.6469 11.15 78.4093 11.15 78.1751 11.1822C77.9416 11.2227 77.7044 11.2871 77.4654 11.3442L76.0108 11.7123L72.97 12.4577L59.4598 15.8075L45.9329 19.1426L42.8958 19.8899L42.1546 20.0739C41.914 20.1236 41.6784 20.1944 41.4505 20.2856C41.0109 20.4748 40.6316 20.7797 40.3535 21.1672C40.2189 21.3555 40.1093 21.5603 40.0274 21.7764C39.9509 21.9899 39.9006 22.2118 39.8773 22.4372C39.8235 22.8881 39.9495 23.3225 40.0385 23.7513C40.2238 24.6103 40.401 25.433 40.5703 26.2195C41.2466 29.365 41.7933 31.9086 42.1713 33.6701C42.3566 34.5498 42.503 35.2308 42.603 35.6947C42.6493 35.9247 42.6864 36.1014 42.7124 36.2229C42.7383 36.3444 42.7457 36.4069 42.7457 36.4069C42.7457 36.4069 42.729 36.3462 42.7012 36.2229C42.6734 36.0996 42.6345 35.9266 42.5826 35.6983C42.4789 35.2327 42.3288 34.5517 42.1342 33.6737C41.7469 31.9142 41.1892 29.3705 40.4999 26.2306C40.3294 25.4446 40.1478 24.6219 39.9606 23.7624C39.8717 23.339 39.742 22.89 39.7976 22.4243C39.8189 22.1912 39.8699 21.9617 39.9495 21.7414C40.0342 21.5184 40.1469 21.3069 40.2849 21.112C40.4253 20.9136 40.5931 20.7357 40.7834 20.5837C40.9739 20.426 41.1868 20.297 41.4152 20.2009C41.6471 20.1069 41.8871 20.0342 42.1324 19.9837L42.8736 19.7997L45.9162 19.0524L59.4431 15.71L72.97 12.3749L76.0071 11.6276L77.4617 11.2706C77.7007 11.2117 77.9342 11.1491 78.1788 11.1068C78.536 11.0538 78.9002 11.072 79.2502 11.1605C79.6002 11.249 79.9289 11.4059 80.2171 11.6221C80.5838 11.8978 80.8734 12.2622 81.0584 12.6804C81.1049 12.7809 81.1433 12.8849 81.1733 12.9915C81.2066 13.0964 81.2326 13.2013 81.2585 13.3062C81.3104 13.5142 81.3604 13.7222 81.4123 13.9265C81.5142 14.3351 81.6124 14.7345 81.7106 15.1247L83.5451 22.5218C83.7582 23.3943 83.925 24.0716 84.038 24.5336C84.0936 24.7636 84.1362 24.9385 84.164 25.0581C84.1918 25.1778 84.1844 25.2385 84.1844 25.2385Z" fill="#E0E0E0"/>
<path d="M52.7877 11.9597L50.3169 13.8301L50.437 17.402L48.1713 15.616L46.9234 16.6792L42.1694 10.8518L52.7877 11.9597Z" fill="url(#paint0_linear_1708_5798)"/>
<path d="M49.3867 14.5901C49.3867 14.6994 50.437 17.4019 50.437 17.4019L48.1738 15.616L49.3867 14.5901Z" fill="url(#paint1_linear_1708_5798)"/>
<g opacity="0.3">
<path opacity="0.3" d="M49.3867 14.5901C49.3867 14.6994 50.437 17.4019 50.437 17.4019L48.1738 15.616L49.3867 14.5901Z" fill="black"/>
</g>
<path d="M42.1694 10.8518L49.3867 14.5902L50.437 17.402L50.3169 13.8301L42.1694 10.8518Z" fill="url(#paint2_linear_1708_5798)"/>
<path opacity="0.1" d="M42.1694 10.8518L49.3867 14.5902L50.437 17.402L50.3169 13.8301L42.1694 10.8518Z" fill="black"/>
<path d="M62.1779 59.0456C61.7333 59.031 61.2965 58.9253 60.895 58.7351C61.3396 58.7497 61.7764 58.8554 62.1779 59.0456Z" fill="#263238"/>
<path d="M64.2235 59.5425C64.2235 59.5798 64.0359 59.5674 63.8259 59.5177C63.6158 59.468 63.4508 59.3935 63.4583 59.3562C63.4658 59.319 63.6458 59.3314 63.8584 59.3836C64.0709 59.4357 64.2335 59.5053 64.2235 59.5425Z" fill="#263238"/>
<path d="M55.7809 16.935C55.5591 16.9382 55.3384 16.9038 55.1282 16.8332C54.9079 16.8063 54.6944 16.7398 54.498 16.637C54.721 16.6079 54.9477 16.63 55.1608 16.7015C55.3834 16.7286 55.5962 16.8087 55.7809 16.935Z" fill="#263238"/>
<path d="M58.2018 17.9659C57.7823 17.8291 57.3853 17.6316 57.0239 17.3796C57.2472 17.4007 57.4623 17.4739 57.6516 17.5933C57.9792 17.7572 58.2218 17.9336 58.2018 17.9659Z" fill="#263238"/>
<path d="M60.2998 19.5457C60.2723 19.573 60.0497 19.3867 59.7697 19.1532C59.4896 18.9197 59.2695 18.721 59.302 18.6887C59.5153 18.7636 59.708 18.8869 59.8647 19.0489C60.1373 19.2874 60.3273 19.5208 60.2998 19.5457Z" fill="#263238"/>
<path d="M61.9005 21.6197C61.8655 21.6371 61.7005 21.3961 61.5004 21.0981C61.3603 20.9272 61.2504 20.7341 61.1753 20.5268C61.2028 20.5044 61.4129 20.718 61.6154 21.0235C61.7566 21.1971 61.8543 21.4014 61.9005 21.6197Z" fill="#263238"/>
<path d="M62.8083 24.0714C62.7009 23.8788 62.6266 23.6698 62.5882 23.4529C62.5046 23.2482 62.4581 23.0304 62.4507 22.8096C62.5858 22.9884 62.6774 23.1958 62.7183 23.4157C62.8023 23.6235 62.8333 23.8488 62.8083 24.0714Z" fill="#263238"/>
<path d="M62.9431 26.6797C62.8984 26.464 62.8891 26.2425 62.9155 26.0239C62.8967 25.8043 62.917 25.5832 62.9756 25.3706C63.0519 25.5803 63.0784 25.8048 63.0531 26.0264C63.0688 26.2497 63.0311 26.4736 62.9431 26.6797Z" fill="#263238"/>
<path d="M62.2607 29.1983C62.2876 28.9803 62.3502 28.768 62.4458 28.5699C62.4968 28.3569 62.5812 28.1532 62.6959 27.9663C62.7081 28.1901 62.6625 28.4133 62.5633 28.6146C62.5124 28.831 62.4085 29.0315 62.2607 29.1983Z" fill="#263238"/>
<path d="M60.7326 31.3197C60.7076 31.2898 60.9027 31.0713 61.1403 30.803C61.3778 30.5347 61.5679 30.3062 61.6004 30.3335C61.5294 30.5463 61.4066 30.7383 61.2428 30.8924C61.0002 31.1706 60.7576 31.347 60.7326 31.3197Z" fill="#263238"/>
<path d="M58.5269 32.7306C58.6958 32.5887 58.8866 32.4746 59.092 32.3928C59.2768 32.2711 59.4804 32.1805 59.6947 32.1245C59.5494 32.2964 59.364 32.4303 59.1546 32.5145C58.9665 32.6369 58.7508 32.7111 58.5269 32.7306Z" fill="#263238"/>
<path d="M55.9609 33.2795C56.1702 33.2031 56.3908 33.162 56.6136 33.1578C56.83 33.1085 57.0529 33.0942 57.2739 33.1156C57.0775 33.2261 56.8567 33.2867 56.6311 33.292C56.4103 33.3445 56.1796 33.3402 55.9609 33.2795Z" fill="#263238"/>
<path d="M53.3853 32.7952C53.8129 32.8836 54.2314 33.0108 54.6356 33.1752C54.4115 33.203 54.1839 33.1722 53.9754 33.0858C53.7564 33.042 53.5529 32.9418 53.3853 32.7952Z" fill="#263238"/>
<path d="M51.5596 30.9968C51.5971 30.9843 51.7121 31.2452 51.9172 31.5383C52.1223 31.8314 52.3198 32.0351 52.2923 32.0723C52.2648 32.1096 52.0197 31.9233 51.8047 31.6178C51.6534 31.445 51.5668 31.2256 51.5596 30.9968Z" fill="#263238"/>
<path d="M52.6698 28.9624C52.6698 29.0021 52.3973 29.089 52.1122 29.2902C51.8271 29.4914 51.6745 29.7423 51.6395 29.7224C51.6045 29.7026 51.7146 29.4045 52.0321 29.1809C52.2089 29.0301 52.437 28.9519 52.6698 28.9624Z" fill="#263238"/>
<path d="M54.9306 29.8938C54.8956 29.9137 54.7355 29.6703 54.4754 29.4318C54.2153 29.1934 53.9503 29.0741 53.9753 29.0369C54.2076 29.055 54.4241 29.1608 54.5805 29.3325C54.7601 29.4728 54.8841 29.6716 54.9306 29.8938Z" fill="#263238"/>
<path d="M55.0156 32.4301C55.0342 32.2137 55.0753 31.9998 55.1382 31.7917C55.1569 31.5745 55.1979 31.3598 55.2607 31.1509C55.3278 31.3678 55.3278 31.5997 55.2607 31.8166C55.2435 32.041 55.158 32.255 55.0156 32.4301Z" fill="#263238"/>
<path d="M53.3028 34.38C53.2803 34.3477 53.5079 34.1614 53.7805 33.9304C54.053 33.6994 54.2806 33.5007 54.2981 33.5255C54.3156 33.5504 54.1531 33.7938 53.8705 34.0223C53.5879 34.2509 53.3228 34.4123 53.3028 34.38Z" fill="#263238"/>
<path d="M50.9644 35.587C51.1298 35.4383 51.3237 35.3243 51.5345 35.2517C51.7269 35.139 51.9406 35.0671 52.1622 35.0405C51.8056 35.3035 51.3976 35.4896 50.9644 35.587Z" fill="#263238"/>
<path d="M48.6115 36.7745C48.5915 36.7422 48.8291 36.5658 49.1442 36.3771C49.328 36.2497 49.5382 36.1648 49.7594 36.1287C49.7794 36.1659 49.5243 36.3174 49.2117 36.4963C49.0331 36.6292 48.8288 36.7239 48.6115 36.7745Z" fill="#263238"/>
<path d="M46.6108 38.4835C46.5833 38.4587 46.7558 38.2153 47.0184 37.9594C47.1632 37.789 47.3454 37.6539 47.5511 37.5645C47.5761 37.5943 47.3735 37.8128 47.1159 38.0612C46.8584 38.3096 46.6508 38.5084 46.6108 38.4835Z" fill="#263238"/>
<path d="M45.1104 40.6246C45.1523 40.4054 45.2447 40.1988 45.3804 40.021C45.573 39.7106 45.7706 39.487 45.8006 39.5094C45.7357 39.7203 45.6332 39.9181 45.498 40.0931C45.3079 40.3986 45.1454 40.642 45.1104 40.6246Z" fill="#263238"/>
<path d="M44.1497 43.0589C44.137 42.8364 44.1781 42.6141 44.2698 42.4106C44.3168 42.1921 44.4154 41.9878 44.5574 41.8145C44.4841 42.2462 44.3468 42.6648 44.1497 43.0564V43.0589Z" fill="#263238"/>
<path d="M43.8047 45.652C43.714 45.2165 43.7452 44.7646 43.8948 44.3455C43.9328 44.5624 43.9328 44.7843 43.8948 45.0012C43.9034 45.2217 43.873 45.442 43.8047 45.652Z" fill="#263238"/>
<path d="M44.1499 48.2429C44.0377 48.0509 43.967 47.8377 43.9424 47.617C43.8689 47.4056 43.8499 47.1793 43.8873 46.9587C43.9842 47.1576 44.0484 47.3706 44.0774 47.5897C44.1467 47.8001 44.1714 48.0225 44.1499 48.2429Z" fill="#263238"/>
<path d="M45.1677 50.6524C45.1352 50.6723 44.9576 50.4338 44.7951 50.1059C44.6745 49.9173 44.6015 49.7026 44.5825 49.48C44.7266 49.6479 44.84 49.8396 44.9176 50.0463C45.0362 50.2322 45.1208 50.4374 45.1677 50.6524Z" fill="#263238"/>
<path d="M46.7485 52.7463C46.7234 52.7712 46.4984 52.5824 46.2483 52.3042C46.0873 52.1483 45.9641 51.958 45.8882 51.7478C45.9207 51.7229 46.1183 51.9415 46.3533 52.2148C46.5884 52.488 46.776 52.719 46.7485 52.7463Z" fill="#263238"/>
<path d="M48.7791 54.4107C48.5617 54.3527 48.3613 54.2446 48.1939 54.0952C47.8988 53.8816 47.6937 53.668 47.7137 53.6382C47.9202 53.7208 48.1106 53.8384 48.2764 53.9859C48.5665 54.1971 48.7991 54.3784 48.7791 54.4107Z" fill="#263238"/>
<path d="M51.1545 55.5384C50.9295 55.5369 50.7082 55.4816 50.5093 55.3769C50.2924 55.3167 50.094 55.2041 49.9316 55.0491C50.1506 55.0812 50.3627 55.1492 50.5593 55.2503C50.7719 55.3143 50.9728 55.4116 51.1545 55.5384Z" fill="#263238"/>
<path d="M52.4775 55.8737C52.4775 55.9085 52.455 55.9383 52.4425 55.9358C52.43 55.9333 52.425 55.901 52.4425 55.8638C52.46 55.8265 52.465 55.7992 52.4775 55.8017C52.49 55.8042 52.485 55.8364 52.4775 55.8737Z" fill="#263238"/>
<path d="M50.5653 49.3686L47.8306 48.4766L47.2719 50.1663L50.0066 51.0583L50.5653 49.3686Z" fill="url(#paint3_linear_1708_5798)"/>
<g opacity="0.3">
<path opacity="0.3" d="M50.5653 49.3686L47.8306 48.4766L47.2719 50.1663L50.0066 51.0583L50.5653 49.3686Z" fill="black"/>
</g>
<path d="M50.5595 49.3732C50.0482 49.6279 49.5182 49.8438 48.974 50.0191L48.9265 50.0364L48.8965 49.9967L48.849 49.9371C48.4696 49.4789 48.1275 48.9913 47.8262 48.479C48.2384 48.9085 48.6171 49.3685 48.959 49.8551L49.004 49.9147L48.9265 49.8924C49.4559 49.676 50.002 49.5024 50.5595 49.3732Z" fill="url(#paint4_linear_1708_5798)"/>
<g opacity="0.1">
<path opacity="0.1" d="M50.5595 49.3732C50.0482 49.6279 49.5182 49.8438 48.974 50.0191L48.9265 50.0364L48.8965 49.9967L48.849 49.9371C48.4696 49.4789 48.1275 48.9913 47.8262 48.479C48.2384 48.9085 48.6171 49.3685 48.959 49.8551L49.004 49.9147L48.9265 49.8924C49.4559 49.676 50.002 49.5024 50.5595 49.3732Z" fill="black"/>
</g>
<path d="M48.6111 49.5146C48.4229 49.6828 48.205 49.8151 47.9684 49.9046C47.7505 50.0329 47.5119 50.1228 47.2632 50.1704C47.4531 50.0032 47.6716 49.8711 47.9084 49.7804C48.1257 49.6528 48.3633 49.5629 48.6111 49.5146Z" fill="url(#paint5_linear_1708_5798)"/>
<g opacity="0.1">
<path opacity="0.1" d="M48.6111 49.5146C48.4229 49.6828 48.205 49.8151 47.9684 49.9046C47.7505 50.0329 47.5119 50.1228 47.2632 50.1704C47.4531 50.0032 47.6716 49.8711 47.9084 49.7804C48.1257 49.6528 48.3633 49.5629 48.6111 49.5146Z" fill="black"/>
</g>
<path d="M50.0492 51.0772C49.8962 50.8899 49.7776 50.6771 49.6991 50.4488C49.5341 50.0787 49.4241 49.7607 49.4741 49.7657C49.6275 49.9532 49.7469 50.1659 49.8267 50.3941C49.9432 50.606 50.0187 50.8377 50.0492 51.0772Z" fill="url(#paint6_linear_1708_5798)"/>
<g opacity="0.1">
<path opacity="0.1" d="M50.0492 51.0772C49.8962 50.8899 49.7776 50.6771 49.6991 50.4488C49.5341 50.0787 49.4241 49.7607 49.4741 49.7657C49.6275 49.9532 49.7469 50.1659 49.8267 50.3941C49.9432 50.606 50.0187 50.8377 50.0492 51.0772Z" fill="black"/>
</g>
<path d="M61.7144 55.9879L54.6816 53.6938L53.2444 58.0409L60.2772 60.3349L61.7144 55.9879Z" fill="url(#paint7_linear_1708_5798)"/>
<path d="M61.7102 55.9929C61.61 56.0501 61.5045 56.0975 61.3951 56.1345L60.5198 56.4748C59.7696 56.7555 58.7468 57.138 57.5939 57.5578L57.5464 57.5752L57.5164 57.5355L57.3989 57.3815C56.6336 56.3879 55.9434 55.4614 55.4508 54.7932L54.8631 54.0008C54.7881 53.9059 54.722 53.8045 54.6655 53.6978C54.7572 53.78 54.841 53.8707 54.9156 53.9685L55.5283 54.736C56.0409 55.3868 56.7412 56.2935 57.5089 57.2995L57.6264 57.451L57.5489 57.4287C58.6993 57.0114 59.7371 56.6437 60.4873 56.3854L61.3776 56.0848C61.4853 56.0439 61.5967 56.0132 61.7102 55.9929Z" fill="url(#paint8_linear_1708_5798)"/>
<g opacity="0.2">
<path opacity="0.2" d="M61.7102 55.9929C61.61 56.0501 61.5045 56.0975 61.3951 56.1345L60.5198 56.4748C59.7696 56.7555 58.7468 57.138 57.5939 57.5578L57.5464 57.5752L57.5164 57.5355L57.3989 57.3815C56.6336 56.3879 55.9434 55.4614 55.4508 54.7932L54.8631 54.0008C54.7881 53.9059 54.722 53.8045 54.6655 53.6978C54.7572 53.78 54.841 53.8707 54.9156 53.9685L55.5283 54.736C56.0409 55.3868 56.7412 56.2935 57.5089 57.2995L57.6264 57.451L57.5489 57.4287C58.6993 57.0114 59.7371 56.6437 60.4873 56.3854L61.3776 56.0848C61.4853 56.0439 61.5967 56.0132 61.7102 55.9929Z" fill="black"/>
</g>
<path d="M56.7088 56.363C56.162 56.7024 55.5921 57.0037 55.0033 57.2647C54.4343 57.5645 53.8452 57.8251 53.2402 58.0447C53.7849 57.7024 54.3541 57.4002 54.9433 57.1405C55.5118 56.8388 56.1019 56.5789 56.7088 56.363Z" fill="url(#paint9_linear_1708_5798)"/>
<g opacity="0.2">
<path opacity="0.2" d="M56.7088 56.363C56.162 56.7024 55.5921 57.0037 55.0033 57.2647C54.4343 57.5645 53.8452 57.8251 53.2402 58.0447C53.7849 57.7024 54.3541 57.4002 54.9433 57.1405C55.5118 56.8388 56.1019 56.5789 56.7088 56.363Z" fill="black"/>
</g>
<path d="M60.3998 60.3796C60.0921 59.8466 59.8238 59.292 59.5971 58.7203C59.3299 58.1654 59.1042 57.5917 58.9219 57.0039C59.2299 57.5376 59.4982 58.093 59.7246 58.6657C59.992 59.2196 60.2177 59.7925 60.3998 60.3796Z" fill="url(#paint10_linear_1708_5798)"/>
<g opacity="0.2">
<path opacity="0.2" d="M60.3998 60.3796C60.0921 59.8466 59.8238 59.292 59.5971 58.7203C59.3299 58.1654 59.1042 57.5917 58.9219 57.0039C59.2299 57.5376 59.4982 58.093 59.7246 58.6657C59.992 59.2196 60.2177 59.7925 60.3998 60.3796Z" fill="black"/>
</g>
<path d="M55.0632 54.7683C54.8882 54.8958 54.679 54.969 54.4621 54.9784C54.2452 54.9879 54.0304 54.9334 53.8447 54.8216C53.6591 54.7098 53.511 54.5459 53.4191 54.3506C53.3272 54.1552 53.2957 53.9372 53.3286 53.724C53.3614 53.5109 53.4571 53.3122 53.6037 53.1531C53.7502 52.994 53.9409 52.8816 54.1517 52.8301C54.3625 52.7786 54.584 52.7904 54.788 52.8639C54.9921 52.9374 55.1697 53.0694 55.2983 53.2431C55.3837 53.3585 55.4454 53.4896 55.4799 53.6287C55.5143 53.7679 55.5208 53.9124 55.499 54.0541C55.4771 54.1957 55.4274 54.3317 55.3526 54.4542C55.2779 54.5768 55.1795 54.6835 55.0632 54.7683Z" fill="#263238"/>
<path d="M55.1135 53.6877C54.8811 53.8592 54.6343 54.0105 54.3757 54.1397L54.2007 54.2366L54.1682 54.254L54.1507 54.2242C54.0323 54.0377 53.9319 53.8406 53.8506 53.6355C53.9899 53.8075 54.1114 53.9931 54.2132 54.1894L54.1657 54.1745L54.3407 54.0752C54.5865 53.9239 54.845 53.7942 55.1135 53.6877Z" fill="white"/>
<path d="M57.1992 50.1307L53.5142 48.9287L52.7612 51.2061L56.4463 52.4081L57.1992 50.1307Z" fill="url(#paint11_linear_1708_5798)"/>
<g opacity="0.2">
<path opacity="0.2" d="M57.1992 50.1307L53.5142 48.9287L52.7612 51.2061L56.4463 52.4081L57.1992 50.1307Z" fill="black"/>
</g>
<path d="M57.1914 50.1331C57.14 50.1637 57.0856 50.1887 57.0288 50.2077L56.5687 50.3865C56.1811 50.5331 55.6409 50.7343 55.0357 50.9529H55.0107L54.9957 50.9305L54.9357 50.851C54.5331 50.3244 54.1855 49.845 53.9129 49.4948L53.6128 49.0899C53.5741 49.0399 53.5398 48.9867 53.5103 48.9309C53.5566 48.9738 53.5985 49.0213 53.6353 49.0725L53.9579 49.4749C54.2255 49.8152 54.5931 50.2896 54.9932 50.8162L55.0557 50.8982H55.0157C55.6184 50.6796 56.1611 50.4859 56.5562 50.3517L57.0213 50.1952C57.0755 50.1683 57.1325 50.1474 57.1914 50.1331Z" fill="url(#paint12_linear_1708_5798)"/>
<g opacity="0.2">
<path opacity="0.2" d="M57.1914 50.1331C57.14 50.1637 57.0856 50.1887 57.0288 50.2077L56.5687 50.3865C56.1811 50.5331 55.6409 50.7343 55.0357 50.9529H55.0107L54.9957 50.9305L54.9357 50.851C54.5331 50.3244 54.1855 49.845 53.9129 49.4948L53.6128 49.0899C53.5741 49.0399 53.5398 48.9867 53.5103 48.9309C53.5566 48.9738 53.5985 49.0213 53.6353 49.0725L53.9579 49.4749C54.2255 49.8152 54.5931 50.2896 54.9932 50.8162L55.0557 50.8982H55.0157C55.6184 50.6796 56.1611 50.4859 56.5562 50.3517L57.0213 50.1952C57.0755 50.1683 57.1325 50.1474 57.1914 50.1331Z" fill="url(#paint13_linear_1708_5798)"/>
</g>
<path d="M54.5729 50.3269C54.2863 50.5039 53.9881 50.6616 53.6802 50.7989C53.3815 50.9562 53.0723 51.0931 52.7549 51.2087C53.0403 51.029 53.3387 50.8704 53.6477 50.7343C53.9458 50.5765 54.255 50.4404 54.5729 50.3269Z" fill="url(#paint14_linear_1708_5798)"/>
<g opacity="0.2">
<path opacity="0.2" d="M54.5729 50.3269C54.2863 50.5039 53.9881 50.6616 53.6802 50.7989C53.3815 50.9562 53.0723 51.0931 52.7549 51.2087C53.0403 51.029 53.3387 50.8704 53.6477 50.7343C53.9458 50.5765 54.255 50.4404 54.5729 50.3269Z" fill="url(#paint15_linear_1708_5798)"/>
</g>
<path d="M56.5062 52.4309C56.3449 52.1518 56.2044 51.8612 56.0861 51.5615C55.9471 51.2703 55.8284 50.9698 55.731 50.6624C56.0343 51.2314 56.2935 51.8227 56.5062 52.4309Z" fill="url(#paint16_linear_1708_5798)"/>
<g opacity="0.2">
<path opacity="0.2" d="M56.5062 52.4309C56.3449 52.1518 56.2044 51.8612 56.0861 51.5615C55.9471 51.2703 55.8284 50.9698 55.731 50.6624C56.0343 51.2314 56.2935 51.8227 56.5062 52.4309Z" fill="url(#paint17_linear_1708_5798)"/>
</g>
<path d="M18.8869 21.6248C18.6326 22.619 18.0872 23.5159 17.3198 24.2022C16.5523 24.8885 15.5971 25.3334 14.5751 25.4805C13.5531 25.6277 12.5101 25.4705 11.5781 25.0289C10.646 24.5873 9.86667 23.8811 9.33866 22.9995C8.81064 22.118 8.55764 21.1008 8.61164 20.0764C8.66564 19.0521 9.02422 18.0667 9.64204 17.2447C10.2599 16.4228 11.1092 15.8013 12.0826 15.4588C13.056 15.1163 14.1098 15.0682 15.1107 15.3205C16.4529 15.6596 17.6046 16.5141 18.3127 17.6963C19.0207 18.8784 19.2273 20.2915 18.8869 21.6248Z" fill="#263238"/>
<path d="M15.7536 17.5362C15.8461 17.5735 15.2535 19.3098 14.4282 21.4162C14.3057 21.7217 14.1781 22.0148 14.0756 22.3029L14.0131 22.4594L13.8555 22.3998C12.1625 21.7515 10.9246 21.2175 10.9546 21.1405C10.9846 21.0634 12.27 21.4658 13.9756 22.0794L13.7555 22.1787C13.8655 21.8906 13.9806 21.595 14.0981 21.2895C14.9209 19.1806 15.6636 17.5089 15.7536 17.5362Z" fill="white"/>
<path d="M51.6997 65.5116H62.1679L66.3167 54.0059H65.734L61.6228 64.9502L51.6997 65.0073V65.5116Z" fill="#455A64"/>
<path d="M47.0708 66.9645L47.4609 103.004H48.5238L48.0911 66.6987L47.0708 66.9645Z" fill="#263238"/>
<path d="M69.4849 66.6143C69.3423 67.3023 70.4452 103.086 70.4452 103.086H71.4455L70.6327 66.6143H69.4849Z" fill="#263238"/>
<path d="M81.7263 65.5115H37.2026V67.3347H40.8788L38.488 102.888L39.5334 102.945L41.9266 67.3347H77.9777L79.7257 102.96H80.7735L79.028 67.3347H81.7263V65.5115Z" fill="#263238"/>
<path d="M11.5064 89.7659L6.11809 49.7726C6.08449 49.5237 6.10727 49.2705 6.18476 49.0315C6.26225 48.7924 6.3925 48.5736 6.566 48.3909C6.7395 48.2082 6.95188 48.0663 7.18763 47.9756C7.42338 47.8848 7.67655 47.8475 7.92867 47.8663L20.9178 48.9454C21.4972 48.9938 22.0405 49.2448 22.451 49.6538C22.8615 50.0629 23.1125 50.6033 23.1593 51.179L26.3242 89.0429L11.5064 89.7659Z" fill="#455A64"/>
<g opacity="0.2">
<path opacity="0.4" d="M11.5064 89.7659L6.11809 49.7726C6.08449 49.5237 6.10727 49.2705 6.18476 49.0315C6.26225 48.7924 6.3925 48.5736 6.566 48.3909C6.7395 48.2082 6.95188 48.0663 7.18763 47.9756C7.42338 47.8848 7.67655 47.8475 7.92867 47.8663L20.9178 48.9454C21.4972 48.9938 22.0405 49.2448 22.451 49.6538C22.8615 50.0629 23.1125 50.6033 23.1593 51.179L26.3242 89.0429L11.5064 89.7659Z" fill="black"/>
</g>
<path d="M24.0356 30.9899C23.9269 29.4649 23.525 27.9794 23.3113 26.4687C23.0977 24.958 23.0542 23.3682 23.6553 21.9619C24.0233 21.1778 24.5434 20.4737 25.186 19.8898C25.8285 19.3059 26.5808 18.8537 27.3996 18.5593C29.0443 17.9796 30.8005 17.7803 32.5345 17.9766C32.8479 17.986 33.1566 18.0556 33.4434 18.1816C33.585 18.2467 33.7071 18.3473 33.7979 18.4734C33.8887 18.5995 33.9449 18.7468 33.9612 18.901C33.9647 18.9775 33.9523 19.0539 33.9247 19.1255C33.8972 19.197 33.8551 19.2622 33.8011 19.3169C33.747 19.3715 33.6823 19.4146 33.6107 19.4433C33.5392 19.472 33.4625 19.4857 33.3854 19.4837C34.0468 19.5508 34.6989 19.6895 35.33 19.8973C35.5865 19.9694 35.8094 20.1285 35.9601 20.3469C36.0212 20.4837 36.0454 20.6339 36.0301 20.7828C36.0149 20.9317 35.9608 21.074 35.8732 21.1957C35.6931 21.4367 35.4712 21.6438 35.2177 21.8072C35.2953 21.792 35.375 21.7922 35.4525 21.8077C35.5299 21.8232 35.6036 21.8536 35.6691 21.8974C35.7347 21.9412 35.791 21.9973 35.8347 22.0627C35.8784 22.1281 35.9087 22.2014 35.9239 22.2784C35.9471 22.4356 35.9368 22.5959 35.8938 22.7489C35.8507 22.9019 35.7759 23.0443 35.674 23.1668C35.4893 23.4258 35.2503 23.638 35.0584 23.8862C34.2762 24.9185 34.4283 26.3536 34.6166 27.6341" fill="#263238"/>
<path d="M24.1769 39.9245L31.4953 39.795C31.5931 38.9533 31.7343 35.6802 31.7343 35.6802C31.7343 35.6802 34.7942 35.3997 35.0187 32.3927C35.2432 29.3858 35.1491 22.4439 35.1491 22.4439C33.4727 21.6033 31.6008 21.2224 29.7266 21.3407C27.8525 21.4589 26.0442 22.0719 24.4883 23.1165L24.0176 23.433L24.1769 39.9245Z" fill="#FFBE9D"/>
<path d="M34.1349 27.6594C34.0734 27.5979 34.0315 27.5197 34.0147 27.4347C33.9978 27.3496 34.0067 27.2615 34.0402 27.1815C34.0737 27.1014 34.1303 27.033 34.2029 26.9849C34.2755 26.9368 34.3609 26.9111 34.4481 26.9111C34.5354 26.9111 34.6207 26.9368 34.6933 26.9849C34.7659 27.033 34.8225 27.1014 34.8561 27.1815C34.8896 27.2615 34.8985 27.3496 34.8816 27.4347C34.8647 27.5197 34.8229 27.5979 34.7614 27.6594C34.7206 27.7008 34.6718 27.7338 34.618 27.7562C34.5643 27.7787 34.5065 27.7903 34.4481 27.7903C34.3898 27.7903 34.332 27.7787 34.2782 27.7562C34.2244 27.7338 34.1757 27.7008 34.1349 27.6594Z" fill="#263238"/>
<path d="M34.9063 26.929C34.8556 26.9794 34.5732 26.7348 34.1567 26.706C33.7403 26.6773 33.4325 26.8751 33.3782 26.8175C33.3239 26.76 33.4108 26.7025 33.5484 26.6089C33.7354 26.4943 33.9541 26.4413 34.1732 26.4574C34.3924 26.4736 34.6008 26.5581 34.7687 26.6989C34.8918 26.8104 34.9317 26.9075 34.9063 26.929Z" fill="#263238"/>
<path d="M30.076 26.9974C30.1478 27.0472 30.2031 27.1171 30.2349 27.1982C30.2666 27.2793 30.2734 27.3679 30.2543 27.4528C30.2352 27.5378 30.1911 27.6151 30.1277 27.6751C30.0642 27.7351 29.9842 27.775 29.8979 27.7897C29.8115 27.8044 29.7227 27.7933 29.6427 27.7578C29.5628 27.7222 29.4952 27.6639 29.4487 27.5901C29.4022 27.5164 29.3788 27.4306 29.3816 27.3436C29.3843 27.2566 29.413 27.1724 29.464 27.1017C29.4972 27.0548 29.5394 27.0149 29.5882 26.9843C29.6369 26.9537 29.6913 26.933 29.7482 26.9233C29.805 26.9136 29.8633 26.9151 29.9195 26.9278C29.9758 26.9406 30.0289 26.9642 30.076 26.9974Z" fill="#263238"/>
<path d="M30.3509 27.0189C30.3002 27.0657 30.0177 26.8211 29.6013 26.7923C29.1849 26.7635 28.8771 26.9614 28.8264 26.9074C28.7757 26.8535 28.8553 26.7887 28.9966 26.6988C29.1823 26.5823 29.4008 26.5281 29.6199 26.5443C29.8389 26.5605 30.047 26.6462 30.2133 26.7887C30.3364 26.8966 30.3762 26.9973 30.3509 27.0189Z" fill="#263238"/>
<path d="M31.8139 30.5403C32.0334 30.4683 32.2637 30.4342 32.4947 30.4396C32.607 30.4396 32.6939 30.4144 32.7048 30.3569C32.7141 30.2481 32.6941 30.1389 32.6468 30.0403C32.5563 29.7598 32.4621 29.4756 32.368 29.1771C31.9878 27.9506 31.727 26.9399 31.7922 26.9219C31.8574 26.9039 32.2123 27.8822 32.5961 29.1087C32.6867 29.4073 32.7699 29.695 32.8569 29.9756C32.9163 30.1207 32.9265 30.281 32.8858 30.4324C32.8677 30.4729 32.8402 30.5087 32.8056 30.5368C32.771 30.5649 32.7303 30.5846 32.6867 30.5942C32.6253 30.6008 32.5634 30.6008 32.502 30.5942C32.2712 30.6151 32.0386 30.5968 31.8139 30.5403Z" fill="#263238"/>
<path d="M30.4272 30.9144C30.0108 30.6303 31.586 31.6338 32.4369 31.6338C32.2812 31.8412 32.059 31.9897 31.807 32.0551C31.5549 32.1205 31.288 32.0987 31.05 31.9935C30.152 31.6158 30.4272 30.9144 30.4272 30.9144Z" fill="white"/>
<path d="M31.7452 35.637C30.3442 35.5789 28.9925 35.1068 27.8633 34.281C27.8633 34.281 28.6636 36.5039 31.7017 36.4175L31.7452 35.637Z" fill="#A36957"/>
<path d="M23.9196 25.6989L24.0753 29.6014C24.0753 29.6014 25.455 29.1842 25.5455 29.1446C25.6361 29.1051 25.5202 24.3644 25.5202 24.3644C25.5202 24.3644 25.3283 22.566 26.5015 22.1524C27.7363 21.71 28.2723 22.5984 30.0213 22.8718C35.7898 23.8393 35.3951 22.0805 35.3951 22.0805C35.3951 22.0805 36.1194 21.3071 34.6383 20.4583C33.1572 19.6094 29.4528 19.3217 27.4249 20.0159C23.4416 21.3791 23.2026 22.7351 23.2026 23.9328C23.2026 25.6413 23.9196 25.6989 23.9196 25.6989Z" fill="#263238"/>
<path d="M24.5969 26.1018C24.5318 26.0767 22.3518 25.7961 22.5582 28.3535C22.7646 30.9108 25.2958 29.8605 25.2958 29.7922C25.2958 29.7239 24.5969 26.1018 24.5969 26.1018Z" fill="#FFBE9D"/>
<path d="M24.4337 28.936C24.4337 28.936 24.3903 28.972 24.3178 29.0116C24.214 29.0652 24.0933 29.0768 23.9811 29.0439C23.8054 28.9544 23.6577 28.819 23.5537 28.6524C23.4497 28.4857 23.3934 28.294 23.3908 28.098C23.3658 27.8783 23.3905 27.6559 23.4632 27.4469C23.4826 27.3667 23.5209 27.2922 23.5751 27.2296C23.6292 27.167 23.6977 27.1182 23.7747 27.0872C23.8252 27.0699 23.8802 27.0705 23.9304 27.0889C23.9805 27.1072 24.0227 27.1422 24.0499 27.188C24.0897 27.2563 24.0752 27.3102 24.0897 27.3138C24.1042 27.3174 24.1404 27.2635 24.1114 27.1628C24.0936 27.0996 24.0538 27.0448 23.9992 27.0081C23.9228 26.9634 23.8327 26.948 23.7457 26.9649C23.6415 26.9935 23.5465 27.0482 23.4698 27.1238C23.393 27.1994 23.3372 27.2933 23.3075 27.3966C23.2163 27.6248 23.1827 27.8718 23.2098 28.1159C23.2677 28.6303 23.5719 29.0907 23.934 29.1698C24.0049 29.1841 24.0781 29.1825 24.1483 29.1651C24.2184 29.1476 24.2838 29.1148 24.3396 29.0691C24.4337 29.0151 24.441 28.954 24.4337 28.936Z" fill="#A36957"/>
<path d="M53.3564 60.5882C53.3564 60.5882 56.9776 60.4156 57.7019 60.7429C58.9548 61.286 62.6846 67.0949 62.4963 67.0949C61.9314 67.0949 60.769 67.0949 60.769 67.0949L54.9751 64.9116L53.6099 65.2533L53.3564 60.5882Z" fill="#FFBE9D"/>
<path d="M18.3796 74.6769C18.4702 72.7023 17.3404 85.5142 27.2551 85.8523C37.1699 86.1904 57.4267 86.0429 57.4267 86.0429L55.0549 118.533H66.9504L69.4346 83.9676C69.4346 83.9676 70.702 73.954 63.8036 72.6771C59.4872 71.875 32.6434 71.6196 32.6434 71.6196L18.3796 74.6769Z" fill="#263238"/>
<path d="M35.6811 59.1855C35.6811 59.1855 34.468 46.2765 32.3134 40.6259L32.7407 40.3057L32.0998 38.0793L24.0391 37.1082L24.1622 38.8454C22.9726 39.3776 22.0008 40.296 21.4065 41.4495C18.5095 47.5426 19.958 54.6571 18.4045 67.8395C18.4045 67.8395 16.5939 74.0225 18.4624 75.9576L36.0505 71.886L35.2212 67.9007C42.8981 67.7568 55.5215 66.354 55.5215 66.354L55.1594 59.1388C55.1594 59.1388 36.2967 59.2503 35.6811 59.1855Z" fill="url(#paint18_linear_1708_5798)"/>
<path d="M32.0856 38.0686C32.3413 38.5213 32.5372 39.0049 32.6686 39.5073C32.7473 39.7037 32.8008 39.9091 32.8279 40.1188C32.8332 40.2274 32.797 40.3341 32.7265 40.4173C32.6684 40.4855 32.5936 40.5375 32.5092 40.5684C32.2051 40.6619 32.0312 40.5972 32.0312 40.5684C32.0312 40.5396 32.2195 40.536 32.4477 40.4281C32.5088 40.401 32.5604 40.3564 32.5958 40.3C32.6313 40.2436 32.6491 40.1781 32.6468 40.1116C32.6057 39.9218 32.55 39.7354 32.4803 39.5541C32.2869 39.0772 32.1543 38.5782 32.0856 38.0686Z" fill="#E0E0E0"/>
<path d="M34.0081 47.6791C34.0081 47.7367 30.7491 47.7799 26.7658 47.7799C22.7825 47.7799 19.5234 47.7367 19.5234 47.6791C19.5234 47.6216 22.7825 47.582 26.7658 47.582C30.7491 47.582 34.0081 47.6396 34.0081 47.6791Z" fill="#263238"/>
<path d="M33.2514 44.0429C33.2514 44.0969 30.3762 44.1436 26.8347 44.1436C23.2932 44.1436 20.418 44.0969 20.418 44.0429C20.418 43.989 23.2896 43.9458 26.8347 43.9458C30.3798 43.9458 33.2514 43.989 33.2514 44.0429Z" fill="#263238"/>
<path d="M32.1942 40.8451C32.1942 40.8991 29.8187 40.9422 26.8856 40.9422C23.9524 40.9422 21.5806 40.8991 21.5806 40.8451C21.5806 40.7911 23.9561 40.7444 26.8856 40.7444C29.8151 40.7444 32.1942 40.8055 32.1942 40.8451Z" fill="#263238"/>
<path d="M32.0892 38.5866C30.7363 38.6883 29.379 38.722 28.0226 38.6873C26.6663 38.722 25.309 38.6883 23.9561 38.5866C23.9561 38.5327 25.7666 38.4895 28.0226 38.4895C30.2786 38.4895 32.0892 38.5327 32.0892 38.5866Z" fill="#263238"/>
<path d="M34.5187 51.1788C34.5187 51.2328 31.0895 51.2759 26.86 51.2759C22.6304 51.2759 19.2012 51.2328 19.2012 51.1788C19.2012 51.1249 22.6304 51.0781 26.86 51.0781C31.0895 51.0781 34.5187 51.1213 34.5187 51.1788Z" fill="#263238"/>
<path d="M35.1417 54.6932C35.1417 54.7472 31.5748 54.7904 27.1751 54.7904C22.7754 54.7904 19.2085 54.7472 19.2085 54.6932C19.2085 54.6393 22.7754 54.5925 27.1751 54.5925C31.5748 54.5925 35.1417 54.6393 35.1417 54.6932Z" fill="#263238"/>
<path d="M35.5327 57.9301C35.5327 57.9877 31.8753 58.0308 27.3669 58.0308C22.8586 58.0308 19.2012 57.9877 19.2012 57.9301C19.2012 57.8726 22.8586 57.833 27.3669 57.833C31.8753 57.833 35.5327 57.8762 35.5327 57.9301Z" fill="#263238"/>
<path d="M53.3564 61.473C53.3564 61.527 45.6432 61.5701 36.1304 61.5701C26.6176 61.5701 18.9009 61.527 18.9009 61.473C18.9009 61.4191 26.614 61.3723 36.1304 61.3723C45.6469 61.3723 53.3564 61.4191 53.3564 61.473Z" fill="#263238"/>
<path d="M53.4901 64.3073C53.4901 64.3649 45.7191 64.408 36.1338 64.408C26.5486 64.408 18.7739 64.3649 18.7739 64.3073C18.7739 64.2498 26.545 64.2102 36.1338 64.2102C45.7227 64.2102 53.4901 64.2534 53.4901 64.3073Z" fill="#263238"/>
<path d="M34.946 67.8034C34.946 67.861 31.2343 67.9041 26.6535 67.9041C22.0727 67.9041 18.3574 67.861 18.3574 67.8034C18.3574 67.7459 22.0691 67.7063 26.6535 67.7063C31.2379 67.7063 34.946 67.7495 34.946 67.8034Z" fill="#263238"/>
<path d="M35.7903 71.0478C35.7903 71.1018 31.7527 71.1485 26.7736 71.1485C21.7944 71.1485 17.7568 71.1018 17.7568 71.0478C17.7568 70.9938 21.7944 70.9507 26.7736 70.9507C31.7527 70.9507 35.7903 70.9938 35.7903 71.0478Z" fill="#263238"/>
<path d="M20.4359 71.9076C20.3779 71.9076 20.3345 65.6167 20.3345 57.8583C20.3345 50.1 20.3779 43.8091 20.4359 43.8091C20.4938 43.8091 20.5336 50.1 20.5336 57.8583C20.5336 65.6167 20.4902 71.9076 20.4359 71.9076Z" fill="#263238"/>
<path d="M24.7853 71.5621C24.731 71.5621 24.6875 63.8721 24.6875 54.3872C24.6875 44.9024 24.7201 37.2087 24.7853 37.2087C24.8504 37.2087 24.8867 44.8952 24.8867 54.3836C24.8867 63.8721 24.8432 71.5621 24.7853 71.5621Z" fill="#263238"/>
<path d="M29.5904 71.0477C29.5361 71.0477 29.4927 63.6346 29.4927 54.5022C29.4927 45.3699 29.5361 37.9568 29.5904 37.9568C29.6448 37.9568 29.6918 45.3699 29.6918 54.5022C29.6918 63.6346 29.6484 71.0477 29.5904 71.0477Z" fill="#263238"/>
<path d="M33.6285 71.8967C33.5742 71.8967 33.5308 66.077 33.5308 58.9013C33.5308 51.7256 33.5742 45.9023 33.6285 45.9023C33.6829 45.9023 33.7299 51.722 33.7299 58.9013C33.7299 66.0806 33.6829 71.8967 33.6285 71.8967Z" fill="#263238"/>
<path d="M37.9047 59.1675C37.9517 59.5878 37.9651 60.0112 37.9445 60.4336C37.9445 61.2141 37.9445 62.2895 37.9011 63.4765C37.8576 64.6635 37.8359 65.7425 37.7997 66.5194C37.7963 66.9421 37.7624 67.364 37.6983 67.7819C37.651 67.3628 37.6376 66.9406 37.6584 66.5194C37.6584 65.7389 37.6584 64.6634 37.7019 63.4729C37.7453 62.2823 37.7671 61.2069 37.8033 60.4264C37.8022 60.0047 37.8361 59.5836 37.9047 59.1675Z" fill="#263238"/>
<path d="M42.4637 59.3186C42.5085 59.7126 42.5218 60.1095 42.5035 60.5056C42.5035 61.2249 42.5035 62.2428 42.4673 63.3543C42.4311 64.4657 42.4021 65.4764 42.3695 66.2066C42.3708 66.602 42.3369 66.9968 42.2681 67.3863C42.2231 66.9948 42.2098 66.6002 42.2283 66.2066C42.2283 65.4872 42.2283 64.4657 42.2681 63.3507C42.308 62.2356 42.3297 61.2285 42.3659 60.4984C42.3625 60.103 42.3953 59.7081 42.4637 59.3186Z" fill="#263238"/>
<path d="M46.9976 59.2395C47.0471 59.6199 47.0616 60.0039 47.041 60.3869C47.041 61.1063 47.041 62.0738 47.0048 63.1529C46.9686 64.2319 46.9433 65.2103 46.9071 65.9152C46.9107 66.2999 46.8779 66.684 46.8093 67.0626C46.7639 66.6831 46.7494 66.3006 46.7658 65.9188C46.7658 65.1995 46.7658 64.2319 46.8057 63.1529C46.8455 62.0738 46.8672 61.0919 46.8998 60.3869C46.9008 60.0024 46.9335 59.6187 46.9976 59.2395Z" fill="#263238"/>
<path d="M51.5493 59.1135C51.5992 59.4818 51.6138 59.8539 51.5928 60.2249C51.5928 60.9119 51.5928 61.8615 51.5566 62.9082C51.5204 63.9549 51.4986 64.9044 51.4624 65.5878C51.4633 65.9603 51.4318 66.3322 51.3683 66.6993C51.3181 66.331 51.3023 65.959 51.3212 65.5878C51.3212 64.9008 51.3212 63.9513 51.3574 62.9046C51.3936 61.8579 51.419 60.9048 51.4516 60.2214C51.4502 59.8499 51.4829 59.4791 51.5493 59.1135Z" fill="#263238"/>
<path d="M34.1025 60.7934C34.4303 59.9939 35.0265 59.3318 35.79 58.9194C35.5242 59.2456 35.2376 59.5544 34.9318 59.8438C34.6755 60.1772 34.3986 60.4943 34.1025 60.7934Z" fill="#263238"/>
<path d="M35.1419 60.8797C35.0661 60.5184 35.0938 60.1432 35.2218 59.7967C35.3498 59.4502 35.573 59.1463 35.8661 58.9194C35.9096 58.959 35.6054 59.3259 35.4098 59.8654C35.2143 60.4049 35.2215 60.8797 35.1419 60.8797Z" fill="#263238"/>
<path d="M53.6896 66.3146C53.4867 65.1735 53.3489 64.0218 53.2768 62.8652C53.1392 61.7132 53.0667 60.5544 53.0596 59.3943C53.2671 60.5361 53.4062 61.6891 53.476 62.8473C53.6137 63.998 53.685 65.1557 53.6896 66.3146Z" fill="#263238"/>
<path d="M53.9177 60.7539C53.9177 60.779 53.8163 60.851 53.8018 61.0308C53.7987 61.0784 53.805 61.1261 53.8206 61.1711C53.8361 61.2162 53.8605 61.2578 53.8924 61.2934C53.9332 61.3297 53.984 61.3529 54.0383 61.3599C54.0926 61.367 54.1477 61.3576 54.1966 61.333C54.2477 61.3135 54.2921 61.2797 54.3242 61.2356C54.3564 61.1915 54.3749 61.1391 54.3776 61.0848C54.3728 61.0372 54.3584 60.9911 54.3354 60.9491C54.3124 60.9071 54.2812 60.8701 54.2436 60.8402C54.1024 60.7287 53.9684 60.7647 53.9612 60.7359C53.9539 60.7071 54.0952 60.6064 54.3233 60.7359C54.3901 60.7714 54.4469 60.8229 54.4886 60.8857C54.5303 60.9485 54.5556 61.0206 54.5623 61.0956C54.5674 61.1889 54.5429 61.2814 54.4923 61.3602C54.4416 61.4389 54.3673 61.4998 54.2798 61.5344C54.1939 61.5746 54.0975 61.5873 54.0041 61.5705C53.9106 61.5537 53.8247 61.5084 53.7584 61.4409C53.7111 61.3841 53.6782 61.317 53.6624 61.245C53.6467 61.173 53.6485 61.0983 53.6679 61.0272C53.733 60.7647 53.9213 60.7287 53.9177 60.7539Z" fill="#263238"/>
<path d="M35.6596 59.1495H35.7501L36.0144 59.1711C36.2498 59.1963 36.5974 59.2179 37.0537 59.2323C37.9662 59.2682 39.3061 59.2862 41.0117 59.2718C44.4192 59.2502 49.2897 59.1244 55.1342 58.9121H55.2175V58.9949C55.3334 61.2357 55.4565 63.6708 55.5796 66.2533V66.336H55.5036C54.5766 66.5087 53.6387 66.5806 52.6791 66.6777L49.7532 66.9295C47.7651 67.0914 45.7192 67.2424 43.637 67.3899L35.9818 67.9006C33.7621 67.7604 31.6075 66.9691 30.1011 65.5159C29.3605 64.815 28.7791 63.9652 28.3955 63.0233C28.0355 62.1342 27.7485 61.2176 27.5373 60.2825C26.6428 56.6857 26.0888 53.409 25.6361 50.6898C25.4189 49.3302 25.2342 48.1036 25.0785 47.0318C24.9135 46.1197 24.8059 45.1984 24.7562 44.273C24.7267 43.6855 24.8514 43.1004 25.1183 42.5753C25.2098 42.396 25.3324 42.234 25.4804 42.0969C25.3536 42.2521 25.2409 42.4182 25.1437 42.5933C24.8967 43.1176 24.787 43.6954 24.825 44.273C24.8904 45.1942 25.0114 46.1106 25.1871 47.0174C25.3573 48.0965 25.5492 49.3122 25.7738 50.6718C26.23 53.3838 26.8094 56.6389 27.7111 60.2394C27.9248 61.1656 28.2118 62.0736 28.5693 62.955C28.9463 63.8735 29.5167 64.7013 30.2423 65.3829C31.6908 66.7964 33.8236 67.5697 36.0036 67.71L43.6551 67.1921L49.7676 66.7353L52.6936 66.4871C53.6459 66.39 54.6019 66.318 55.4891 66.1526L55.4167 66.2497C55.2936 63.6779 55.1777 61.2321 55.0546 58.9877L55.1451 59.0704C49.3041 59.2826 44.4337 59.3833 41.0225 59.3761C39.3169 59.3761 37.9771 59.3438 37.0646 59.2898C36.6083 59.2646 36.2571 59.2359 36.0217 59.1999L35.7573 59.1675C35.7241 59.166 35.6912 59.16 35.6596 59.1495Z" fill="#263238"/>
<path d="M35.6598 59.1497C35.5799 58.9675 35.5169 58.7785 35.4715 58.585C35.3664 58.2253 35.2216 57.6858 35.0478 57.024C34.6857 55.704 34.2692 53.866 33.8057 51.8374C33.3422 49.8087 32.9185 47.9708 32.5999 46.6435L32.2377 45.0717C32.1812 44.8816 32.1436 44.6864 32.1255 44.489C32.2033 44.672 32.2662 44.8608 32.3138 45.0537C32.426 45.4134 32.5709 45.9493 32.7483 46.6111C33.1104 47.9276 33.5522 49.762 34.0157 51.7942C34.4793 53.8264 34.8595 55.6284 35.1854 56.9916C35.3302 57.6319 35.4533 58.1606 35.5475 58.567C35.5995 58.7582 35.6371 58.953 35.6598 59.1497Z" fill="#263238"/>
<path d="M32.111 38.2195C32.1142 38.3525 32.1008 38.4854 32.0712 38.6151C32.035 38.8705 31.977 39.2338 31.8974 39.6942C31.8627 39.9453 31.8119 40.194 31.7453 40.4387C31.7231 40.5199 31.6821 40.5947 31.6255 40.6572C31.5689 40.7197 31.4983 40.768 31.4194 40.7984C31.2603 40.84 31.0931 40.84 30.9341 40.7984C30.3366 40.6761 29.6848 40.5179 29.004 40.3344C27.6461 39.9747 26.4366 39.5755 25.5567 39.3057L24.5174 38.982C24.3913 38.9504 24.2696 38.9033 24.1553 38.8417C24.2892 38.8456 24.4219 38.8674 24.55 38.9065C24.8035 38.964 25.1656 39.0504 25.611 39.1726C26.5018 39.4064 27.7185 39.7733 29.0728 40.1438C29.75 40.3272 30.3946 40.5035 30.9884 40.6222C31.1158 40.6634 31.2515 40.672 31.3831 40.6473C31.4371 40.6278 31.4857 40.5957 31.5247 40.5538C31.5637 40.5119 31.5922 40.4613 31.6077 40.4064C31.6873 40.1762 31.7199 39.91 31.7742 39.687C31.8684 39.241 31.9517 38.8813 32.0096 38.6295C32.0233 38.4887 32.0574 38.3506 32.111 38.2195Z" fill="#263238"/>
<path d="M8.4501 66.5159L11.5064 89.7659L35.3808 89.2012L35.3192 75.08C35.3276 74.5251 35.2184 73.9746 34.9987 73.4644C34.779 72.9542 34.4536 72.4955 34.0438 72.1183C33.634 71.7411 33.1489 71.4538 32.62 71.2749C32.0911 71.0961 31.5302 71.0298 30.9738 71.0803L12.7702 72.7133L10.3729 48.0713L7.954 47.8663C7.70135 47.848 7.44776 47.8859 7.21173 47.9773C6.9757 48.0686 6.76319 48.2112 6.5897 48.3946C6.41621 48.5779 6.28611 48.7974 6.20891 49.0371C6.1317 49.2767 6.10932 49.5305 6.14341 49.7798L8.4501 66.5159Z" fill="#455A64"/>
<line x1="0.25" y1="-0.25" x2="16.4529" y2="-0.25" transform="matrix(0.110644 0.99386 -0.993907 0.110219 19.0137 52.0706)" stroke="#263238" stroke-width="0.5" stroke-linecap="round"/>
</g>
</g>
<defs>
<linearGradient id="paint0_linear_1708_5798" x1="42.1694" y1="14.127" x2="51.654" y2="14.1329" gradientUnits="userSpaceOnUse">
<stop stop-color="#3961F4"/>
<stop offset="1" stop-color="#11BAFC"/>
</linearGradient>
<linearGradient id="paint1_linear_1708_5798" x1="48.1738" y1="15.996" x2="50.1954" y2="15.9967" gradientUnits="userSpaceOnUse">
<stop stop-color="#3961F4"/>
<stop offset="1" stop-color="#11BAFC"/>
</linearGradient>
<linearGradient id="paint2_linear_1708_5798" x1="42.1694" y1="14.127" x2="49.5543" y2="14.1306" gradientUnits="userSpaceOnUse">
<stop stop-color="#3961F4"/>
<stop offset="1" stop-color="#11BAFC"/>
</linearGradient>
<linearGradient id="paint3_linear_1708_5798" x1="47.5512" y1="49.3214" x2="49.9902" y2="50.1295" gradientUnits="userSpaceOnUse">
<stop stop-color="#3961F4"/>
<stop offset="1" stop-color="#11BAFC"/>
</linearGradient>
<linearGradient id="paint4_linear_1708_5798" x1="47.8262" y1="49.2577" x2="50.2677" y2="49.2594" gradientUnits="userSpaceOnUse">
<stop stop-color="#3961F4"/>
<stop offset="1" stop-color="#11BAFC"/>
</linearGradient>
<linearGradient id="paint5_linear_1708_5798" x1="47.2632" y1="49.8425" x2="48.4672" y2="49.8435" gradientUnits="userSpaceOnUse">
<stop stop-color="#3961F4"/>
<stop offset="1" stop-color="#11BAFC"/>
</linearGradient>
<linearGradient id="paint6_linear_1708_5798" x1="49.4619" y1="50.4214" x2="49.9865" y2="50.4215" gradientUnits="userSpaceOnUse">
<stop stop-color="#3961F4"/>
<stop offset="1" stop-color="#11BAFC"/>
</linearGradient>
<linearGradient id="paint7_linear_1708_5798" x1="53.963" y1="55.8674" x2="60.2353" y2="57.9455" gradientUnits="userSpaceOnUse">
<stop stop-color="#3961F4"/>
<stop offset="1" stop-color="#11BAFC"/>
</linearGradient>
<linearGradient id="paint8_linear_1708_5798" x1="54.6655" y1="55.6365" x2="60.958" y2="55.6409" gradientUnits="userSpaceOnUse">
<stop stop-color="#3961F4"/>
<stop offset="1" stop-color="#11BAFC"/>
</linearGradient>
<linearGradient id="paint9_linear_1708_5798" x1="53.2402" y1="57.2039" x2="56.3385" y2="57.2063" gradientUnits="userSpaceOnUse">
<stop stop-color="#3961F4"/>
<stop offset="1" stop-color="#11BAFC"/>
</linearGradient>
<linearGradient id="paint10_linear_1708_5798" x1="58.9219" y1="58.6918" x2="60.242" y2="58.692" gradientUnits="userSpaceOnUse">
<stop stop-color="#3961F4"/>
<stop offset="1" stop-color="#11BAFC"/>
</linearGradient>
<linearGradient id="paint11_linear_1708_5798" x1="53.1377" y1="50.0674" x2="56.4243" y2="51.1563" gradientUnits="userSpaceOnUse">
<stop stop-color="#3961F4"/>
<stop offset="1" stop-color="#11BAFC"/>
</linearGradient>
<linearGradient id="paint12_linear_1708_5798" x1="53.5103" y1="49.9419" x2="56.7983" y2="49.9442" gradientUnits="userSpaceOnUse">
<stop stop-color="#3961F4"/>
<stop offset="1" stop-color="#11BAFC"/>
</linearGradient>
<linearGradient id="paint13_linear_1708_5798" x1="53.5103" y1="49.9419" x2="56.7983" y2="49.9442" gradientUnits="userSpaceOnUse">
<stop stop-color="#3961F4"/>
<stop offset="1" stop-color="#11BAFC"/>
</linearGradient>
<linearGradient id="paint14_linear_1708_5798" x1="52.7549" y1="50.7678" x2="54.3788" y2="50.7691" gradientUnits="userSpaceOnUse">
<stop stop-color="#3961F4"/>
<stop offset="1" stop-color="#11BAFC"/>
</linearGradient>
<linearGradient id="paint15_linear_1708_5798" x1="52.7549" y1="50.7678" x2="54.3788" y2="50.7691" gradientUnits="userSpaceOnUse">
<stop stop-color="#3961F4"/>
<stop offset="1" stop-color="#11BAFC"/>
</linearGradient>
<linearGradient id="paint16_linear_1708_5798" x1="55.731" y1="51.5467" x2="56.4234" y2="51.5468" gradientUnits="userSpaceOnUse">
<stop stop-color="#3961F4"/>
<stop offset="1" stop-color="#11BAFC"/>
</linearGradient>
<linearGradient id="paint17_linear_1708_5798" x1="55.731" y1="51.5467" x2="56.4234" y2="51.5468" gradientUnits="userSpaceOnUse">
<stop stop-color="#3961F4"/>
<stop offset="1" stop-color="#11BAFC"/>
</linearGradient>
<linearGradient id="paint18_linear_1708_5798" x1="17.6167" y1="56.5333" x2="51.4744" y2="56.546" gradientUnits="userSpaceOnUse">
<stop stop-color="#3961F4"/>
<stop offset="1" stop-color="#11BAFC"/>
</linearGradient>
<clipPath id="clip0_1708_5798">
<rect width="101.029" height="97.1429" fill="white" transform="translate(4.84521 5.9585)"/>
</clipPath>
</defs>
</svg>
