<svg width="102" height="92" viewBox="0 0 102 92" fill="none" xmlns="http://www.w3.org/2000/svg">
<g clip-path="url(#clip0_1708_6050)">
<path d="M12.6296 69.3466C13.778 68.7508 15.128 68.6735 16.4014 68.8854C17.0851 69.0001 17.7974 69.2054 18.2642 69.7239C18.731 70.2425 18.8165 71.1516 18.2818 71.5952C17.964 71.86 17.5213 71.8997 17.1093 71.8953C16.1121 71.8842 15.0053 71.7077 14.2097 72.3101C13.7539 72.6566 13.4514 73.2281 12.9101 73.398C12.3688 73.5679 11.7771 73.248 11.4965 72.7647C11.2373 72.262 11.18 71.6781 11.3365 71.134C11.4007 70.7559 11.5508 70.3978 11.7751 70.0878C11.9994 69.7777 12.2918 69.524 12.6296 69.3466Z" fill="url(#paint0_linear_1708_6050)"/>
<path d="M10.0027 64.2403C10.704 65.2487 12.0672 64.9133 12.7006 64.2999C13.3339 63.6864 13.5991 62.7905 13.8424 61.941C14.3969 59.9969 14.9579 57.969 14.5437 55.983C14.4449 55.3832 14.1833 54.8226 13.7876 54.3633C13.5877 54.1363 13.332 53.9663 13.0462 53.8702C12.7604 53.7742 12.4545 53.7555 12.1592 53.8161C11.4711 53.9992 11.0459 54.6766 10.7369 55.3232C9.82662 57.2264 9.34968 59.3101 9.34082 61.4224C9.34082 62.4044 9.45259 63.4349 9.99831 64.2469" fill="url(#paint1_linear_1708_6050)"/>
<path d="M8.07643 65.6879C8.83911 64.7765 8.98376 63.4503 8.64406 62.3095C8.30436 61.1686 7.54825 60.1999 6.65845 59.4077C5.62026 58.4779 4.41209 57.7606 3.10146 57.2959C2.59422 57.0889 2.04828 56.9955 1.50158 57.0223C1.22853 57.0379 0.963413 57.1205 0.729272 57.2628C0.495132 57.4051 0.299063 57.6028 0.158119 57.8388C-0.216647 58.5582 0.142778 59.4298 0.530694 60.1425C1.21501 61.3962 1.99617 62.5936 2.86696 63.724C3.56827 64.6331 4.37041 65.529 5.43772 65.9306C6.50504 66.3322 7.614 66.2947 8.19039 65.5577" fill="url(#paint2_linear_1708_6050)"/>
<path d="M9.95627 79.453C9.9927 79.3033 10.014 79.1503 10.0198 78.9963C10.0505 78.6608 10.0922 78.2438 10.1404 77.7451C10.2016 77.1287 10.2945 76.5159 10.4187 75.9091C10.581 75.1713 10.8008 74.4475 11.0762 73.7444C11.3482 73.0426 11.7171 72.383 12.172 71.7849C12.5433 71.2984 13.0181 70.9018 13.5615 70.6242C13.9317 70.4429 14.3282 70.3222 14.7362 70.2667C14.8893 70.2604 15.0413 70.2383 15.1899 70.2005C15.0369 70.1838 14.8826 70.1838 14.7296 70.2005C14.3073 70.2348 13.8942 70.3431 13.5089 70.5205C12.9379 70.7925 12.4369 71.1935 12.0449 71.6922C11.5701 72.2986 11.1868 72.9723 10.9074 73.6914C10.625 74.4064 10.405 75.1447 10.25 75.8981C10.132 76.512 10.0508 77.1324 10.0067 77.7561C9.96723 78.2879 9.95408 78.7182 9.94532 79.0161C9.93339 79.1617 9.93707 79.3082 9.95627 79.453Z" fill="#263238"/>
<path d="M10.0417 78.4909C10.05 78.4176 10.05 78.3436 10.0417 78.2702V77.6612C10.0417 77.1338 10.0417 76.3703 10.068 75.4281C10.114 73.5414 10.2872 71.5113 10.5874 68.6492C10.8811 65.9593 11.2778 62.8258 11.6964 60.7913C11.7841 60.3279 11.8761 59.9086 11.9594 59.5467C12.0427 59.1849 12.1106 58.8649 12.1785 58.6089C12.2465 58.3529 12.2837 58.1676 12.321 58.0197C12.3427 57.9481 12.3552 57.8739 12.3583 57.7991C12.3247 57.8616 12.2996 57.9284 12.2837 57.9977C12.2377 58.1499 12.1807 58.3441 12.1084 58.5802C12.0361 58.8163 11.9506 59.1451 11.8608 59.5114C11.7709 59.8777 11.6657 60.2904 11.5671 60.7516C11.051 63.1565 10.6618 65.5872 10.4011 68.0336C10.0899 70.9022 9.94967 73.5127 9.93652 75.4016C9.93652 76.3482 9.93652 77.114 9.9694 77.6414C9.98474 77.8885 9.99789 78.0827 10.0067 78.2482C10.0073 78.3303 10.0191 78.412 10.0417 78.4909Z" fill="#263238"/>
<path d="M10.0535 73.4553C10.0702 73.2438 10.0702 73.0313 10.0535 72.8197C10.0178 72.2431 9.9534 71.6687 9.8606 71.0986C9.72319 70.253 9.53807 69.4161 9.30612 68.5918C9.03263 67.5799 8.68241 66.5906 8.25853 65.6327C7.533 63.8602 6.49333 62.2354 5.19027 60.8376C4.96449 60.5987 4.72443 60.374 4.47142 60.1646C4.35965 60.0719 4.26322 59.977 4.1624 59.9042L3.88407 59.71C3.72183 59.5796 3.54961 59.4623 3.36904 59.3591C3.33835 59.3989 4.12076 59.8645 5.10918 60.9214C6.36421 62.3321 7.37142 63.9476 8.08759 65.6989C8.50076 66.6543 8.85072 67.6362 9.13518 68.6381C9.40694 69.5605 9.58884 70.4035 9.72472 71.1206C9.8606 71.8378 9.93074 72.4203 9.97676 72.8264C9.98764 73.0376 10.0133 73.2477 10.0535 73.4553Z" fill="#263238"/>
<path d="M5.21729 82.3394L5.71917 89.2528H14.5404L15.0423 82.3394H5.21729Z" fill="#263238"/>
<path d="M16.095 79.614H4.36768V82.3392H16.095V79.614Z" fill="#263238"/>
<path d="M4.36768 88.988V89.7449H4.91777H15.9022V88.988H4.36768Z" fill="#455A64"/>
<path d="M5.45979 91.0733L4.91846 89.7449H15.482L14.8509 91.0733H5.45979Z" fill="#455A64"/>
<path d="M14.8791 84.6101C14.8681 84.6325 14.8541 84.6533 14.8374 84.6719C14.8023 84.7204 14.7607 84.7778 14.7059 84.8484L14.1931 85.5104L14.169 85.5413L14.1471 85.5104L12.8847 83.7451H12.957L11.7144 85.5104L11.6749 85.5656L11.6311 85.5148L10.1583 83.7495H10.2438C10.2175 83.7804 10.189 83.8157 10.1627 83.851L8.84772 85.5148L8.80389 85.57L8.76444 85.5126L7.5196 83.7473H7.59193C6.98047 84.4512 6.45886 85.047 6.0578 85.5126L6.0315 85.5435L6.01177 85.5082C5.80795 85.1684 5.64796 84.8947 5.53181 84.6983C5.4814 84.6101 5.43976 84.5395 5.40908 84.4777C5.39241 84.4539 5.37913 84.4279 5.36963 84.4004C5.36963 84.4004 5.38935 84.4225 5.42223 84.4688L5.55811 84.6763L6.06218 85.4729H6.01396L7.5196 83.6943L7.55905 83.6502L7.59193 83.6987L8.84772 85.464H8.76006L10.075 83.798L10.1561 83.6965L10.2 83.6436L10.2416 83.6943C10.7588 84.3144 11.2541 84.9124 11.7122 85.4596H11.6289L12.8847 83.6943L12.9219 83.6436L12.957 83.6943L14.1931 85.4729H14.1492L14.684 84.8307L14.8265 84.663C14.8601 84.6174 14.8776 84.5998 14.8791 84.6101Z" fill="#E0E0E0"/>
<path d="M15.1657 82.293C15.1657 82.3239 12.9544 82.3481 10.2302 82.3481C7.50601 82.3481 5.29248 82.3239 5.29248 82.293C5.29248 82.2621 7.50163 82.2378 10.2302 82.2378C12.9588 82.2378 15.1657 82.2621 15.1657 82.293Z" fill="#455A64"/>
<path d="M15.611 89.8176C15.611 89.8485 13.2002 89.8728 10.2459 89.8728C7.29164 89.8728 4.88086 89.8485 4.88086 89.8176C4.88086 89.7867 7.29164 89.7625 10.2459 89.7625C13.2002 89.7625 15.611 89.7867 15.611 89.8176Z" fill="#263238"/>
<path d="M75.9336 61.9055H96.4318C97.3112 61.9055 98.1546 62.2573 98.7765 62.8834C99.3983 63.5095 99.7477 64.3587 99.7477 65.2442V91.1989H72.6177V65.2442C72.6177 64.3587 72.967 63.5095 73.5889 62.8834C74.2107 62.2573 75.0542 61.9055 75.9336 61.9055Z" fill="#455A64"/>
<path d="M97.4642 62.0557C97.4971 62.0557 97.5212 68.5763 97.5212 76.6196C97.5212 84.6629 97.4971 91.1836 97.4642 91.1836C97.4313 91.1836 97.4072 84.6629 97.4072 76.6196C97.4072 68.5763 97.4335 62.0557 97.4642 62.0557Z" fill="#263238"/>
<path d="M84.0983 30.1055C86.5928 33.7013 88.023 37.9357 88.2229 42.3172C88.35 45.252 87.9577 48.3789 89.3406 50.9651C91.3262 54.6767 95.6196 54.5509 96.9346 58.5516C97.5066 60.2926 96.4524 64.1212 96.1675 65.9328C95.8453 67.9894 97.0945 69.7173 96.7724 71.7761C96.4765 73.6628 95.0739 75.0088 93.3907 75.8871C91.8917 76.6682 90.5065 76.6903 88.9483 76.0393C85.9765 74.8014 83.5043 73.4951 81.3894 71.0589C78.4176 67.6386 77.519 62.8943 77.0062 58.3861C75.8871 48.4161 76.1134 38.3395 77.679 28.4307" fill="#263238"/>
<path d="M90.4527 76.4608C90.4836 76.4508 90.5151 76.4426 90.547 76.4365C90.6105 76.4211 90.707 76.4056 90.8297 76.3681C91.7541 76.115 92.5827 75.5903 93.2098 74.861C93.4457 74.5829 93.6258 74.2614 93.7402 73.9143C93.8495 73.5193 93.9121 73.1127 93.9264 72.7029C93.9424 71.7577 93.8467 70.814 93.6415 69.8916C93.4509 68.8897 93.2032 67.8217 93.1287 66.6632C93.0925 66.0718 93.1345 65.4782 93.2536 64.8979C93.391 64.2951 93.5771 63.7047 93.8103 63.1326C94.049 62.5455 94.2582 61.9468 94.4371 61.3386C94.6229 60.7168 94.6752 60.0624 94.5905 59.4188C94.4884 58.7783 94.245 58.1691 93.8782 57.6358C93.5198 57.1168 93.1028 56.6414 92.6356 56.2191C91.7304 55.3673 90.7508 54.6744 89.9136 53.8756C88.4201 52.4841 87.2149 50.8087 86.3676 48.946C86.0392 48.2329 85.7666 47.4951 85.5523 46.7393C85.4471 46.4105 85.3857 46.0927 85.3112 45.8059C85.2367 45.519 85.2038 45.2498 85.1556 45.0115C85.0877 44.5282 85.0351 44.1553 85.0219 43.9082C85.0219 43.7846 85.0044 43.6875 85 43.6169C84.9956 43.5463 85 43.5176 85 43.5176C85 43.5176 85 43.5507 85.0153 43.6169C85.0307 43.6831 85.0351 43.7824 85.0504 43.9059C85.0701 44.1597 85.1293 44.5326 85.2038 45.0093C85.2542 45.2476 85.309 45.5124 85.3682 45.8015C85.4274 46.0905 85.5085 46.3995 85.618 46.7283C85.838 47.4765 86.1142 48.2068 86.4443 48.9129C87.2975 50.7587 88.5015 52.4184 89.9881 53.7984C90.8209 54.5796 91.8028 55.2791 92.7167 56.1353C93.1901 56.5638 93.6129 57.0458 93.9768 57.5718C94.3532 58.1196 94.6026 58.7455 94.7067 59.4033C94.7942 60.0624 94.7411 60.7327 94.551 61.3695C94.3801 61.9961 94.1412 62.5897 93.9199 63.1723C93.6886 63.7376 93.5024 64.3205 93.3632 64.9156C93.2448 65.4877 93.2028 66.0732 93.2383 66.6566C93.2974 67.7997 93.5517 68.8633 93.7402 69.8717C93.9419 70.802 94.0331 71.7531 94.0119 72.7051C93.9934 73.1218 93.9273 73.535 93.8147 73.9364C93.6929 74.2897 93.5063 74.6168 93.2646 74.9007C92.878 75.3522 92.4075 75.7233 91.8795 75.993C91.5504 76.1689 91.2006 76.3023 90.8385 76.3902C90.7119 76.4236 90.5829 76.4472 90.4527 76.4608Z" fill="#455A64"/>
<path d="M49.646 84.3452L60.1658 79.3162C60.1658 79.3162 64.2619 59.2908 65.0377 57.7881C65.8135 56.2853 69.0484 54.9856 69.0484 54.9856L68.507 82.101L67.5427 88.3613L52.7099 89.7758L49.646 84.3452Z" fill="url(#paint3_linear_1708_6050)"/>
<path d="M40.6716 89.0894C40.6124 89.0894 40.3209 89.2703 40.5642 89.7359C40.8075 90.2015 42.5914 91.7396 43.1152 91.2033C43.639 90.6671 42.8391 90.0139 42.8391 90.0139L40.6716 89.0894Z" fill="#FFBE9D"/>
<path d="M42.9134 90.0338C42.9134 90.0338 45.0656 90.3074 45.8918 90.6252C46.7926 90.9694 47.8884 90.7333 48.6248 90.2324C49.0432 89.9519 49.4337 89.6311 49.7907 89.2747L52.5346 89.2306C52.9291 88.7655 53.1878 88.1995 53.2822 87.5954C53.3766 86.9912 53.3029 86.3726 53.0694 85.808C52.9225 85.4153 52.7105 85.0504 52.4425 84.729C52.116 84.3737 51.601 84.0868 50.7112 83.9324L47.4522 84.6407C47.4522 84.6407 42.4115 84.2766 41.5042 84.7047C41.5042 84.7047 40.3755 85.3777 40.027 85.6602C39.8955 85.7683 39.4945 87.0614 40.3163 87.7345C40.3163 87.7345 39.6019 88.306 39.9898 88.8201L40.1739 89.0408C40.1739 89.0408 39.6939 89.6675 39.9416 89.9411C40.1892 90.2147 42.3523 91.4858 43.1216 91.1857C43.8909 90.8856 43.2553 90.1596 42.9134 90.0272" fill="#FFBE9D"/>
<path d="M40.8575 86.6157C40.9484 86.6427 41.0377 86.6751 41.1248 86.7128C41.2936 86.7768 41.5412 86.8695 41.8525 86.9688C42.0059 87.0195 42.1768 87.0703 42.3631 87.1188C42.5494 87.1674 42.7488 87.2093 42.957 87.2777C43.1835 87.3402 43.3884 87.4647 43.5488 87.6374C43.6372 87.7331 43.6985 87.851 43.7262 87.9787C43.754 88.1064 43.7472 88.2392 43.7066 88.3634C43.6551 88.4884 43.5611 88.5909 43.4414 88.6525C43.3287 88.7081 43.2069 88.7425 43.082 88.754C42.8526 88.7676 42.6225 88.755 42.396 88.7165C42.0166 88.6547 41.6439 88.5572 41.2826 88.4252C40.9736 88.3149 40.7304 88.2045 40.5616 88.1383C40.4723 88.1058 40.3864 88.0644 40.3052 88.0147C40.3968 88.0393 40.4868 88.0695 40.5747 88.1052C40.7457 88.167 40.9933 88.2619 41.3024 88.3634C41.6592 88.4853 42.0258 88.5761 42.3982 88.6348C42.6156 88.6691 42.836 88.6795 43.0557 88.6657C43.1693 88.6555 43.28 88.6241 43.3822 88.573C43.4815 88.5208 43.5591 88.4348 43.6014 88.3303C43.6368 88.2231 43.6437 88.1084 43.6214 87.9977C43.5991 87.8869 43.5484 87.784 43.4743 87.6992C43.3249 87.5382 43.1347 87.4215 42.9242 87.3616C42.7225 87.2932 42.5209 87.249 42.3368 87.1961C42.1527 87.1431 41.9796 87.0879 41.8262 87.035C41.5149 86.9269 41.2717 86.8143 41.1051 86.7503C41.0186 86.7134 40.9356 86.6683 40.8575 86.6157Z" fill="#EB996E"/>
<path d="M41.0503 85.0513C41.141 85.0768 41.2297 85.1092 41.3155 85.1484C41.4864 85.2146 41.7319 85.3094 42.0387 85.411C42.3455 85.5125 42.7159 85.6316 43.1345 85.7265C43.3641 85.7628 43.5824 85.8519 43.7723 85.9869C43.8729 86.0711 43.9392 86.1898 43.9586 86.3201C43.9778 86.4514 43.9587 86.5856 43.9038 86.7063C43.8481 86.8213 43.7692 86.9235 43.6723 87.0063C43.5753 87.0891 43.4624 87.1508 43.3405 87.1873C43.1193 87.2597 42.8843 87.2786 42.6545 87.2425C42.2807 87.1672 41.9141 87.0594 41.5587 86.9203L40.8333 86.6643C40.7434 86.636 40.6555 86.6013 40.5703 86.5606C40.6634 86.5763 40.7551 86.6 40.8443 86.6312L41.5785 86.8519C41.9356 86.9799 42.3019 87.0802 42.6743 87.152C42.8913 87.1833 43.1126 87.1637 43.3208 87.0946C43.4315 87.0605 43.5341 87.0037 43.622 86.9278C43.7098 86.8518 43.7812 86.7584 43.8314 86.6533C43.8832 86.5531 43.9007 86.4384 43.8813 86.3272C43.8619 86.2159 43.8066 86.1141 43.724 86.0376C43.5447 85.9117 43.3394 85.828 43.1235 85.7927C42.7049 85.6868 42.3346 85.572 42.0277 85.4573C41.7209 85.3425 41.4798 85.2366 41.3133 85.166C41.2227 85.135 41.1347 85.0966 41.0503 85.0513Z" fill="#EB996E"/>
<path d="M42.0864 85.4925C42.0415 85.3484 42.0085 85.2008 41.9878 85.0512C41.9383 84.9078 41.9024 84.76 41.8804 84.6099C41.9849 84.7247 42.0528 84.8684 42.0754 85.0225C42.1303 85.1737 42.1341 85.3389 42.0864 85.4925Z" fill="#EB996E"/>
<path d="M49.6771 85.5633L47.7594 84.8307C47.7594 84.8307 42.436 82.3283 42.3461 82.4651C42.2563 82.6019 41.967 82.5843 42.0305 83.2375C42.0941 83.8906 45.1952 85.2102 45.2938 85.4441C45.3925 85.678 45.2281 86.8167 46.3743 87.6353C47.5205 88.454 48.3468 88.4739 48.3468 88.4739" fill="#FFBE9D"/>
<path d="M48.3475 88.4538H48.2971L48.1656 88.4406C47.9968 88.4136 47.8305 88.373 47.6681 88.3192C47.0705 88.1143 46.5182 87.7943 46.042 87.377C45.7194 87.0728 45.4911 86.6812 45.3845 86.2494C45.3295 86.0119 45.2914 85.7707 45.2705 85.5278C45.2668 85.5 45.2602 85.4726 45.2508 85.4461C45.2383 85.4248 45.2211 85.4066 45.2004 85.3932C45.1503 85.3566 45.0984 85.3227 45.0448 85.2917C44.9374 85.2277 44.8256 85.1659 44.7073 85.1041C44.247 84.8548 43.7539 84.6054 43.2586 84.3185C43.0047 84.1745 42.7582 84.0176 42.52 83.8485C42.3967 83.7614 42.2809 83.6639 42.1738 83.5572C42.1168 83.5024 42.0674 83.44 42.0269 83.3719C42.0052 83.3344 41.9904 83.2933 41.9831 83.2505C41.9788 83.2109 41.9788 83.171 41.9831 83.1314C41.9656 82.9715 41.9937 82.81 42.0642 82.6658C42.1077 82.5976 42.1653 82.5397 42.2329 82.4958C42.2604 82.4779 42.2855 82.4564 42.3074 82.4319C42.3074 82.4319 42.3074 82.4319 42.325 82.412C42.3356 82.4039 42.3489 82.3999 42.3622 82.401C42.3746 82.3996 42.3871 82.3996 42.3995 82.401L42.4587 82.4164C42.7458 82.5047 43.011 82.6216 43.2761 82.732C43.8021 82.9526 44.304 83.1733 44.7818 83.394C45.7395 83.8353 46.5942 84.2281 47.3131 84.5679C47.4928 84.6495 47.6616 84.7356 47.8237 84.8062L48.2927 84.9916L49.0445 85.2917L49.5179 85.4837L49.6384 85.5366C49.6669 85.5366 49.68 85.5543 49.68 85.5565C49.68 85.5587 49.6647 85.5565 49.6362 85.5432L49.5113 85.5013L49.0313 85.3226L48.273 85.0512L47.7996 84.8724C47.6331 84.804 47.4643 84.7202 47.2846 84.6385L44.7467 83.4844C44.2668 83.2638 43.7649 83.0431 43.2389 82.8224C42.9759 82.7143 42.7085 82.6018 42.4324 82.5113L42.3842 82.5003H42.3666C42.3666 82.5003 42.3666 82.487 42.3666 82.4782C42.428 82.5179 42.382 82.4914 42.3951 82.5003C42.3689 82.5328 42.3379 82.5611 42.3031 82.5841C42.2446 82.6202 42.1951 82.6692 42.1584 82.7275C42.0967 82.8572 42.0724 83.0017 42.0883 83.1446C42.0869 83.2136 42.1027 83.2819 42.1343 83.3432C42.171 83.4045 42.2151 83.4608 42.2658 83.5109C42.3695 83.6137 42.4817 83.7075 42.6011 83.7912C42.8378 83.9633 43.0855 84.1133 43.3309 84.2568C43.824 84.5436 44.3128 84.7952 44.7752 85.0445C44.8914 85.1085 44.9944 85.1703 45.1149 85.2387C45.1715 85.2712 45.2263 85.3065 45.2793 85.3446C45.3112 85.3662 45.3369 85.3959 45.3538 85.4307C45.3649 85.4628 45.3722 85.4962 45.3757 85.53C45.3965 85.7704 45.4324 86.0092 45.4831 86.245C45.5833 86.6654 45.8008 87.0482 46.1099 87.3483C46.577 87.7643 47.1174 88.0884 47.7032 88.3038C47.8627 88.3604 48.026 88.4054 48.1919 88.4384C48.2489 88.4516 48.2927 88.456 48.3234 88.4604L48.3475 88.4538Z" fill="#EB996E"/>
<path d="M42.4743 88.7053C42.545 88.7139 42.6139 88.7341 42.6782 88.7649C42.8582 88.8377 43.0272 88.9358 43.18 89.0562C43.2866 89.1401 43.3836 89.2355 43.4693 89.3408C43.5232 89.4002 43.5647 89.4699 43.5915 89.5457C43.6182 89.6215 43.6296 89.7019 43.6249 89.7822C43.6074 89.8735 43.5649 89.958 43.5021 90.0262C43.4394 90.0945 43.3589 90.1437 43.2699 90.1683C43.0868 90.2188 42.8928 90.2126 42.7132 90.1507C42.1036 89.969 41.5122 89.7304 40.9468 89.4379C40.7765 89.3485 40.6111 89.2498 40.4515 89.1422C40.3901 89.1068 40.3334 89.0638 40.2827 89.0143C40.3479 89.0402 40.4103 89.0727 40.469 89.1113C40.5873 89.1798 40.7583 89.2746 40.9753 89.3806C41.5416 89.653 42.1277 89.8817 42.7286 90.0646C42.8924 90.1217 43.0693 90.1286 43.237 90.0845C43.3108 90.0649 43.3778 90.0254 43.4307 89.9701C43.4837 89.9149 43.5205 89.846 43.5373 89.7711C43.5421 89.7002 43.533 89.629 43.5104 89.5616C43.4878 89.4942 43.4523 89.4319 43.4058 89.3784C43.3254 89.2755 43.2342 89.1815 43.134 89.0981C42.9314 88.9397 42.7098 88.8077 42.4743 88.7053Z" fill="#EB996E"/>
<g opacity="0.3">
<path opacity="0.3" d="M67.4671 88.3612C65.7445 82.5113 64.2257 74.9778 62.5031 69.1279C61.8719 74.5276 62.6609 81.6573 63.6471 87.0019C63.7633 87.6286 63.8159 88.242 64.3046 88.6547L67.4671 88.3612Z" fill="black"/>
</g>
<path d="M64.6474 84.345C64.6233 84.345 64.551 83.9633 64.3165 83.3785C64.1786 83.0377 64.0137 82.7085 63.8233 82.3943C63.5857 82.013 63.3143 81.654 63.0124 81.3219C62.7061 80.9933 62.3701 80.6941 62.0087 80.4282C61.7124 80.2123 61.3986 80.0219 61.0707 79.8589C60.5096 79.5808 60.1327 79.4793 60.1392 79.4573C60.2305 79.468 60.3203 79.4895 60.4066 79.5213C60.5105 79.5477 60.6123 79.5816 60.7113 79.6228C60.8455 79.6701 60.9772 79.7246 61.1057 79.7861C61.4432 79.9417 61.766 80.1278 62.0701 80.3421C62.4409 80.608 62.7851 80.9095 63.0979 81.2425C63.4043 81.583 63.6773 81.9525 63.9132 82.3458C64.1025 82.667 64.2631 83.0045 64.3932 83.3542C64.4523 83.5021 64.4874 83.6411 64.5247 83.7625C64.5584 83.8656 64.5848 83.9711 64.6036 84.078C64.6266 84.1654 64.6413 84.2548 64.6474 84.345Z" fill="#263238"/>
<path d="M67.9299 54.7118C67.9299 54.7118 62.4224 67.1022 62.4224 69.3839C62.4224 71.6656 66.5492 87.4631 66.5492 87.4631C66.5097 88.092 66.3497 91.2409 66.3497 91.2409L89.491 91.3225L89.8439 86.3134L88.038 81.5404L89.8417 68.0467C89.8417 68.0467 91.0558 60.213 91.1566 58.0218C91.2925 55.2811 82.0702 52.1036 82.3222 51.724L80.7311 49.5703L71.6118 57.0266L69.8081 51.7836L67.6472 53.838L67.9299 54.7118Z" fill="url(#paint4_linear_1708_6050)"/>
<path d="M83.085 58.0086C80.58 62.2741 75.9973 70.0459 75.9973 70.0459L67.7832 79.4772C67.7832 79.4772 67.2462 84.2678 68.3201 85.7375C69.394 87.2071 71.2371 88.2111 71.2371 88.2111C71.2371 88.2111 73.4047 88.2111 76.1595 85.8919C78.9144 83.5727 86.5127 73.9892 86.5127 73.9892L89.1229 70.8182C89.1229 70.8182 92.235 63.1214 91.6542 59.2046C91.4351 57.693 90.7907 57.0663 89.9404 56.3734C87.7992 54.6368 84.4855 55.6232 83.085 58.0086Z" fill="url(#paint5_linear_1708_6050)"/>
<path d="M90.0894 68.1482C90.0783 68.1785 90.0651 68.208 90.0499 68.2365C90.0214 68.2982 89.9798 68.3799 89.9294 68.488C89.8198 68.7087 89.6532 69.0287 89.4253 69.4347C88.9716 70.2489 88.2659 71.3986 87.3455 72.7866C86.883 73.4795 86.368 74.232 85.8004 75.0308C85.2327 75.8296 84.5884 76.6527 84.058 77.6148C83.5277 78.5769 83.0455 79.6272 82.4647 80.6776C81.8681 81.7659 81.1686 82.7938 80.3761 83.7471C79.5834 84.7043 78.6508 85.5346 77.6103 86.2097C76.6352 86.8361 75.546 87.2607 74.4062 87.4587C73.3745 87.643 72.3153 87.5978 71.3028 87.3263C70.8446 87.2016 70.4031 87.0216 69.9879 86.7901C69.6014 86.5848 69.2384 86.3376 68.9052 86.053C68.5997 85.7982 68.3259 85.507 68.0899 85.1858C67.8774 84.9006 67.6966 84.5928 67.5508 84.2678C67.3255 83.7452 67.1778 83.192 67.1125 82.6261C67.0748 82.2692 67.0624 81.9101 67.0752 81.5514C67.0752 81.4323 67.0884 81.3308 67.0927 81.2712C67.0905 81.2396 67.0905 81.2079 67.0927 81.1763C67.0951 81.2079 67.0951 81.2396 67.0927 81.2712C67.0927 81.3396 67.0927 81.4323 67.0927 81.5514C67.0885 81.9083 67.1076 82.2651 67.1497 82.6195C67.2233 83.1794 67.3769 83.7256 67.6056 84.2414C67.7529 84.5599 67.9337 84.8618 68.1447 85.1417C68.3796 85.4571 68.6519 85.7424 68.9556 85.9912C69.2857 86.2703 69.6451 86.5122 70.0273 86.7128C70.4368 86.9385 70.8717 87.114 71.3226 87.2358C72.3246 87.4993 73.3716 87.54 74.3908 87.355C75.5154 87.1563 76.5896 86.7348 77.5511 86.1148C78.5823 85.4446 79.5067 84.621 80.2928 83.672C81.0807 82.7253 81.7758 81.704 82.3683 80.6224C82.9491 79.5787 83.4181 78.5195 83.9682 77.5618C84.5054 76.6675 85.0907 75.8034 85.7215 74.9734C86.2913 74.179 86.8173 73.4287 87.2753 72.7403C88.2046 71.3611 88.919 70.218 89.3837 69.4126C89.6182 69.0088 89.7913 68.6932 89.9053 68.477L90.0389 68.2298C90.0526 68.2008 90.0695 68.1734 90.0894 68.1482Z" fill="#263238"/>
<path d="M67.3635 79.0557C67.3635 79.0711 67.2473 79.1439 67.0961 79.3138C66.8948 79.529 66.7708 79.8057 66.7437 80.1C66.7167 80.3944 66.7883 80.6893 66.9471 80.9379C67.0633 81.1321 67.1663 81.227 67.1663 81.2403C67.1663 81.2535 67.0282 81.1785 66.8835 80.9843C66.6946 80.7269 66.6064 80.4084 66.636 80.0896C66.6655 79.7709 66.8106 79.4743 67.0435 79.2565C67.1284 79.1595 67.2397 79.0897 67.3635 79.0557Z" fill="#263238"/>
<path d="M68.8818 81.5582C68.9259 81.564 68.9692 81.5744 69.0111 81.5891L69.1646 81.631L69.3837 81.6707C69.839 81.7311 70.302 81.6874 70.7381 81.5427C71.3871 81.324 71.984 80.9723 72.4914 80.51C73.0945 79.9272 73.6412 79.2881 74.1242 78.6012C74.6149 77.9088 75.1801 77.2731 75.8095 76.7057C76.1076 76.4542 76.3991 76.2313 76.6423 75.9908C76.874 75.7767 77.0604 75.5178 77.1903 75.2295C77.2773 75.0188 77.3114 74.7898 77.2897 74.5628C77.2679 74.3357 77.1908 74.1175 77.0653 73.9275C76.9595 73.7969 76.8232 73.6945 76.6686 73.6296C76.7121 73.6379 76.7547 73.6505 76.7958 73.6672C76.9139 73.7204 77.0181 73.8005 77.1004 73.9011C77.2393 74.0953 77.3273 74.3217 77.3564 74.5593C77.3855 74.7968 77.3548 75.0379 77.267 75.2604C77.1364 75.5615 76.9471 75.8331 76.7103 76.0592C76.4626 76.3063 76.169 76.5358 75.8775 76.7874C75.2584 77.3539 74.7015 77.9857 74.2162 78.6719C73.7274 79.3647 73.1725 80.0076 72.5594 80.5916C72.0413 81.0566 71.432 81.4069 70.771 81.62C70.3225 81.7613 69.8471 81.7939 69.3837 81.7148L69.1646 81.6641C69.1032 81.6464 69.0528 81.6244 69.0133 81.6111C68.9676 81.5988 68.9234 81.581 68.8818 81.5582Z" fill="#263238"/>
<path d="M84.2007 56.698C84.173 56.7442 84.1423 56.7884 84.1087 56.8304C84.0364 56.9231 83.9443 57.0511 83.8282 57.1989C83.5783 57.5123 83.2342 57.9801 82.8134 58.5626C81.7409 60.0933 80.7652 61.6904 79.892 63.3445C78.8576 65.2775 78.0028 67.0715 77.3475 68.3514C77.0232 68.9935 76.7558 69.5099 76.5608 69.8629L76.3482 70.2667C76.3243 70.3151 76.2956 70.3609 76.2627 70.4036C76.2792 70.3524 76.3005 70.3029 76.3263 70.2557L76.5323 69.8386L77.284 68.3138C77.9196 67.023 78.7655 65.2245 79.8 63.2871C80.6741 61.6276 81.6627 60.032 82.7586 58.5119C83.197 57.9359 83.5411 57.4725 83.8019 57.168L84.0999 56.8127C84.1293 56.7709 84.1631 56.7324 84.2007 56.698Z" fill="#263238"/>
<g opacity="0.3">
<path opacity="0.3" d="M67.1025 81.1763C68.1698 81.7589 69.3445 81.6971 70.5368 81.4632C71.7405 81.2209 72.8243 80.5678 73.605 79.614C73.4247 80.6762 72.9305 81.659 72.1871 82.4341C71.4288 83.1822 70.3286 83.6147 69.2854 83.4227C68.2422 83.2307 67.1858 82.2422 67.0938 81.1763" fill="black"/>
</g>
<g opacity="0.3">
<path opacity="0.3" d="M77.2046 74.808C77.882 75.8596 78.1184 77.1386 77.862 78.3652C78.7672 76.9706 78.9798 75.2052 78.7387 73.5568C78.4976 71.9085 77.8292 70.3528 77.0884 68.8633C77.0884 68.8633 76.2731 70.2535 76.2644 70.4079C76.2249 71.2112 76.5186 72.7205 76.672 73.5083C76.8767 73.7061 77.0293 73.9521 77.1161 74.224C77.2029 74.4959 77.2213 74.7854 77.1695 75.0662" fill="black"/>
</g>
<g opacity="0.3">
<path opacity="0.3" d="M70.7222 86.949C72.9006 88.6592 76.1333 88.7386 78.5155 87.3352C80.8102 85.9825 82.2238 83.5463 83.5343 81.2183C85.566 77.6126 88.0425 73.153 89.4933 69.2737C89.4933 69.2737 85.4279 74.8587 84.2028 77.2662C83.386 78.8937 82.459 80.4627 81.4282 81.962C80.2618 83.6514 78.6848 85.0116 76.8478 85.9129C75.0108 86.8141 72.975 87.2263 70.9348 87.1101" fill="black"/>
</g>
<path d="M66.3503 91.23C66.3468 91.2073 66.3468 91.1842 66.3503 91.1616C66.3503 91.1086 66.3503 91.0424 66.3503 90.9607C66.3503 90.7732 66.3656 90.5194 66.3788 90.195C66.4095 89.533 66.4511 88.5842 66.5037 87.4522V87.4786C66.1114 86.1546 65.6512 84.5482 65.1734 82.8138C64.5422 80.5144 64.0097 78.4225 63.6502 76.9021C63.4727 76.143 63.3325 75.5252 63.2448 75.0971C63.2031 74.8919 63.1703 74.7264 63.1462 74.605C63.1332 74.5475 63.1237 74.4893 63.1177 74.4307C63.1398 74.4848 63.1567 74.541 63.1681 74.5984L63.2886 75.0883C63.396 75.5296 63.545 76.1342 63.7269 76.8823C64.1061 78.3982 64.6518 80.4857 65.283 82.7829C65.7586 84.5173 66.2122 86.1238 66.598 87.45V87.4654C66.53 88.5974 66.473 89.5397 66.4314 90.2105C66.4095 90.5305 66.3919 90.7864 66.3788 90.974C66.3788 91.0534 66.3656 91.1196 66.3613 91.1726C66.36 91.1921 66.3563 91.2114 66.3503 91.23Z" fill="#263238"/>
<path d="M89.499 56.2455C89.499 56.2632 89.2623 56.1793 88.8832 56.0844C88.3887 55.9589 87.8827 55.885 87.3731 55.8638C86.8634 55.8497 86.3536 55.8896 85.8521 55.9829C85.4664 56.0558 85.2319 56.122 85.2275 56.1043C85.2762 56.0728 85.3295 56.049 85.3853 56.0337C85.5328 55.9825 85.6827 55.9391 85.8346 55.9035C86.3372 55.7854 86.8529 55.7335 87.3687 55.749C87.8885 55.7647 88.4042 55.8478 88.9029 55.9962C89.0521 56.0399 89.1985 56.0929 89.3412 56.1551C89.4508 56.2102 89.499 56.2367 89.499 56.2455Z" fill="#263238"/>
<path d="M82.1722 52.1721C82.1563 52.2123 82.1365 52.2507 82.113 52.2869L81.9268 52.6024C81.7624 52.876 81.5191 53.2644 81.2101 53.7477C80.5899 54.7032 79.7023 56.0073 78.6525 57.3931C77.8087 58.5118 76.9912 59.5159 76.3228 60.3014L76.2746 60.3566L76.2461 60.2904C75.9261 59.5887 75.6631 59.0061 75.4724 58.5847C75.387 58.3905 75.319 58.2316 75.2642 58.1102C75.2373 58.0559 75.216 57.999 75.2007 57.9403C75.2359 57.9901 75.266 58.0433 75.2905 58.0992C75.3497 58.2184 75.4242 58.3728 75.5207 58.5626C75.7201 58.9797 75.9962 59.5556 76.3272 60.2529L76.2527 60.2419C76.9101 59.4475 77.7188 58.4412 78.5626 57.3247C79.6102 55.9389 80.5044 54.6458 81.1422 53.7013L81.8895 52.5781L82.0933 52.2736C82.115 52.2364 82.1416 52.2023 82.1722 52.1721Z" fill="#263238"/>
<path d="M87.5004 87.7588C87.4675 87.7588 87.5683 86.6091 87.7195 85.1991C87.8708 83.789 88.0264 82.6504 88.057 82.6548C88.0877 82.6592 87.9869 83.8023 87.8379 85.2123C87.6889 86.6224 87.5267 87.761 87.5004 87.7588Z" fill="#263238"/>
<path d="M71.6372 87.4565C71.7617 88.0922 71.8488 88.7347 71.898 89.3808C71.9867 90.0221 72.0358 90.6685 72.0448 91.316C71.9216 90.6801 71.8345 90.0377 71.784 89.3918C71.698 88.7501 71.6489 88.1039 71.6372 87.4565Z" fill="#263238"/>
<path d="M83.3417 62.2542C83.331 62.2104 83.3101 62.1698 83.2807 62.1358C83.2513 62.1018 83.2143 62.0754 83.1726 62.0587C83.131 62.0421 83.086 62.0357 83.0415 62.0402C82.9969 62.0446 82.9541 62.0598 82.9165 62.0843L82.9012 62.0976C82.8668 62.1284 82.841 62.1678 82.8263 62.2117C82.8117 62.2556 82.8086 62.3027 82.8175 62.3482C82.8263 62.3937 82.8468 62.4361 82.8769 62.4712C82.9069 62.5063 82.9456 62.5329 82.989 62.5484C83.0324 62.5639 83.079 62.5678 83.1243 62.5596C83.1697 62.5515 83.2121 62.5316 83.2475 62.5019C83.2829 62.4722 83.3099 62.4337 83.3261 62.3903C83.3422 62.3469 83.3468 62.3 83.3395 62.2542H83.3417Z" fill="white"/>
<path d="M81.0558 56.6448C81.0452 56.601 81.0243 56.5604 80.9949 56.5264C80.9655 56.4924 80.9284 56.466 80.8868 56.4494C80.8451 56.4327 80.8002 56.4264 80.7556 56.4308C80.711 56.4353 80.6682 56.4504 80.6306 56.4749L80.6175 56.4882C80.5831 56.519 80.5573 56.5584 80.5426 56.6023C80.528 56.6463 80.5249 56.6933 80.5338 56.7388C80.5426 56.7843 80.5631 56.8267 80.5932 56.8618C80.6232 56.8969 80.6619 56.9235 80.7053 56.939C80.7487 56.9545 80.7953 56.9584 80.8407 56.9502C80.886 56.9421 80.9284 56.9222 80.9638 56.8925C80.9992 56.8628 81.0263 56.8244 81.0424 56.7809C81.0585 56.7375 81.0631 56.6906 81.0558 56.6448Z" fill="white"/>
<path d="M75.8124 61.1619C75.8018 61.1181 75.7809 61.0775 75.7515 61.0435C75.7221 61.0095 75.685 60.9831 75.6434 60.9665C75.6018 60.9498 75.5568 60.9435 75.5123 60.9479C75.4677 60.9524 75.4248 60.9675 75.3873 60.992H75.3741C75.3398 61.0228 75.3139 61.062 75.2992 61.1059C75.2844 61.1497 75.2812 61.1967 75.29 61.2421C75.2987 61.2876 75.319 61.33 75.3489 61.3652C75.3788 61.4003 75.4173 61.4271 75.4605 61.4428C75.5038 61.4584 75.5504 61.4625 75.5957 61.4546C75.641 61.4467 75.6834 61.4271 75.7189 61.3976C75.7544 61.3682 75.7817 61.33 75.7981 61.2867C75.8145 61.2435 75.8194 61.1967 75.8124 61.1509V61.1619Z" fill="white"/>
<path d="M70.1417 58.8935C70.1314 58.8497 70.1108 58.8091 70.0816 58.7751C70.0524 58.7411 70.0155 58.7146 69.9741 58.6979C69.9326 58.6813 69.8877 58.6749 69.8433 58.6794C69.7989 58.6838 69.7561 58.699 69.7187 58.7236L69.7034 58.7368C69.669 58.7677 69.6433 58.807 69.6286 58.851C69.6139 58.8949 69.6108 58.9419 69.6197 58.9874C69.6286 59.0329 69.649 59.0753 69.6791 59.1104C69.7092 59.1456 69.7478 59.1722 69.7912 59.1877C69.8346 59.2032 69.8813 59.2071 69.9266 59.1989C69.9719 59.1907 70.0144 59.1708 70.0497 59.1412C70.0851 59.1115 70.1122 59.073 70.1283 59.0296C70.1444 58.9862 70.1491 58.9393 70.1417 58.8935Z" fill="white"/>
<path d="M69.1403 56.6583C69.1297 56.6145 69.1088 56.5739 69.0794 56.5399C69.05 56.5059 69.0129 56.4794 68.9713 56.4628C68.9296 56.4462 68.8847 56.4398 68.8401 56.4442C68.7955 56.4487 68.7527 56.4638 68.7151 56.4884L68.6998 56.5016C68.6644 56.5324 68.6377 56.572 68.6223 56.6165C68.6069 56.661 68.6034 56.7087 68.612 56.755C68.6207 56.8012 68.6413 56.8444 68.6717 56.8802C68.7021 56.916 68.7413 56.9431 68.7854 56.9588C68.8294 56.9746 68.8768 56.9784 68.9228 56.97C68.9688 56.9615 69.0118 56.941 69.0475 56.9106C69.0832 56.8802 69.1104 56.8409 69.1263 56.7966C69.1422 56.7523 69.1462 56.7046 69.1381 56.6583H69.1403Z" fill="white"/>
<path d="M69.5768 54.0762C69.5662 54.0324 69.5453 53.9918 69.5159 53.9578C69.4865 53.9238 69.4494 53.8974 69.4078 53.8808C69.3662 53.8641 69.3212 53.8578 69.2767 53.8622C69.2321 53.8667 69.1892 53.8818 69.1517 53.9063L69.1363 53.9174C69.102 53.9481 69.0761 53.9874 69.0614 54.0312C69.0466 54.0751 69.0435 54.122 69.0522 54.1675C69.0609 54.2129 69.0812 54.2553 69.1111 54.2905C69.141 54.3257 69.1795 54.3524 69.2227 54.3681C69.266 54.3838 69.3126 54.3879 69.3579 54.38C69.4032 54.3721 69.4457 54.3524 69.4811 54.323C69.5166 54.2935 69.5439 54.2553 69.5603 54.2121C69.5767 54.1688 69.5816 54.122 69.5746 54.0762H69.5768Z" fill="white"/>
<path d="M66.4362 57.6292C66.4256 57.5854 66.4047 57.5448 66.3753 57.5108C66.3459 57.4768 66.3088 57.4504 66.2672 57.4337C66.2256 57.4171 66.1806 57.4107 66.136 57.4152C66.0915 57.4196 66.0486 57.4348 66.011 57.4593L65.9957 57.4703C65.9613 57.5011 65.9355 57.5403 65.9208 57.5842C65.906 57.628 65.9028 57.675 65.9115 57.7205C65.9203 57.7659 65.9406 57.8083 65.9705 57.8435C66.0004 57.8787 66.0388 57.9054 66.0821 57.9211C66.1254 57.9368 66.1719 57.9409 66.2172 57.933C66.2625 57.925 66.305 57.9054 66.3405 57.876C66.376 57.8465 66.4033 57.8083 66.4197 57.765C66.4361 57.7218 66.441 57.675 66.434 57.6292H66.4362Z" fill="white"/>
<path d="M73.7184 58.653C73.7081 58.6093 73.6874 58.5687 73.6583 58.5346C73.6291 58.5006 73.5922 58.4741 73.5507 58.4575C73.5092 58.4408 73.4644 58.4344 73.42 58.4389C73.3755 58.4433 73.3328 58.4585 73.2954 58.4831L73.2801 58.4963C73.2457 58.5272 73.2199 58.5665 73.2052 58.6105C73.1906 58.6544 73.1875 58.7015 73.1964 58.747C73.2052 58.7925 73.2257 58.8348 73.2558 58.87C73.2858 58.9051 73.3245 58.9317 73.3679 58.9472C73.4113 58.9627 73.4579 58.9666 73.5033 58.9584C73.5486 58.9503 73.591 58.9304 73.6264 58.9007C73.6618 58.871 73.6888 58.8325 73.705 58.7891C73.7211 58.7457 73.7257 58.6988 73.7184 58.653Z" fill="white"/>
<path d="M67.551 63.2581C67.5403 63.2143 67.5194 63.1737 67.49 63.1397C67.4606 63.1057 67.4236 63.0793 67.3819 63.0626C67.3403 63.046 67.2953 63.0397 67.2508 63.0441C67.2062 63.0486 67.1634 63.0637 67.1258 63.0882H67.1104C67.0761 63.119 67.0503 63.1582 67.0355 63.2021C67.0207 63.2459 67.0176 63.2929 67.0263 63.3383C67.035 63.3838 67.0553 63.4262 67.0852 63.4614C67.1151 63.4965 67.1536 63.5233 67.1969 63.539C67.2401 63.5546 67.2867 63.5587 67.332 63.5508C67.3773 63.5429 67.4198 63.5233 67.4553 63.4938C67.4908 63.4644 67.518 63.4262 67.5344 63.3829C67.5508 63.3397 67.5558 63.2929 67.5488 63.2471L67.551 63.2581Z" fill="white"/>
<path d="M61.914 76.5025C61.9034 76.4587 61.8825 76.4181 61.8531 76.3841C61.8237 76.3501 61.7866 76.3237 61.745 76.307C61.7034 76.2904 61.6584 76.284 61.6138 76.2885C61.5693 76.2929 61.5264 76.3081 61.4888 76.3326L61.4757 76.3436C61.4413 76.3744 61.4155 76.4136 61.4007 76.4575C61.386 76.5013 61.3828 76.5483 61.3915 76.5937C61.4002 76.6392 61.4205 76.6816 61.4504 76.7168C61.4804 76.7519 61.5188 76.7787 61.5621 76.7944C61.6053 76.81 61.6519 76.8141 61.6972 76.8062C61.7425 76.7983 61.785 76.7787 61.8205 76.7492C61.856 76.7198 61.8833 76.6816 61.8997 76.6383C61.9161 76.5951 61.921 76.5483 61.914 76.5025Z" fill="white"/>
<path d="M63.9271 68.8631C63.9165 68.8193 63.8956 68.7787 63.8662 68.7447C63.8368 68.7107 63.7997 68.6843 63.7581 68.6676C63.7165 68.651 63.6715 68.6446 63.6269 68.6491C63.5824 68.6535 63.5395 68.6687 63.5019 68.6932L63.4866 68.7064C63.4522 68.7373 63.4265 68.7766 63.4118 68.8206C63.3971 68.8645 63.394 68.9116 63.4029 68.9571C63.4118 69.0026 63.4322 69.045 63.4623 69.0801C63.4924 69.1152 63.531 69.1418 63.5744 69.1573C63.6178 69.1728 63.6645 69.1767 63.7098 69.1685C63.7551 69.1604 63.7976 69.1405 63.8329 69.1108C63.8683 69.0811 63.8954 69.0426 63.9115 68.9992C63.9276 68.9558 63.9323 68.9089 63.9249 68.8631H63.9271Z" fill="white"/>
<path d="M78.7599 55.451C78.7493 55.4072 78.7284 55.3666 78.699 55.3326C78.6696 55.2986 78.6325 55.2722 78.5909 55.2555C78.5493 55.2389 78.5043 55.2325 78.4598 55.237C78.4152 55.2414 78.3723 55.2565 78.3348 55.2811L78.3194 55.2921C78.2851 55.3229 78.2592 55.3621 78.2445 55.406C78.2297 55.4498 78.2266 55.4968 78.2353 55.5422C78.244 55.5877 78.2643 55.6301 78.2942 55.6653C78.3241 55.7004 78.3626 55.7272 78.4058 55.7429C78.4491 55.7585 78.4957 55.7626 78.541 55.7547C78.5863 55.7468 78.6288 55.7272 78.6643 55.6977C78.6997 55.6683 78.727 55.6301 78.7434 55.5868C78.7598 55.5436 78.7648 55.4968 78.7578 55.451H78.7599Z" fill="white"/>
<path d="M85.8239 70.6595C85.8132 70.6157 85.7924 70.5751 85.763 70.5411C85.7335 70.5071 85.6965 70.4806 85.6549 70.464C85.6132 70.4474 85.5683 70.441 85.5237 70.4455C85.4791 70.4499 85.4363 70.465 85.3987 70.4896L85.3834 70.5028C85.348 70.5336 85.3213 70.5733 85.3059 70.6177C85.2905 70.6622 85.287 70.7099 85.2956 70.7562C85.3043 70.8025 85.3249 70.8456 85.3553 70.8814C85.3857 70.9172 85.4249 70.9443 85.4689 70.96C85.513 70.9758 85.5604 70.9796 85.6064 70.9712C85.6524 70.9627 85.6954 70.9423 85.7311 70.9118C85.7668 70.8814 85.794 70.8421 85.8098 70.7978C85.8257 70.7536 85.8298 70.7059 85.8217 70.6595H85.8239Z" fill="white"/>
<path d="M88.5795 57.5717C88.5692 57.528 88.5486 57.4873 88.5194 57.4533C88.4902 57.4193 88.4533 57.3928 88.4119 57.3762C88.3704 57.3595 88.3255 57.3531 88.2811 57.3576C88.2367 57.362 88.1939 57.3772 88.1565 57.4018L88.1412 57.4128C88.1068 57.4436 88.081 57.4828 88.0663 57.5267C88.0515 57.5705 88.0483 57.6175 88.0571 57.6629C88.0658 57.7084 88.0861 57.7508 88.116 57.786C88.1459 57.8211 88.1843 57.8479 88.2276 57.8636C88.2709 57.8792 88.3174 57.8833 88.3628 57.8754C88.4081 57.8675 88.4505 57.8479 88.486 57.8184C88.5215 57.789 88.5488 57.7508 88.5652 57.7075C88.5816 57.6643 88.5865 57.6175 88.5795 57.5717Z" fill="white"/>
<path d="M87.4987 66.1424C87.4881 66.0986 87.4672 66.058 87.4378 66.024C87.4084 65.99 87.3713 65.9636 87.3297 65.9469C87.288 65.9303 87.2431 65.9239 87.1985 65.9284C87.1539 65.9328 87.1111 65.948 87.0735 65.9725L87.0582 65.9857C87.0228 66.0166 86.9961 66.0562 86.9807 66.1006C86.9653 66.1451 86.9618 66.1928 86.9704 66.2391C86.9791 66.2854 86.9997 66.3285 87.0301 66.3643C87.0605 66.4001 87.0997 66.4272 87.1437 66.4429C87.1878 66.4587 87.2352 66.4625 87.2812 66.4541C87.3272 66.4456 87.3702 66.4252 87.4059 66.3948C87.4416 66.3643 87.4688 66.325 87.4847 66.2807C87.5006 66.2365 87.5046 66.1888 87.4965 66.1424H87.4987Z" fill="white"/>
<path d="M81.3173 72.3321C81.3066 72.2883 81.2857 72.2477 81.2563 72.2137C81.2269 72.1797 81.1899 72.1533 81.1482 72.1366C81.1066 72.12 81.0616 72.1136 81.0171 72.1181C80.9725 72.1225 80.9297 72.1376 80.8921 72.1622L80.8767 72.1754C80.8424 72.2063 80.8166 72.2456 80.8019 72.2896C80.7872 72.3335 80.7842 72.3806 80.793 72.4261C80.8019 72.4716 80.8224 72.5139 80.8524 72.5491C80.8825 72.5842 80.9212 72.6108 80.9646 72.6263C81.0079 72.6418 81.0546 72.6457 81.0999 72.6375C81.1453 72.6294 81.1877 72.6095 81.2231 72.5798C81.2584 72.5501 81.2855 72.5116 81.3017 72.4682C81.3178 72.4248 81.3224 72.3779 81.3151 72.3321H81.3173Z" fill="white"/>
<path d="M81.5783 67.1773C81.5676 67.1335 81.5468 67.0929 81.5174 67.0589C81.4879 67.0249 81.4509 66.9985 81.4093 66.9818C81.3676 66.9652 81.3227 66.9588 81.2781 66.9633C81.2335 66.9677 81.1907 66.9829 81.1531 67.0074L81.1378 67.0206C81.1024 67.0515 81.0757 67.0911 81.0603 67.1355C81.0449 67.18 81.0414 67.2277 81.05 67.274C81.0587 67.3203 81.0793 67.3635 81.1097 67.3992C81.1401 67.435 81.1793 67.4621 81.2233 67.4779C81.2674 67.4936 81.3148 67.4974 81.3608 67.489C81.4068 67.4805 81.4498 67.4601 81.4855 67.4297C81.5212 67.3993 81.5484 67.3599 81.5643 67.3157C81.5801 67.2714 81.5842 67.2237 81.5761 67.1773H81.5783Z" fill="white"/>
<path d="M85.3073 57.6159C85.2969 57.5722 85.2763 57.5315 85.2471 57.4975C85.218 57.4635 85.1811 57.437 85.1396 57.4203C85.0981 57.4037 85.0533 57.3973 85.0088 57.4018C84.9644 57.4062 84.9217 57.4214 84.8843 57.446L84.8689 57.4592C84.8346 57.4901 84.8088 57.5294 84.7941 57.5734C84.7794 57.6173 84.7764 57.6644 84.7852 57.7099C84.7941 57.7554 84.8146 57.7977 84.8446 57.8329C84.8747 57.868 84.9134 57.8946 84.9567 57.9101C85.0001 57.9256 85.0468 57.9295 85.0921 57.9213C85.1375 57.9132 85.1799 57.8933 85.2153 57.8636C85.2506 57.8339 85.2777 57.7954 85.2938 57.752C85.31 57.7086 85.3146 57.6617 85.3073 57.6159Z" fill="white"/>
<path d="M80.2949 52.6244C80.2845 52.5807 80.2639 52.5401 80.2347 52.5061C80.2056 52.472 80.1687 52.4455 80.1272 52.4289C80.0857 52.4122 80.0409 52.4059 79.9964 52.4103C79.952 52.4148 79.9093 52.4299 79.8719 52.4545L79.8565 52.4656C79.8222 52.4963 79.7964 52.5356 79.7816 52.5794C79.7668 52.6233 79.7637 52.6702 79.7724 52.7157C79.7811 52.7611 79.8014 52.8035 79.8313 52.8387C79.8612 52.8739 79.8997 52.9006 79.9429 52.9163C79.9862 52.932 80.0328 52.9361 80.0781 52.9282C80.1234 52.9202 80.1659 52.9006 80.2014 52.8712C80.2369 52.8417 80.2641 52.8035 80.2805 52.7603C80.2969 52.717 80.3019 52.6702 80.2949 52.6244Z" fill="white"/>
<path d="M80.103 60.6721C80.0928 60.628 80.0721 60.587 80.0428 60.5527C80.0135 60.5184 79.9763 60.4918 79.9345 60.4751C79.8928 60.4584 79.8476 60.4521 79.8029 60.4568C79.7581 60.4616 79.7152 60.4771 79.6778 60.5022L79.6646 60.5132C79.6303 60.544 79.6045 60.5832 79.5897 60.6271C79.5749 60.6709 79.5718 60.7179 79.5805 60.7633C79.5892 60.8088 79.6095 60.8512 79.6394 60.8864C79.6693 60.9215 79.7078 60.9483 79.751 60.9639C79.7943 60.9796 79.8409 60.9837 79.8862 60.9758C79.9315 60.9679 79.974 60.9483 80.0095 60.9188C80.045 60.8894 80.0722 60.8512 80.0886 60.8079C80.105 60.7646 80.11 60.7178 80.103 60.6721Z" fill="white"/>
<path d="M73.6948 85.2212C73.684 85.1788 73.6635 85.1395 73.6349 85.1065C73.6063 85.0735 73.5704 85.0477 73.5302 85.0312C73.4899 85.0147 73.4463 85.0079 73.403 85.0114C73.3597 85.0149 73.3177 85.0285 73.2806 85.0513L73.2652 85.0623C73.2309 85.0931 73.205 85.1323 73.1903 85.1762C73.1755 85.22 73.1724 85.267 73.1811 85.3124C73.1898 85.3579 73.2101 85.4003 73.24 85.4355C73.2699 85.4706 73.3084 85.4974 73.3516 85.5131C73.3949 85.5287 73.4415 85.5328 73.4868 85.5249C73.5321 85.517 73.5746 85.4974 73.61 85.4679C73.6455 85.4385 73.6728 85.4003 73.6892 85.357C73.7056 85.3138 73.7105 85.2669 73.7035 85.2212H73.6948Z" fill="white"/>
<path d="M66.3422 81.1829C66.3315 81.1391 66.3106 81.0985 66.2812 81.0645C66.2518 81.0305 66.2148 81.0041 66.1731 80.9875C66.1315 80.9708 66.0865 80.9645 66.042 80.9689C65.9974 80.9734 65.9546 80.9885 65.917 81.013L65.9016 81.0263C65.8673 81.0571 65.8415 81.0965 65.8268 81.1404C65.8121 81.1844 65.8091 81.2314 65.8179 81.2769C65.8268 81.3224 65.8473 81.3648 65.8774 81.3999C65.9074 81.435 65.9461 81.4616 65.9895 81.4771C66.0328 81.4926 66.0795 81.4965 66.1248 81.4883C66.1702 81.4802 66.2126 81.4603 66.248 81.4306C66.2833 81.4009 66.3104 81.3625 66.3266 81.319C66.3427 81.2756 66.3473 81.2287 66.34 81.1829H66.3422Z" fill="white"/>
<path d="M60.3954 83.1624C60.3848 83.1186 60.3639 83.078 60.3345 83.044C60.3051 83.01 60.268 82.9836 60.2264 82.9669C60.1848 82.9503 60.1398 82.944 60.0953 82.9484C60.0507 82.9528 60.0078 82.968 59.9703 82.9925L59.9571 83.0035C59.9228 83.0343 59.8969 83.0735 59.8822 83.1174C59.8674 83.1612 59.8643 83.2082 59.873 83.2537C59.8817 83.2991 59.902 83.3415 59.9319 83.3767C59.9618 83.4119 60.0003 83.4386 60.0435 83.4543C60.0868 83.47 60.1334 83.474 60.1787 83.4661C60.224 83.4582 60.2665 83.4386 60.3019 83.4091C60.3374 83.3797 60.3647 83.3415 60.3811 83.2982C60.3975 83.255 60.4024 83.2082 60.3954 83.1624Z" fill="white"/>
<path d="M59.7604 86.5716C59.7498 86.5278 59.7289 86.4872 59.6995 86.4532C59.6701 86.4192 59.633 86.3928 59.5914 86.3761C59.5498 86.3595 59.5048 86.3531 59.4603 86.3576C59.4157 86.362 59.3728 86.3771 59.3353 86.4017L59.3199 86.4127C59.2856 86.4435 59.2597 86.4827 59.245 86.5266C59.2302 86.5704 59.227 86.6174 59.2358 86.6628C59.2445 86.7083 59.2648 86.7507 59.2947 86.7859C59.3246 86.821 59.3631 86.8478 59.4063 86.8635C59.4496 86.8791 59.4962 86.8832 59.5415 86.8753C59.5868 86.8674 59.6293 86.8478 59.6647 86.8183C59.7002 86.7889 59.7275 86.7507 59.7439 86.7074C59.7603 86.6642 59.7652 86.6174 59.7582 86.5716H59.7604Z" fill="white"/>
<path d="M65.3346 87.7125C65.324 87.6687 65.3031 87.6281 65.2737 87.5941C65.2443 87.5601 65.2072 87.5336 65.1656 87.517C65.124 87.5004 65.079 87.494 65.0344 87.4984C64.9899 87.5029 64.947 87.518 64.9094 87.5426L64.8963 87.5558C64.8619 87.5867 64.8361 87.626 64.8214 87.67C64.8068 87.7139 64.8037 87.7609 64.8126 87.8064C64.8214 87.8519 64.8419 87.8943 64.872 87.9294C64.9021 87.9646 64.9407 87.9912 64.9841 88.0067C65.0275 88.0222 65.0741 88.0261 65.1195 88.0179C65.1648 88.0098 65.2072 87.9898 65.2426 87.9602C65.278 87.9305 65.3051 87.892 65.3212 87.8486C65.3373 87.8052 65.3419 87.7583 65.3346 87.7125Z" fill="white"/>
<path d="M63.4704 80.0775C63.4597 80.0337 63.4388 79.9931 63.4094 79.959C63.38 79.925 63.343 79.8986 63.3013 79.882C63.2597 79.8653 63.2148 79.859 63.1702 79.8634C63.1256 79.8679 63.0828 79.883 63.0452 79.9075L63.0299 79.9208C62.9945 79.9516 62.9678 79.9912 62.9524 80.0357C62.937 80.0801 62.9335 80.1279 62.9421 80.1742C62.9508 80.2204 62.9713 80.2636 63.0018 80.2994C63.0322 80.3351 63.0714 80.3622 63.1154 80.378C63.1595 80.3937 63.2069 80.3976 63.2529 80.3891C63.2989 80.3807 63.3419 80.3602 63.3776 80.3298C63.4133 80.2994 63.4404 80.2601 63.4563 80.2158C63.4722 80.1715 63.4763 80.1238 63.4682 80.0775H63.4704Z" fill="white"/>
<path d="M70.3076 82.0193C70.2974 81.9752 70.2767 81.9342 70.2474 81.8999C70.2181 81.8656 70.1809 81.839 70.1391 81.8223C70.0973 81.8056 70.0522 81.7993 70.0074 81.804C69.9627 81.8087 69.9198 81.8243 69.8824 81.8493L69.8692 81.8604C69.8349 81.8911 69.809 81.9304 69.7943 81.9742C69.7795 82.0181 69.7764 82.065 69.7851 82.1105C69.7938 82.156 69.8141 82.1984 69.844 82.2335C69.8739 82.2687 69.9124 82.2954 69.9556 82.3111C69.9989 82.3268 70.0455 82.3309 70.0908 82.323C70.1361 82.3151 70.1786 82.2954 70.2141 82.266C70.2495 82.2366 70.2768 82.1983 70.2932 82.1551C70.3096 82.1118 70.3145 82.065 70.3076 82.0193Z" fill="white"/>
<path d="M86.5649 80.0665C86.555 80.0225 86.5346 79.9815 86.5055 79.9472C86.4764 79.9128 86.4395 79.8861 86.3978 79.8694C86.3562 79.8527 86.3111 79.8464 86.2665 79.8511C86.2219 79.8559 86.1792 79.8715 86.1419 79.8966L86.1266 79.9076C86.0922 79.9384 86.0664 79.9776 86.0516 80.0215C86.0369 80.0653 86.0337 80.1123 86.0424 80.1577C86.0511 80.2032 86.0714 80.2456 86.1013 80.2808C86.1312 80.3159 86.1697 80.3427 86.213 80.3584C86.2562 80.374 86.3028 80.3781 86.3481 80.3702C86.3934 80.3623 86.4359 80.3427 86.4714 80.3132C86.5069 80.2838 86.5341 80.2456 86.5505 80.2023C86.5669 80.1591 86.5719 80.1123 86.5649 80.0665Z" fill="white"/>
<path d="M76.5062 89.7691C76.4956 89.7253 76.4747 89.6847 76.4453 89.6507C76.4159 89.6167 76.3788 89.5903 76.3372 89.5736C76.2956 89.557 76.2506 89.5506 76.206 89.5551C76.1615 89.5595 76.1186 89.5747 76.081 89.5992L76.0657 89.6124C76.0313 89.6433 76.0056 89.6826 75.9909 89.7266C75.9762 89.7705 75.9731 89.8176 75.982 89.8631C75.9909 89.9086 76.0113 89.951 76.0414 89.9861C76.0715 90.0212 76.1101 90.0478 76.1535 90.0633C76.1969 90.0788 76.2436 90.0827 76.2889 90.0745C76.3342 90.0664 76.3767 90.0465 76.412 90.0168C76.4474 89.9871 76.4745 89.9486 76.4906 89.9052C76.5067 89.8618 76.5114 89.8149 76.504 89.7691H76.5062Z" fill="white"/>
<path d="M80.7965 84.3671C80.7862 84.3234 80.7656 84.2828 80.7364 84.2487C80.7072 84.2147 80.6703 84.1882 80.6288 84.1716C80.5874 84.1549 80.5425 84.1485 80.4981 84.153C80.4536 84.1575 80.4109 84.1726 80.3735 84.1972L80.3582 84.2104C80.3238 84.2413 80.298 84.2807 80.2834 84.3246C80.2687 84.3685 80.2656 84.4156 80.2745 84.4611C80.2834 84.5066 80.3038 84.549 80.3339 84.5841C80.364 84.6192 80.4026 84.6458 80.446 84.6613C80.4894 84.6768 80.5361 84.6807 80.5814 84.6725C80.6267 84.6644 80.6692 84.6445 80.7045 84.6148C80.7399 84.5851 80.767 84.5466 80.7831 84.5032C80.7992 84.4598 80.8039 84.4129 80.7965 84.3671Z" fill="white"/>
<path d="M83.3444 88.7605C83.3346 88.7166 83.3146 88.6757 83.2859 88.6411C83.2573 88.6066 83.2209 88.5795 83.1797 88.562C83.1385 88.5445 83.0938 88.5372 83.0493 88.5406C83.0047 88.544 82.9616 88.5581 82.9236 88.5817L82.9104 88.595C82.8761 88.6258 82.8503 88.6652 82.8356 88.7091C82.8209 88.7531 82.8179 88.8001 82.8267 88.8456C82.8356 88.8911 82.8561 88.9335 82.8861 88.9686C82.9162 89.0037 82.9549 89.0303 82.9982 89.0458C83.0416 89.0613 83.0883 89.0652 83.1336 89.057C83.179 89.0489 83.2214 89.029 83.2568 88.9993C83.2921 88.9696 83.3192 88.9312 83.3354 88.8877C83.3515 88.8443 83.3561 88.7974 83.3488 88.7516L83.3444 88.7605Z" fill="white"/>
<path d="M76.2543 65.754C76.2436 65.7102 76.2227 65.6696 76.1933 65.6356C76.1639 65.6016 76.1269 65.5751 76.0852 65.5585C76.0436 65.5419 75.9986 65.5355 75.9541 65.54C75.9095 65.5444 75.8667 65.5595 75.8291 65.5841L75.8138 65.5973C75.7794 65.6282 75.7536 65.6675 75.7389 65.7115C75.7242 65.7554 75.7212 65.8024 75.7301 65.8479C75.7389 65.8934 75.7594 65.9358 75.7895 65.9709C75.8195 66.006 75.8582 66.0327 75.9016 66.0482C75.945 66.0637 75.9916 66.0675 76.0369 66.0594C76.0823 66.0512 76.1247 66.0313 76.1601 66.0016C76.1955 65.972 76.2225 65.9335 76.2387 65.8901C76.2548 65.8467 76.2594 65.7997 76.2521 65.754H76.2543Z" fill="white"/>
<path d="M82.0241 76.9705C82.0135 76.9267 81.9926 76.8861 81.9632 76.8521C81.9338 76.8181 81.8967 76.7917 81.8551 76.7751C81.8135 76.7584 81.7685 76.7521 81.7239 76.7565C81.6794 76.761 81.6365 76.7761 81.5989 76.8006L81.5836 76.8116C81.5492 76.8424 81.5234 76.8816 81.5087 76.9255C81.4939 76.9693 81.4907 77.0163 81.4994 77.0618C81.5081 77.1072 81.5285 77.1496 81.5584 77.1848C81.5883 77.22 81.6267 77.2467 81.67 77.2624C81.7133 77.2781 81.7598 77.2822 81.8051 77.2742C81.8504 77.2663 81.8929 77.2467 81.9284 77.2173C81.9639 77.1878 81.9912 77.1496 82.0076 77.1063C82.024 77.0631 82.0289 77.0163 82.0219 76.9705H82.0241Z" fill="white"/>
<path d="M80.1525 81.2183C80.1419 81.1745 80.121 81.1339 80.0916 81.0999C80.0622 81.0659 80.0251 81.0395 79.9835 81.0229C79.9419 81.0062 79.8969 80.9999 79.8523 81.0043C79.8078 81.0088 79.7649 81.0239 79.7273 81.0484L79.712 81.0595C79.6776 81.0902 79.6518 81.1295 79.6371 81.1733C79.6223 81.2172 79.6191 81.2641 79.6279 81.3096C79.6366 81.355 79.6569 81.3974 79.6868 81.4326C79.7167 81.4678 79.7551 81.4945 79.7984 81.5102C79.8417 81.5259 79.8882 81.53 79.9335 81.5221C79.9789 81.5141 80.0213 81.4945 80.0568 81.4651C80.0923 81.4356 80.1196 81.3974 80.136 81.3542C80.1524 81.3109 80.1573 81.2641 80.1503 81.2183H80.1525Z" fill="white"/>
<path d="M86.3055 84.63C86.2949 84.5862 86.274 84.5456 86.2446 84.5115C86.2152 84.4775 86.1781 84.4511 86.1365 84.4345C86.0949 84.4178 86.0499 84.4115 86.0054 84.4159C85.9608 84.4204 85.9179 84.4355 85.8804 84.46L85.865 84.4733C85.8307 84.5041 85.8049 84.5435 85.7902 84.5874C85.7755 84.6314 85.7725 84.6784 85.7813 84.7239C85.7902 84.7694 85.8107 84.8118 85.8407 84.8469C85.8708 84.882 85.9094 84.9086 85.9528 84.9241C85.9962 84.9397 86.0429 84.9435 86.0882 84.9354C86.1335 84.9272 86.176 84.9073 86.2113 84.8776C86.2467 84.8479 86.2738 84.8095 86.2899 84.7661C86.3061 84.7226 86.3107 84.6757 86.3033 84.63H86.3055Z" fill="white"/>
<path d="M69.4719 89.5571C69.4617 89.513 69.441 89.4721 69.4117 89.4378C69.3824 89.4034 69.3452 89.3768 69.3034 89.3601C69.2617 89.3434 69.2165 89.3371 69.1718 89.3419C69.127 89.3466 69.0841 89.3621 69.0467 89.3872L69.0313 89.3982C68.997 89.429 68.9712 89.4682 68.9564 89.5121C68.9417 89.5559 68.9385 89.6029 68.9472 89.6483C68.9559 89.6938 68.9762 89.7362 69.0061 89.7714C69.036 89.8066 69.0745 89.8333 69.1177 89.849C69.161 89.8647 69.2076 89.8687 69.2529 89.8608C69.2982 89.8529 69.3407 89.8333 69.3762 89.8038C69.4117 89.7744 69.439 89.7362 69.4553 89.6929C69.4717 89.6497 69.4767 89.6029 69.4697 89.5571H69.4719Z" fill="white"/>
<path d="M55.445 88.2662C55.4343 88.2224 55.4135 88.1818 55.384 88.1478C55.3546 88.1138 55.3176 88.0873 55.276 88.0707C55.2343 88.0541 55.1894 88.0477 55.1448 88.0522C55.1002 88.0566 55.0574 88.0717 55.0198 88.0963L55.0045 88.1095C54.9691 88.1403 54.9424 88.1799 54.927 88.2244C54.9116 88.2689 54.9081 88.3166 54.9167 88.3629C54.9254 88.4092 54.946 88.4523 54.9764 88.4881C55.0068 88.5239 55.046 88.551 55.09 88.5667C55.1341 88.5825 55.1815 88.5863 55.2275 88.5779C55.2735 88.5694 55.3165 88.549 55.3522 88.5185C55.3879 88.4881 55.415 88.4488 55.4309 88.4045C55.4468 88.3603 55.4509 88.3126 55.4428 88.2662H55.445Z" fill="white"/>
<path d="M67.8024 85.9471C67.7918 85.9033 67.7709 85.8627 67.7415 85.8287C67.7121 85.7947 67.675 85.7682 67.6334 85.7516C67.5918 85.735 67.5468 85.7286 67.5022 85.7331C67.4577 85.7375 67.4148 85.7526 67.3772 85.7772L67.3619 85.7904C67.3265 85.8212 67.2998 85.8609 67.2844 85.9053C67.269 85.9498 67.2655 85.9975 67.2742 86.0438C67.2828 86.0901 67.3034 86.1332 67.3338 86.169C67.3642 86.2048 67.4034 86.2319 67.4475 86.2476C67.4915 86.2634 67.5389 86.2672 67.5849 86.2588C67.6309 86.2503 67.6739 86.2299 67.7096 86.1995C67.7453 86.169 67.7725 86.1297 67.7884 86.0854C67.8043 86.0412 67.8083 85.9935 67.8002 85.9471H67.8024Z" fill="white"/>
<path d="M55.9657 83.425C55.9556 83.3809 55.9349 83.34 55.9056 83.3057C55.8763 83.2714 55.8391 83.2447 55.7973 83.228C55.7555 83.2113 55.7104 83.2051 55.6656 83.2098C55.6209 83.2145 55.578 83.23 55.5406 83.2551L55.5274 83.2661C55.4931 83.2969 55.4673 83.3361 55.4525 83.38C55.4377 83.4238 55.4346 83.4708 55.4433 83.5163C55.452 83.5617 55.4723 83.6041 55.5022 83.6393C55.5321 83.6745 55.5706 83.7012 55.6138 83.7169C55.6571 83.7326 55.7037 83.7366 55.749 83.7287C55.7943 83.7208 55.8368 83.7012 55.8723 83.6717C55.9077 83.6423 55.935 83.6041 55.9514 83.5608C55.9678 83.5176 55.9727 83.4708 55.9657 83.425Z" fill="white"/>
<path d="M75.7355 75.4149C75.7249 75.3711 75.704 75.3305 75.6746 75.2965C75.6452 75.2624 75.6081 75.236 75.5665 75.2194C75.5249 75.2028 75.4799 75.1964 75.4353 75.2008C75.3908 75.2053 75.3479 75.2204 75.3104 75.2449L75.295 75.256C75.2607 75.2867 75.2348 75.326 75.2201 75.3698C75.2053 75.4137 75.2021 75.4606 75.2109 75.5061C75.2196 75.5516 75.2399 75.594 75.2698 75.6291C75.2997 75.6643 75.3382 75.691 75.3814 75.7067C75.4247 75.7224 75.4712 75.7265 75.5165 75.7186C75.5619 75.7107 75.6043 75.691 75.6398 75.6616C75.6753 75.6322 75.7026 75.5939 75.719 75.5507C75.7354 75.5074 75.7403 75.4606 75.7333 75.4149H75.7355Z" fill="white"/>
<path d="M71.5973 63.2581C71.5867 63.2143 71.5658 63.1737 71.5364 63.1397C71.507 63.1057 71.4699 63.0793 71.4283 63.0626C71.3867 63.046 71.3417 63.0397 71.2972 63.0441C71.2526 63.0486 71.2097 63.0637 71.1722 63.0882H71.1568C71.1225 63.119 71.0966 63.1582 71.0819 63.2021C71.0671 63.2459 71.064 63.2929 71.0727 63.3383C71.0814 63.3838 71.1017 63.4262 71.1316 63.4614C71.1615 63.4965 71.2 63.5233 71.2432 63.539C71.2865 63.5546 71.3331 63.5587 71.3784 63.5508C71.4237 63.5429 71.4662 63.5233 71.5016 63.4938C71.5371 63.4644 71.5644 63.4262 71.5808 63.3829C71.5972 63.3397 71.6021 63.2929 71.5951 63.2471L71.5973 63.2581Z" fill="white"/>
<path d="M70.5631 73.7974C70.5525 73.7536 70.5316 73.713 70.5022 73.679C70.4728 73.645 70.4357 73.6186 70.3941 73.602C70.3525 73.5853 70.3075 73.579 70.2629 73.5834C70.2184 73.5879 70.1755 73.603 70.1379 73.6275L70.1248 73.6408C70.0904 73.6716 70.0646 73.711 70.05 73.7549C70.0353 73.7989 70.0322 73.8459 70.0411 73.8914C70.05 73.9369 70.0704 73.9793 70.1005 74.0144C70.1306 74.0495 70.1692 74.0761 70.2126 74.0916C70.256 74.1071 70.3027 74.111 70.348 74.1028C70.3933 74.0947 70.4358 74.0748 70.4711 74.0451C70.5065 74.0154 70.5336 73.977 70.5497 73.9335C70.5658 73.8901 70.5705 73.8432 70.5631 73.7974Z" fill="white"/>
<path d="M68.8793 70.3614C68.8687 70.3176 68.8478 70.277 68.8184 70.243C68.789 70.209 68.7519 70.1826 68.7103 70.1659C68.6687 70.1493 68.6237 70.1429 68.5792 70.1474C68.5346 70.1518 68.4917 70.167 68.4542 70.1915H68.441C68.4067 70.2223 68.3808 70.2615 68.3661 70.3053C68.3513 70.3492 68.3481 70.3961 68.3569 70.4416C68.3656 70.4871 68.3859 70.5295 68.4158 70.5646C68.4457 70.5998 68.4842 70.6265 68.5274 70.6422C68.5707 70.6579 68.6173 70.662 68.6626 70.6541C68.7079 70.6462 68.7504 70.6265 68.7858 70.5971C68.8213 70.5677 68.8486 70.5294 68.865 70.4862C68.8814 70.4429 68.8863 70.3961 68.8793 70.3504V70.3614Z" fill="white"/>
<path d="M76.3234 81.1697C76.3128 81.1259 76.2919 81.0853 76.2625 81.0513C76.2331 81.0173 76.196 80.9909 76.1544 80.9743C76.1128 80.9576 76.0678 80.9513 76.0232 80.9557C75.9787 80.9602 75.9358 80.9753 75.8982 80.9998L75.8829 81.0131C75.8475 81.0439 75.8208 81.0835 75.8054 81.128C75.79 81.1724 75.7865 81.2202 75.7952 81.2664C75.8038 81.3127 75.8244 81.3559 75.8548 81.3917C75.8852 81.4274 75.9244 81.4545 75.9685 81.4703C76.0125 81.486 76.0599 81.4899 76.1059 81.4814C76.1519 81.473 76.1949 81.4525 76.2306 81.4221C76.2663 81.3917 76.2935 81.3524 76.3094 81.3081C76.3253 81.2638 76.3294 81.2161 76.3212 81.1697H76.3234Z" fill="white"/>
<path d="M71.0765 79.0492C71.0672 79.0045 71.0472 78.9628 71.0182 78.9278C70.9892 78.8927 70.9522 78.8652 70.9103 78.8478C70.8684 78.8304 70.8229 78.8236 70.7778 78.8279C70.7326 78.8323 70.6892 78.8476 70.6514 78.8727L70.636 78.8859C70.6017 78.9168 70.5759 78.9561 70.5612 79.0001C70.5465 79.044 70.5435 79.091 70.5523 79.1365C70.5612 79.182 70.5817 79.2244 70.6117 79.2595C70.6418 79.2946 70.6804 79.3213 70.7238 79.3368C70.7672 79.3523 70.8139 79.3562 70.8592 79.348C70.9045 79.3398 70.947 79.3199 70.9823 79.2903C71.0177 79.2606 71.0448 79.2221 71.0609 79.1787C71.0771 79.1353 71.0817 79.0883 71.0743 79.0426L71.0765 79.0492Z" fill="white"/>
<path d="M73.3222 67.4091C73.3119 67.3654 73.2913 67.3248 73.2621 67.2907C73.2329 67.2567 73.196 67.2302 73.1545 67.2136C73.1131 67.1969 73.0682 67.1905 73.0238 67.195C72.9793 67.1995 72.9366 67.2146 72.8992 67.2392L72.8839 67.2502C72.8495 67.281 72.8237 67.3202 72.8089 67.3641C72.7942 67.4079 72.791 67.4549 72.7997 67.5003C72.8084 67.5458 72.8287 67.5882 72.8586 67.6234C72.8885 67.6585 72.927 67.6853 72.9703 67.701C73.0136 67.7167 73.0601 67.7207 73.1054 67.7128C73.1507 67.7049 73.1932 67.6853 73.2287 67.6558C73.2642 67.6264 73.2915 67.5882 73.3079 67.5449C73.3243 67.5017 73.3292 67.4549 73.3222 67.4091Z" fill="white"/>
<path d="M65.3346 75.651C65.324 75.6072 65.3031 75.5666 65.2737 75.5325C65.2443 75.4985 65.2072 75.4721 65.1656 75.4555C65.124 75.4388 65.079 75.4325 65.0344 75.4369C64.9899 75.4414 64.947 75.4565 64.9094 75.481L64.8963 75.4943C64.8619 75.5251 64.8361 75.5645 64.8214 75.6084C64.8068 75.6524 64.8037 75.6994 64.8126 75.7449C64.8214 75.7904 64.8419 75.8328 64.872 75.8679C64.9021 75.903 64.9407 75.9296 64.9841 75.9452C65.0275 75.9607 65.0741 75.9645 65.1195 75.9564C65.1648 75.9482 65.2072 75.9283 65.2426 75.8986C65.278 75.8689 65.3051 75.8305 65.3212 75.7871C65.3373 75.7436 65.3419 75.6967 65.3346 75.651Z" fill="white"/>
<path d="M77.6642 71.8687C77.6536 71.8249 77.6327 71.7843 77.6033 71.7503C77.5739 71.7163 77.5368 71.6899 77.4952 71.6732C77.4536 71.6566 77.4086 71.6503 77.3641 71.6547C77.3195 71.6591 77.2766 71.6743 77.2391 71.6988L77.2237 71.7098C77.1894 71.7406 77.1635 71.7798 77.1488 71.8237C77.134 71.8675 77.1309 71.9145 77.1396 71.96C77.1483 72.0054 77.1686 72.0478 77.1985 72.083C77.2284 72.1182 77.2669 72.1449 77.3101 72.1606C77.3534 72.1763 77.4 72.1803 77.4453 72.1724C77.4906 72.1645 77.5331 72.1449 77.5686 72.1154C77.604 72.086 77.6313 72.0478 77.6477 72.0045C77.6641 71.9613 77.669 71.9145 77.662 71.8687H77.6642Z" fill="white"/>
<path d="M89.1019 61.9918C89.0913 61.948 89.0704 61.9074 89.041 61.8734C89.0116 61.8393 88.9745 61.8129 88.9329 61.7963C88.8913 61.7797 88.8463 61.7733 88.8017 61.7777C88.7572 61.7822 88.7143 61.7973 88.6767 61.8219L88.6614 61.8351C88.627 61.866 88.6013 61.9053 88.5866 61.9493C88.5719 61.9932 88.5688 62.0402 88.5777 62.0857C88.5866 62.1312 88.607 62.1736 88.6371 62.2087C88.6672 62.2438 88.7058 62.2705 88.7492 62.286C88.7926 62.3015 88.8393 62.3053 88.8846 62.2972C88.9299 62.289 88.9724 62.2691 89.0077 62.2394C89.0431 62.2097 89.0702 62.1713 89.0863 62.1279C89.1024 62.0845 89.1071 62.0375 89.0997 61.9918H89.1019Z" fill="white"/>
<path d="M84.4579 54.5132C84.4473 54.4694 84.4264 54.4288 84.397 54.3948C84.3676 54.3608 84.3305 54.3344 84.2889 54.3178C84.2472 54.3011 84.2023 54.2948 84.1577 54.2992C84.1131 54.3037 84.0703 54.3188 84.0327 54.3433L84.0174 54.3566C83.983 54.3874 83.9572 54.4268 83.9425 54.4707C83.9279 54.5147 83.9248 54.5617 83.9337 54.6072C83.9425 54.6527 83.963 54.6951 83.9931 54.7302C84.0232 54.7653 84.0618 54.7919 84.1052 54.8074C84.1486 54.8229 84.1952 54.8268 84.2406 54.8187C84.2859 54.8105 84.3283 54.7906 84.3637 54.7609C84.3991 54.7312 84.4262 54.6928 84.4423 54.6493C84.4584 54.6059 84.463 54.559 84.4557 54.5132H84.4579Z" fill="white"/>
<path d="M75.4596 55.451C75.449 55.4072 75.4281 55.3666 75.3987 55.3326C75.3693 55.2986 75.3323 55.2722 75.2906 55.2555C75.249 55.2389 75.204 55.2325 75.1595 55.237C75.1149 55.2414 75.072 55.2565 75.0345 55.2811L75.0191 55.2921C74.9848 55.3229 74.959 55.3621 74.9442 55.406C74.9294 55.4498 74.9263 55.4968 74.935 55.5422C74.9437 55.5877 74.964 55.6301 74.9939 55.6653C75.0238 55.7004 75.0623 55.7272 75.1055 55.7429C75.1488 55.7585 75.1954 55.7626 75.2407 55.7547C75.286 55.7468 75.3285 55.7272 75.364 55.6977C75.3994 55.6683 75.4267 55.6301 75.4431 55.5868C75.4595 55.5436 75.4645 55.4968 75.4575 55.451H75.4596Z" fill="white"/>
<path d="M66.2777 28.6072C64.5529 29.7105 63.8669 32.0297 64.1913 33.4C64.3578 34.0907 64.6691 34.7858 64.5332 35.4809C64.417 36.0833 63.9853 36.5666 63.6565 37.0874C63.1149 37.964 62.8661 38.9922 62.9464 40.0214C63.0268 41.0507 63.4321 42.027 64.1031 42.8077C64.7741 43.5884 65.6756 44.1324 66.6758 44.3602C67.6759 44.5879 68.7222 44.4876 69.6615 44.0737" fill="#263238"/>
<path d="M65.2568 37.6522C61.0577 28.3534 71.0471 23.6819 76.4955 25.2309C81.6173 26.6873 83.8023 29.2537 84.6461 32.7027C85.4898 36.1517 85.4482 39.892 84.1047 43.1777C83.4473 44.7974 82.2506 46.4436 80.5215 46.6466" fill="#263238"/>
<path d="M70.1765 60.3608C70.1042 55.9166 70.0516 49.8152 70.0516 49.8394C70.0516 49.8637 66.2666 49.2061 65.4711 44.2279C65.081 41.7498 65.2059 37.6874 65.4119 34.3664C65.6004 31.3763 67.5663 27.7089 70.525 28.0244L79.7626 30.3745C80.1963 30.4204 80.597 30.6287 80.8853 30.9581C81.1735 31.2876 81.3282 31.7141 81.3187 32.1531L80.7182 51.3885" fill="#FFBE9D"/>
<path d="M67.0646 37.4052C67.061 37.5706 67.1218 37.7309 67.234 37.8517C67.3462 37.9725 67.501 38.0443 67.6651 38.0518C67.7453 38.0593 67.8263 38.0506 67.9031 38.0261C67.9799 38.0016 68.0511 37.9619 68.1124 37.9092C68.1737 37.8565 68.2239 37.792 68.26 37.7195C68.2961 37.6469 68.3174 37.5678 68.3226 37.4869C68.3256 37.3214 68.2647 37.1613 68.1527 37.0402C68.0406 36.9191 67.8862 36.8467 67.7221 36.8381C67.6417 36.8309 67.5608 36.8399 67.4839 36.8646C67.4071 36.8894 67.3359 36.9294 67.2747 36.9822C67.2134 37.0351 67.1633 37.0997 67.1272 37.1723C67.0911 37.245 67.0698 37.3242 67.0646 37.4052Z" fill="#263238"/>
<path d="M73.6222 37.4052C73.6192 37.5702 73.6802 37.7299 73.7924 37.8502C73.9045 37.9706 74.0589 38.0421 74.2227 38.0495C74.3029 38.0571 74.3838 38.0483 74.4607 38.0239C74.5375 37.9994 74.6086 37.9596 74.6699 37.9069C74.7312 37.8543 74.7814 37.7898 74.8175 37.7172C74.8536 37.6447 74.8749 37.5656 74.8802 37.4846C74.8838 37.3192 74.8229 37.159 74.7107 37.0382C74.5985 36.9173 74.4438 36.8455 74.2797 36.8381C74.1992 36.8305 74.1182 36.8393 74.0412 36.864C73.9642 36.8886 73.893 36.9285 73.8316 36.9814C73.7703 37.0343 73.7202 37.0991 73.6842 37.1719C73.6482 37.2447 73.6271 37.324 73.6222 37.4052Z" fill="#263238"/>
<path d="M66.3821 36.2444C66.4588 36.3305 66.9519 35.9884 67.6335 36.0237C68.3151 36.059 68.8038 36.4077 68.8827 36.3261C68.92 36.2907 68.8433 36.1385 68.6307 35.9708C68.3428 35.7541 67.995 35.633 67.6357 35.6243C67.2806 35.6118 66.9307 35.713 66.6363 35.9134C66.4215 36.0635 66.3448 36.2047 66.3821 36.2444Z" fill="#263238"/>
<path d="M72.8635 36.4076C72.9424 36.4914 73.4224 36.1295 74.104 36.1295C74.7856 36.1295 75.2896 36.4694 75.3619 36.3855C75.3992 36.348 75.3181 36.198 75.099 36.0391C74.8029 35.8331 74.4506 35.7252 74.0908 35.7301C73.7359 35.7301 73.3902 35.8446 73.1046 36.0567C72.8942 36.22 72.8241 36.3701 72.8635 36.4076Z" fill="#263238"/>
<path d="M70.5235 41.7037C70.5235 41.664 70.1027 41.5912 69.4145 41.5007C69.2392 41.4831 69.0748 41.4478 69.0463 41.3286C69.0307 41.1471 69.0713 40.9652 69.1625 40.8078C69.3246 40.3842 69.4978 39.9384 69.6775 39.4706C70.3941 37.5685 70.9114 36.0017 70.8347 35.9731C70.758 35.9444 70.1158 37.4648 69.4013 39.3691L68.906 40.7152C68.7963 40.9268 68.7644 41.1707 68.8162 41.4036C68.8417 41.4654 68.8807 41.5206 68.9305 41.5649C68.9802 41.6093 69.0393 41.6416 69.1033 41.6596C69.1996 41.6869 69.2991 41.701 69.3992 41.7015C70.0917 41.7391 70.5213 41.7413 70.5235 41.7037Z" fill="#263238"/>
<path d="M70.0508 49.8396C72.3808 49.8755 74.675 49.2598 76.6782 48.061C76.6782 48.061 75.0038 51.5255 70.0508 51.0599V49.8396Z" fill="#EB996E"/>
<path d="M72.6954 35.4302C72.7611 35.6178 73.4449 35.5273 74.2448 35.6266C75.0448 35.7259 75.6935 35.9421 75.8009 35.7744C75.8491 35.695 75.7351 35.5185 75.4743 35.3331C75.1254 35.1114 74.731 34.9726 74.3209 34.9271C73.9108 34.8816 73.4959 34.9307 73.1074 35.0705C72.8137 35.1941 72.6647 35.3419 72.6954 35.4302Z" fill="#263238"/>
<path d="M66.5389 34.5188C66.6594 34.6755 67.1306 34.5188 67.696 34.5056C68.2614 34.4923 68.7414 34.6115 68.851 34.4482C68.8992 34.3688 68.8247 34.2121 68.6143 34.0643C68.3349 33.8826 68.0063 33.7932 67.6741 33.8083C67.3419 33.8148 67.0197 33.9242 66.7514 34.1216C66.552 34.2783 66.4863 34.4394 66.5389 34.5188Z" fill="#263238"/>
<path d="M80.4708 38.7115C80.5432 38.6762 83.1205 37.5287 83.1512 40.5121C83.1819 43.4955 80.1991 42.9108 80.1925 42.8247C80.1859 42.7386 80.4708 38.7115 80.4708 38.7115Z" fill="#FFBE9D"/>
<path d="M81.0871 41.6815C81.1003 41.6815 81.1397 41.7168 81.2274 41.7565C81.3512 41.8061 81.4892 41.8061 81.6131 41.7565C81.9243 41.6373 82.1829 41.1342 82.1917 40.5958C82.1983 40.3403 82.1465 40.0866 82.0405 39.8544C82.0121 39.7613 81.9615 39.6766 81.8931 39.6077C81.8247 39.5388 81.7406 39.4879 81.6482 39.4594C81.5888 39.444 81.5259 39.4501 81.4706 39.4768C81.4153 39.5034 81.3711 39.5488 81.3457 39.605C81.3063 39.6889 81.326 39.7484 81.3107 39.7529C81.2953 39.7573 81.2449 39.7043 81.269 39.5807C81.2845 39.5069 81.3247 39.4407 81.383 39.3932C81.4229 39.3617 81.4687 39.3385 81.5176 39.3249C81.5665 39.3112 81.6175 39.3075 81.6679 39.3137C81.7897 39.3368 81.9036 39.3909 81.9987 39.4708C82.0939 39.5508 82.1671 39.654 82.2114 39.7705C82.3405 40.0275 82.4052 40.3123 82.3999 40.6002C82.3867 41.2004 82.0865 41.7675 81.6591 41.8955C81.5798 41.9196 81.4961 41.9256 81.4142 41.913C81.3324 41.9004 81.2543 41.8695 81.1857 41.8227C81.0937 41.7543 81.0783 41.6859 81.0871 41.6815Z" fill="#EB996E"/>
<path d="M69.5388 26.5483C67.8907 27.4067 67.2113 30.8006 67.8929 32.5394C68.5745 34.2783 70.4133 35.1256 72.2257 35.525C74.0382 35.9244 75.8156 35.9664 77.604 35.4721C77.7267 36.6813 78.4477 37.9237 79.6137 38.2436C81.1587 38.6651 82.7148 37.2418 83.0589 35.6685C83.403 34.0951 82.8857 32.4754 82.3773 30.9462" fill="#263238"/>
<path d="M82.6132 37.372C82.6132 37.372 82.5387 37.4602 82.3831 37.5926C82.1655 37.778 81.938 37.9511 81.7015 38.1112C81.3479 38.3568 80.9592 38.5465 80.5487 38.6739C80.036 38.8367 79.4848 38.8282 78.9773 38.6496C78.4777 38.4469 78.0591 38.0829 77.7873 37.6147C77.5671 37.2407 77.4219 36.8269 77.3599 36.3966C77.3166 36.1105 77.3012 35.8208 77.3139 35.5316C77.3091 35.4258 77.3217 35.3199 77.3511 35.2183C77.384 35.2183 77.3511 35.6706 77.4782 36.3746C77.5534 36.7836 77.7019 37.1754 77.9166 37.5308C78.1768 37.9622 78.5679 38.2979 79.0321 38.4885C79.507 38.6537 80.0214 38.6645 80.5027 38.5194C80.9007 38.4035 81.2806 38.2319 81.6313 38.0097C82.2406 37.6257 82.5957 37.3477 82.6132 37.372Z" fill="#263238"/>
<path d="M70.7249 43.6189C70.812 43.8776 70.9361 44.1221 71.0931 44.3449C71.1719 44.4565 71.2735 44.5498 71.391 44.6187C71.5086 44.6876 71.6394 44.7304 71.7747 44.7443C71.9193 44.7433 72.0614 44.7063 72.1883 44.6366C72.3153 44.567 72.4231 44.4667 72.5023 44.3449C72.6551 44.0952 72.7256 43.8033 72.7039 43.5108C72.6929 43.2482 72.5724 42.9349 72.3138 42.904C72.205 42.9001 72.0971 42.9244 72.0004 42.9746L70.6372 43.5307" fill="#EB996E"/>
<path d="M71.2677 44.7465C71.2677 44.7046 71.5746 44.8259 71.9953 44.656C72.2339 44.5633 72.4299 44.3848 72.5454 44.1551C72.6108 44.015 72.6461 43.8627 72.6491 43.7079C72.6521 43.5532 72.6228 43.3996 72.563 43.257C72.5314 43.1843 72.4917 43.1154 72.4446 43.0518C72.3898 42.9944 72.3986 42.9966 72.3416 43.0055C72.2846 43.0143 72.1948 43.0628 72.1225 43.0915L71.9033 43.1842C71.6118 43.3034 71.3466 43.4049 71.1253 43.4909C70.687 43.6586 70.3955 43.7469 70.3823 43.7116C70.3692 43.6763 70.6278 43.535 71.0573 43.3276C71.2765 43.2239 71.5285 43.107 71.8156 42.9724L72.0348 42.8731C72.1159 42.84 72.1751 42.8046 72.2846 42.7693C72.3501 42.7475 72.4208 42.7475 72.4863 42.7693C72.5462 42.7951 72.5983 42.8362 72.6375 42.8885C72.7838 43.0799 72.8721 43.3098 72.892 43.5505C72.9118 43.7912 72.8622 44.0325 72.7493 44.2456C72.6765 44.3808 72.5779 44.5002 72.459 44.5968C72.3401 44.6934 72.2034 44.7653 72.0567 44.8083C71.8662 44.8713 71.6621 44.8797 71.4672 44.8326C71.3269 44.8083 71.2633 44.762 71.2677 44.7465Z" fill="#263238"/>
<path d="M83.8004 36.6658C83.4979 36.6437 81.0499 36.9637 81.2427 41.5425C81.4225 45.8212 84.4031 44.8789 85.3542 43.2681C86.2484 41.7433 86.77 36.8754 83.8004 36.6658Z" fill="#455A64"/>
<path d="M85.3055 37.2064C85.2987 37.167 85.295 37.1272 85.2946 37.0872C85.2946 36.9967 85.2946 36.882 85.2814 36.7364C85.2814 36.4208 85.2595 35.9795 85.2442 35.4322C85.2223 34.309 85.1916 32.7445 85.1543 30.9417L85.2091 30.9946H83.9489L84.0059 30.9373C84.0059 31.2771 84.0234 31.6368 84.0344 32.0031C84.076 33.7199 84.1155 35.3131 84.1484 36.6613V36.7011H84.1111C83.5937 36.8212 83.134 37.1193 82.8115 37.544C82.5672 37.8733 82.3906 38.2484 82.2921 38.6473C82.2264 38.9043 82.1816 39.1663 82.1584 39.4307C82.1584 39.5212 82.1474 39.5918 82.1452 39.6381C82.143 39.6845 82.1452 39.7109 82.1452 39.7109C82.1423 39.6868 82.1423 39.6623 82.1452 39.6381C82.1452 39.5918 82.1452 39.5212 82.1452 39.4285C82.1559 39.1607 82.1926 38.8947 82.2548 38.6341C82.3462 38.2235 82.52 37.836 82.7654 37.4955C83.0962 37.0533 83.5698 36.7412 84.1045 36.6128L84.0673 36.6613C84.03 35.3219 83.984 33.7221 83.9358 32.0031C83.9248 31.639 83.916 31.2793 83.9073 30.9373V30.8777H85.2814V30.9329C85.3012 32.7379 85.3187 34.3002 85.3318 35.4256C85.3318 35.9729 85.3318 36.4142 85.3318 36.7297C85.3318 36.8754 85.3318 36.9901 85.3318 37.0784C85.329 37.1221 85.3201 37.1651 85.3055 37.2064Z" fill="#455A64"/>
<path d="M83.8007 30.9396C83.8007 30.9396 82.5208 27.9253 79.4723 26.4358C78.3064 25.8511 77.0816 25.3939 75.8188 25.072C75.8188 25.072 77.5984 24.6484 80.476 25.9371C81.791 26.524 83.106 27.2853 83.9826 28.4306C84.5349 29.1566 85.2275 30.5755 85.2253 30.9396H83.8007Z" fill="#455A64"/>
<path d="M75.9092 67.453C75.9092 67.453 75.9267 67.431 75.964 67.3935C76.0012 67.3559 76.0582 67.2986 76.1283 67.2213C76.3386 66.9974 76.5362 66.7616 76.7201 66.5152C77.0126 66.1209 77.2798 65.7082 77.52 65.2795C77.8049 64.7786 78.103 64.1872 78.4252 63.5274C79.0717 62.2034 79.819 60.6102 80.5949 58.7787C80.9806 57.8629 81.3751 56.8898 81.7696 55.8637L82.0632 55.0869C82.1558 54.8151 82.274 54.5528 82.4161 54.3036C82.5678 54.0452 82.7878 53.8343 83.0517 53.6945C83.1859 53.6202 83.3368 53.5814 83.49 53.582C83.5736 53.5878 83.654 53.6168 83.7223 53.6658C83.787 53.7186 83.8375 53.7869 83.8691 53.8644V53.8799V53.8975C83.8505 54.0026 83.8102 54.1026 83.7508 54.191C83.6846 54.2831 83.5871 54.3475 83.4768 54.372C83.2663 54.4013 83.052 54.3619 82.8654 54.2594C82.6695 54.1674 82.5098 54.0121 82.4117 53.8182C82.3136 53.6242 82.2827 53.4028 82.324 53.1892C82.3687 52.9696 82.497 52.7764 82.6813 52.6508C82.8632 52.523 83.0822 52.4601 83.3037 52.472C83.4183 52.4728 83.531 52.5025 83.6313 52.5584C83.7316 52.6143 83.8164 52.6946 83.8779 52.792C83.9089 52.8478 83.9233 52.9113 83.9194 52.9751C83.9155 53.0388 83.8935 53.1002 83.856 53.1517C83.7836 53.244 83.6873 53.3142 83.5776 53.3547C83.3939 53.425 83.1925 53.4338 83.0034 53.3797C82.8143 53.3257 82.6475 53.2116 82.5279 53.0546C82.4114 52.8945 82.3604 52.6954 82.3854 52.4985C82.4046 52.3066 82.481 52.1251 82.6046 51.9777C82.7302 51.8289 82.9056 51.7316 83.0977 51.7041C83.1946 51.6914 83.2932 51.7015 83.3857 51.7336C83.4781 51.7658 83.5618 51.8191 83.6303 51.8895C83.7003 51.9655 83.7381 52.0661 83.7354 52.1697C83.7342 52.2214 83.7223 52.2722 83.7004 52.319C83.6785 52.3657 83.6471 52.4073 83.6083 52.4411C83.5368 52.5059 83.4511 52.5529 83.3582 52.5782C83.2653 52.6035 83.1678 52.6064 83.0736 52.5868C82.9824 52.5627 82.8972 52.5197 82.8236 52.4604C82.7499 52.4011 82.6895 52.3269 82.6462 52.2425C82.5613 52.0844 82.507 51.9114 82.4862 51.7328C82.4244 51.386 82.4648 51.0285 82.6024 50.7045C82.6792 50.5392 82.8121 50.4069 82.9771 50.3316C83.1459 50.2686 83.3324 50.275 83.4966 50.3492C83.5826 50.3805 83.6583 50.4352 83.7152 50.5073C83.772 50.5794 83.8079 50.666 83.8187 50.7575C83.8231 50.8509 83.7987 50.9435 83.7489 51.0224C83.6991 51.1014 83.6263 51.163 83.5404 51.1988C83.4624 51.2391 83.376 51.2601 83.2884 51.2601C83.2007 51.2601 83.1143 51.2391 83.0363 51.1988C82.888 51.1125 82.7764 50.9742 82.7229 50.8104C82.6733 50.655 82.6635 50.4896 82.6944 50.3294C82.7116 50.1732 82.7454 50.0193 82.7952 49.8704C82.8447 49.7173 82.9367 49.5817 83.0604 49.4798C83.1819 49.3817 83.3233 49.3116 83.4746 49.2746C83.5534 49.2519 83.6369 49.2519 83.7157 49.2746C83.7912 49.3009 83.8595 49.3448 83.9152 49.4026C83.9709 49.4578 84.0149 49.5238 84.0445 49.5968C84.0763 49.6753 84.0763 49.7632 84.0445 49.8417C84.0092 49.9143 83.9527 49.9743 83.8826 50.0138C83.8125 50.0532 83.7321 50.0701 83.6522 50.0624C83.5038 50.0602 83.3598 50.0116 83.2401 49.9233C83.013 49.7548 82.8567 49.5069 82.8018 49.2282C82.7445 48.9532 82.7873 48.6665 82.9224 48.4206C82.9817 48.3026 83.0663 48.1994 83.17 48.1183C83.2723 48.0401 83.3919 47.9879 83.5185 47.966C83.645 47.9402 83.7766 47.9589 83.8911 48.019C83.9477 48.0499 83.9958 48.0946 84.031 48.1489C84.0662 48.2032 84.0874 48.2655 84.0927 48.3301C84.092 48.4519 84.0512 48.57 83.9766 48.6658C83.902 48.7617 83.7979 48.8299 83.6807 48.8597C83.5707 48.8833 83.4564 48.875 83.351 48.836C83.2455 48.7969 83.1531 48.7287 83.0845 48.6391C82.9529 48.4795 82.876 48.2813 82.8654 48.0742C82.8844 47.7133 82.9583 47.3576 83.0845 47.0194C83.1744 46.7016 83.2555 46.4103 83.33 46.15C83.4768 45.6314 83.5908 45.2276 83.6719 44.9495C83.7092 44.8149 83.7398 44.7112 83.7617 44.6384C83.7837 44.5656 83.7968 44.5325 83.7968 44.5325C83.7968 44.5325 83.7968 44.57 83.7727 44.6406C83.7486 44.7112 83.7267 44.8215 83.6938 44.9561C83.6193 45.2364 83.5097 45.6424 83.3716 46.161L83.1371 47.0326C83.0626 47.3526 82.918 47.6946 82.9333 48.0697C82.9492 48.2638 83.026 48.4477 83.1525 48.5949C83.2131 48.6741 83.2944 48.7346 83.3873 48.7697C83.4803 48.8048 83.5811 48.8131 83.6785 48.7935C83.7768 48.7681 83.8645 48.7114 83.9284 48.6319C83.9923 48.5524 84.0292 48.4544 84.0335 48.3522C84.029 48.3004 84.0118 48.2505 83.9835 48.207C83.9552 48.1635 83.9167 48.1277 83.8713 48.1028C83.7723 48.0535 83.6597 48.0387 83.5514 48.0609C83.4365 48.0807 83.3282 48.1285 83.2358 48.1999C83.1439 48.275 83.0691 48.3691 83.0166 48.4758C82.908 48.7021 82.8794 48.959 82.9355 49.204C82.9882 49.4601 83.1334 49.6874 83.3432 49.8417C83.4481 49.9176 83.5734 49.9599 83.7026 49.9631C83.7633 49.9704 83.8248 49.9589 83.8788 49.9301C83.9329 49.9013 83.9769 49.8566 84.005 49.802C84.0185 49.7407 84.0148 49.6769 83.9943 49.6176C83.9738 49.5584 83.9373 49.5061 83.8889 49.4666C83.8437 49.4206 83.7891 49.3852 83.7289 49.3628C83.6664 49.3464 83.6007 49.3464 83.5382 49.3628C83.4001 49.393 83.272 49.4581 83.1658 49.5519C83.0596 49.6457 82.9788 49.7652 82.9311 49.8991C82.8833 50.0421 82.8517 50.1902 82.8369 50.3404C82.8072 50.4873 82.8163 50.6395 82.8632 50.7817C82.9067 50.9207 83.0006 51.0381 83.1262 51.1105C83.1898 51.1426 83.26 51.1592 83.3311 51.1592C83.4022 51.1592 83.4724 51.1426 83.536 51.1105C83.6015 51.0848 83.6577 51.0395 83.6968 50.9808C83.736 50.922 83.7564 50.8525 83.7552 50.7817C83.7454 50.7105 83.7163 50.6433 83.6711 50.5876C83.6259 50.5319 83.5662 50.4899 83.4988 50.4662C83.3599 50.4051 83.2032 50.3996 83.0604 50.4507C82.9205 50.5165 82.808 50.6298 82.7426 50.7707C82.6168 51.0754 82.5811 51.4103 82.6396 51.735C82.6589 51.8995 82.7088 52.059 82.7865 52.205C82.8222 52.2752 82.872 52.3371 82.9328 52.3869C82.9935 52.4366 83.0638 52.4731 83.1393 52.4941C83.2164 52.5108 83.2962 52.5089 83.3724 52.4886C83.4486 52.4682 83.5189 52.4301 83.5776 52.3771C83.6051 52.3527 83.6274 52.3228 83.6431 52.2895C83.6588 52.2561 83.6677 52.2199 83.6691 52.1829C83.6705 52.146 83.6645 52.1092 83.6514 52.0747C83.6384 52.0402 83.6185 52.0087 83.593 51.9822C83.536 51.9254 83.4669 51.8825 83.3909 51.8569C83.3149 51.8313 83.2341 51.8235 83.1547 51.8343C82.99 51.8586 82.84 51.9435 82.7339 52.0726C82.6189 52.1969 82.5487 52.3564 82.5344 52.5256C82.5201 52.6948 82.5625 52.864 82.655 53.006C82.7603 53.142 82.9059 53.2405 83.0707 53.2873C83.2354 53.3342 83.4107 53.3268 83.5711 53.2664C83.6569 53.2309 83.7323 53.174 83.7902 53.1009C83.8149 53.0667 83.8292 53.026 83.8316 52.9837C83.8339 52.9415 83.8241 52.8994 83.8034 52.8626C83.7507 52.7831 83.6793 52.7179 83.5956 52.6729C83.5118 52.6279 83.4184 52.6043 83.3234 52.6044C83.1297 52.5892 82.9369 52.6436 82.7792 52.7579C82.6215 52.8722 82.5092 53.0391 82.4621 53.2289C82.4264 53.4132 82.4522 53.6042 82.5354 53.7722C82.6187 53.9402 82.7547 54.0758 82.9224 54.1579C83.0851 54.251 83.2736 54.2882 83.4593 54.2638C83.5429 54.2377 83.6168 54.1869 83.6715 54.1181C83.7262 54.0493 83.7591 53.9655 83.7661 53.8777V53.9108C83.7449 53.8498 83.7064 53.7964 83.6554 53.7572C83.6044 53.718 83.5431 53.6947 83.479 53.6901C83.3432 53.6895 83.2095 53.7244 83.0911 53.7916C82.8442 53.9217 82.6384 54.119 82.4972 54.3609C82.3582 54.6029 82.243 54.8578 82.1531 55.1222L81.855 55.9012C81.4605 56.9251 81.0617 57.8872 80.6716 58.814C79.8914 60.6455 79.1374 62.2431 78.48 63.5583C78.1534 64.2203 77.851 64.805 77.5595 65.306C77.3139 65.7332 77.0408 66.1438 76.742 66.5351C76.4978 66.8702 76.2186 67.178 75.9092 67.453Z" fill="white"/>
<path d="M86.4506 34.5187C86.4239 34.2382 86.3567 33.9632 86.2512 33.7022C85.9327 33.0004 85.3742 32.4372 84.6776 32.1156C84.1993 31.8981 83.6851 31.7717 83.161 31.7427C82.5579 31.7115 81.9533 31.7574 81.3617 31.8795C80.1059 32.1134 78.7865 32.6585 77.3094 32.8836C76.5893 32.9796 75.8598 32.9796 75.1397 32.8836C74.4712 32.7822 73.8166 32.603 73.1891 32.3495C72.1238 31.9176 71.1551 31.2753 70.34 30.4606C69.7914 29.9159 69.3274 29.291 68.9637 28.607C68.9023 28.5028 68.8481 28.3944 68.8015 28.2827L68.6963 28.0377C68.67 27.9781 68.6503 27.9274 68.6328 27.8877C68.6244 27.871 68.6185 27.8531 68.6152 27.8347C68.6268 27.8496 68.6363 27.8659 68.6437 27.8833L68.7161 28.0289L68.8322 28.2672C68.8822 28.3775 68.9393 28.4844 69.0032 28.5872C69.3791 29.2566 69.8485 29.8682 70.397 30.4033C71.691 31.6792 73.354 32.5083 75.1463 32.771C75.8561 32.8659 76.5754 32.8659 77.2853 32.771C78.7427 32.5503 80.0642 32.0075 81.3354 31.778C81.9353 31.6573 82.5481 31.6143 83.1588 31.65C83.6939 31.6827 84.2181 31.8167 84.7039 32.045C85.4123 32.3792 85.9745 32.9633 86.284 33.6868C86.361 33.8837 86.4118 34.0899 86.4353 34.3002V34.4635C86.4431 34.481 86.4483 34.4996 86.4506 34.5187Z" fill="#455A64"/>
<path d="M83.1431 29.7635C83.0912 29.7763 83.0385 29.7852 82.9853 29.79C82.8823 29.8055 82.7289 29.8275 82.5338 29.8628C82.1437 29.9268 81.5848 30.0526 80.8967 30.2247C80.0916 30.4432 79.272 30.6033 78.4442 30.7036C77.427 30.8085 76.4007 30.7855 75.3891 30.6352C74.3772 30.4873 73.3862 30.2192 72.437 29.8363C71.6589 29.5262 70.9136 29.1381 70.2125 28.6778C69.9189 28.477 69.6559 28.2917 69.4323 28.1151C69.2088 27.9386 69.0203 27.7864 68.8757 27.6495L68.5425 27.334C68.468 27.2612 68.4286 27.2215 68.4329 27.217C68.4776 27.2462 68.5194 27.2794 68.5579 27.3163L68.9041 27.6142C69.0532 27.7466 69.2526 27.8879 69.4718 28.0556C69.6909 28.2233 69.9627 28.4064 70.2564 28.6006C71.8187 29.593 73.5701 30.2447 75.3979 30.5138C76.4015 30.6618 77.4193 30.687 78.4289 30.5888C79.2519 30.4987 80.0677 30.3512 80.8704 30.1475C81.5607 29.9864 82.1262 29.8717 82.5206 29.8187C82.7179 29.7922 82.8713 29.7768 82.9765 29.7701C83.0316 29.7622 83.0875 29.7599 83.1431 29.7635Z" fill="#455A64"/>
<path d="M83.468 44.5481C83.4386 44.5424 83.41 44.5335 83.3825 44.5216C83.3062 44.4893 83.2328 44.4501 83.1634 44.4047C82.8984 44.2293 82.6784 43.9934 82.5212 43.7162C82.2964 43.3015 82.1619 42.8434 82.1267 42.3723C82.0763 41.8027 82.0763 41.2296 82.1267 40.66C82.1742 40.0905 82.268 39.5259 82.4073 38.9719C82.5068 38.5143 82.6714 38.0736 82.896 37.6633C83.0576 37.385 83.2831 37.1497 83.5535 36.977C83.6224 36.9313 83.6958 36.8929 83.7726 36.8623C83.8274 36.8424 83.8581 36.8336 83.8581 36.838C83.8581 36.8424 83.7463 36.8888 83.5688 37.0146C83.3211 37.1971 83.1161 37.4321 82.9683 37.703C82.7575 38.1114 82.604 38.5474 82.5124 38.9983C82.3794 39.5481 82.2885 40.1073 82.2407 40.671C82.1948 41.2335 82.1948 41.7988 82.2407 42.3613C82.2686 42.8228 82.391 43.2736 82.6001 43.6853C82.7448 43.9583 82.9485 44.1951 83.1962 44.3782C83.3628 44.4951 83.4746 44.5371 83.468 44.5481Z" fill="#263238"/>
<path d="M73.6105 43.8662L71.361 44.3106C71.0225 44.3774 70.8019 44.7079 70.8683 45.0488L70.8848 45.1332C70.9512 45.4741 71.2794 45.6962 71.6179 45.6293L73.8675 45.1849C74.206 45.118 74.4266 44.7875 74.3601 44.4467L74.3437 44.3623C74.2773 44.0214 73.949 43.7993 73.6105 43.8662Z" fill="#455A64"/>
<path d="M74.041 44.2015L84.4402 40.918C84.5637 40.8791 84.6975 40.891 84.8124 40.9509C84.9274 41.0108 85.0141 41.114 85.0539 41.238C85.0739 41.3017 85.081 41.3689 85.0747 41.4354C85.0684 41.502 85.0487 41.5665 85.017 41.6253C84.9853 41.684 84.9421 41.7357 84.8901 41.7772C84.838 41.8187 84.7782 41.8492 84.7142 41.8669L74.0805 44.7576L74.041 44.2015Z" fill="#455A64"/>
<path d="M81.7256 42.7584C81.837 42.709 81.9521 42.6684 82.0697 42.6371L83.0209 42.3458C83.4198 42.2222 83.9107 42.0898 84.4279 41.9199C84.5557 41.872 84.6716 41.7967 84.7676 41.6992C84.8623 41.6021 84.9151 41.4713 84.9144 41.3352C84.9139 41.2683 84.8925 41.2033 84.8531 41.1494C84.8138 41.0955 84.7585 41.0555 84.6953 41.035C84.5508 40.998 84.399 41.0026 84.257 41.0483L81.1383 42.0589L80.1893 42.3546C80.0806 42.3997 79.9685 42.4359 79.854 42.4628C79.9636 42.4091 80.0772 42.3641 80.1937 42.3281L81.1317 41.9971C81.9273 41.7257 83.0187 41.3484 84.246 40.9534C84.4092 40.9058 84.5825 40.9058 84.7457 40.9534C84.829 40.9837 84.9013 41.0387 84.9529 41.1112C85.0046 41.1837 85.0332 41.2702 85.035 41.3594C85.0352 41.5246 84.9706 41.6832 84.8553 41.8008C84.7399 41.9027 84.6038 41.9781 84.4564 42.0214C83.9195 42.1913 83.4395 42.3105 83.034 42.4252L82.0829 42.6834C81.9664 42.7196 81.8468 42.7448 81.7256 42.7584Z" fill="#263238"/>
<path d="M64.7324 34.7395C65.0875 35.9973 63.8185 37.0764 63.3714 38.3055C62.9331 39.4926 63.3057 40.8233 63.8382 41.9707C64.3708 43.1182 65.0721 44.2039 65.3439 45.4374C66.0167 48.4826 63.2816 51.7639 63.8097 54.8378C63.9982 55.9587 64.4475 57.1283 64.8354 58.1941C65.2102 59.1992 65.2102 60.307 64.8354 61.3121C64.2437 63.0774 63.2399 63.9049 62.5342 65.6217C62.1726 66.5044 62.2011 67.4841 62.2186 68.433C62.2362 69.3819 62.2318 70.3748 61.811 71.2266C61.3902 72.0784 60.4303 72.736 59.5186 72.4888C60.0106 73.0439 60.6706 73.4201 61.3964 73.5593C62.1222 73.6985 62.8734 73.593 63.5336 73.2589C64.7324 72.6146 65.403 71.3083 65.9772 70.0681C68.7562 64.0638 70.2268 63.5563 70.1413 56.9319C70.1413 56.506 70.058 49.8706 70.058 49.8706C69.4821 49.7149 68.9298 49.481 68.4165 49.1755C65.3132 47.0174 65.1992 43.1734 65.2233 40.1922" fill="#263238"/>
<path d="M70.9343 54.8376V57.3378C70.9343 57.3378 69.0254 67.1464 68.4512 72.5946C67.877 78.0429 67.7827 79.4816 67.7827 79.4816C67.7827 79.4816 69.1525 81.6331 72.0169 77.9789C74.8814 74.3247 75.392 73.7487 76.5382 73.6847C76.5382 73.6847 75.1378 58.3639 75.2013 57.7968C75.2723 57.3946 75.4478 57.0185 75.7098 56.7067L70.9343 54.8376Z" fill="#FFBE9D"/>
<path d="M74.6925 49.1975C74.6925 49.1975 71.5738 53.3637 71.3196 53.9374C71.0653 54.5112 70.936 54.8333 70.936 54.8333L75.7116 56.6935L80.36 51.5653L82.0782 47.0129L81.5676 41.6287C81.5676 41.6287 80.5507 41.5647 80.36 42.4628C80.2431 43.0315 80.1996 43.6129 80.2307 44.1928L78.8061 43.0387L76.5071 42.3348C76.5071 42.3348 75.9658 43.2307 76.8578 43.6809C77.7498 44.131 78.004 44.1222 78.004 44.1222L78.8061 45.5323L78.4555 47.1122L76.8293 45.5676C76.6718 45.4178 76.4672 45.3283 76.251 45.3146C76.0348 45.3009 75.8207 45.3639 75.6458 45.4925L74.5938 46.2605L73.6098 45.8191L71.7009 47.5381L70.936 48.242C70.936 48.242 71.4467 49.2041 72.4702 48.7562L73.4893 48.3149L74.6925 49.1975Z" fill="#FFBE9D"/>
<path d="M70.9344 55.6827C70.9315 55.6379 70.9315 55.5929 70.9344 55.5481C70.9344 55.4598 70.9454 55.3274 70.9651 55.1575C70.9907 54.9453 71.031 54.7352 71.0856 54.5286C71.1538 54.2434 71.2662 53.9709 71.4188 53.721C72.1332 52.6176 73.2575 51.073 74.6601 49.173V49.2304L73.4504 48.3345H73.492L72.863 48.6148C72.6471 48.7208 72.4228 48.8086 72.1924 48.8774C71.9417 48.9378 71.6778 48.9073 71.4472 48.7913C71.2127 48.6698 71.0179 48.4829 70.8862 48.2529L70.8687 48.222L70.8971 48.1955C71.7168 47.4187 72.6307 46.6354 73.5687 45.7969L73.5972 45.7726L73.6279 45.7902L74.4761 46.2956H74.4213L75.4119 45.6336C75.585 45.521 75.7406 45.4129 75.9269 45.2982C76.0283 45.2474 76.1417 45.2257 76.2546 45.2355C76.3674 45.2452 76.4754 45.286 76.5669 45.3533L78.4977 46.9973L78.4078 47.0282C78.513 46.5537 78.627 46.0396 78.7409 45.521V45.5607L77.9388 44.1507L77.9892 44.1794C77.8529 44.1607 77.7196 44.1243 77.5925 44.0712C77.4676 44.0249 77.3427 43.9719 77.2178 43.9168C77.0928 43.8616 76.9701 43.7998 76.8474 43.7402C76.7838 43.7094 76.7225 43.6674 76.6611 43.6321C76.6011 43.589 76.5453 43.5402 76.4945 43.4865C76.4209 43.4079 76.3636 43.3153 76.326 43.2141C76.2883 43.113 76.2711 43.0053 76.2754 42.8973C76.2824 42.6864 76.3403 42.4804 76.4441 42.2971L76.466 42.2596L76.5099 42.2728L78.8067 42.9789H78.8176L80.2422 44.133L80.1523 44.1816C80.1216 43.6102 80.1621 43.0371 80.2729 42.4758C80.2962 42.3311 80.3496 42.193 80.4297 42.0705C80.5098 41.948 80.6147 41.844 80.7375 41.7653C80.9825 41.6197 81.2641 41.5484 81.5484 41.5601H81.6076V41.6086C81.7873 43.5218 81.956 45.3268 82.1116 46.9929V47.0039C81.4761 48.681 80.8975 50.2036 80.3847 51.5518L76.786 55.5503L75.8086 56.6161C75.6968 56.7331 75.6113 56.8257 75.5521 56.8897L75.4623 56.9802C75.4623 56.9802 75.4886 56.9449 75.5434 56.8809L75.791 56.6007L76.7553 55.5216L80.3364 51.5496V51.5606L82.0459 47.0061V47.0282C81.8859 45.3621 81.715 43.5593 81.5309 41.6439L81.5813 41.6947C81.3199 41.6839 81.061 41.7498 80.8361 41.8844C80.7257 41.9551 80.6316 42.0488 80.5601 42.1592C80.4887 42.2696 80.4415 42.3941 80.4219 42.5244C80.312 43.0753 80.2722 43.6382 80.3036 44.1992V44.3272L80.2049 44.2478L78.7585 43.0871H78.7782L76.4814 42.3832L76.5449 42.3567C76.4525 42.523 76.4007 42.7091 76.3937 42.8995C76.3897 42.9928 76.4044 43.086 76.4367 43.1736C76.4691 43.2611 76.5186 43.3413 76.5822 43.4092C76.6276 43.4559 76.6767 43.4987 76.729 43.5372C76.7882 43.5703 76.8408 43.6056 76.9022 43.6365C77.0249 43.6961 77.1454 43.7579 77.2682 43.8109C77.4991 43.9243 77.7426 44.0095 77.9936 44.0646H78.0287L78.0418 44.0867L78.8439 45.4967L78.8549 45.5166V45.5387C78.7387 46.0572 78.6357 46.5714 78.5196 47.0458L78.4999 47.1385L78.4275 47.0767L76.5033 45.4372C76.4286 45.3811 76.3399 45.3469 76.2471 45.3384C76.1543 45.3298 76.0609 45.3472 75.9773 45.3886C75.8151 45.4857 75.6398 45.6093 75.4732 45.7174L74.4804 46.3794L74.4541 46.3971L74.4256 46.3816L73.5775 45.8741H73.6389C72.7008 46.7082 71.7847 47.4916 70.9629 48.2639L70.9739 48.2065C71.0949 48.4195 71.2745 48.5926 71.4911 48.7052C71.7022 48.8133 71.9448 48.8415 72.1749 48.7847C72.4005 48.7182 72.6204 48.6333 72.8323 48.5309L73.4613 48.2529H73.4854L73.5052 48.2661L74.7127 49.1664L74.7456 49.1907L74.7215 49.2238C73.3123 51.1237 72.177 52.6552 71.4538 53.7474C71.3016 53.9928 71.187 54.2598 71.1141 54.5396C71.0582 54.7442 71.0151 54.952 70.9848 55.1619C70.9607 55.3318 70.9497 55.4642 70.9432 55.5503C70.9366 55.6363 70.9344 55.6827 70.9344 55.6827Z" fill="#EB996E"/>
<path d="M76.8437 50.1618C76.8218 50.1618 76.905 49.822 76.9401 49.2791C76.9632 48.9627 76.9122 48.6453 76.7911 48.3523C76.6082 48.0093 76.3477 47.7145 76.0306 47.4917C75.4642 47.0546 74.8738 46.6501 74.262 46.2803L73.7031 45.9493C73.6313 45.9136 73.5636 45.8699 73.5015 45.8191C73.5786 45.838 73.6525 45.8685 73.7206 45.9096C73.8609 45.9736 74.0603 46.0751 74.3014 46.2097C74.9286 46.562 75.5293 46.9603 76.0985 47.4013C76.4301 47.6341 76.6995 47.9456 76.8831 48.3082C77.009 48.6167 77.0558 48.9521 77.019 49.2835C77.0003 49.5023 76.9644 49.7192 76.9116 49.9323C76.8997 50.0116 76.8769 50.0889 76.8437 50.1618Z" fill="#EB996E"/>
<path d="M80.1857 48.1625C80.1997 47.9682 80.2268 47.775 80.2668 47.5844C80.3351 47.1242 80.3681 46.6594 80.3654 46.1942C80.3595 45.7276 80.3185 45.2621 80.2427 44.8018C80.2005 44.6127 80.1704 44.421 80.1528 44.228C80.2334 44.4058 80.2901 44.5935 80.3216 44.7863C80.5239 45.7123 80.5321 46.6705 80.3457 47.5998C80.3174 47.7937 80.2636 47.9829 80.1857 48.1625Z" fill="#EB996E"/>
<path d="M58.9015 31.811L56.6222 27.7574C58.0337 25.449 58.5367 22.6924 58.0322 20.0296C57.5277 17.3668 56.0523 14.9903 53.8959 13.3671C51.7395 11.7439 49.0582 10.9916 46.3788 11.2579C43.6995 11.5242 41.216 12.7899 39.4164 14.8062C37.6168 16.8225 36.6314 19.4436 36.6537 22.1544C36.676 24.8651 37.7045 27.4694 39.5371 29.4554C41.3696 31.4414 43.8736 32.6655 46.557 32.887C49.2403 33.1085 51.9089 32.3114 54.0383 30.6525L58.9015 31.811Z" fill="white"/>
<path d="M58.9017 31.8109L54.0232 30.6855H53.9815L54.0078 30.6502L54.0473 30.69C53.3638 31.2242 52.6201 31.6753 51.8316 32.0338C50.8928 32.4568 49.8986 32.7421 48.8794 32.8812C48.3147 32.9604 47.7441 32.9892 47.1744 32.9672C46.8829 32.9518 46.5826 32.943 46.2824 32.9187L45.3729 32.7797C42.6621 32.2394 40.2581 30.6784 38.6512 28.4149C37.7541 27.1644 37.1338 25.7347 36.8321 24.2222C36.5208 22.6253 36.5642 20.9788 36.9592 19.4007C37.3655 17.7512 38.1566 16.2231 39.267 14.9432L39.7053 14.4556C39.85 14.2923 40.0231 14.1577 40.1787 14.0142C40.3341 13.8588 40.4972 13.7115 40.6675 13.5729L41.1847 13.1845C41.3549 13.0575 41.5335 12.9425 41.7194 12.8403L42.2651 12.5071L42.8372 12.2313C43.0233 12.1322 43.2159 12.0459 43.4136 11.9731C44.945 11.3639 46.5926 11.1083 48.2351 11.225C49.7893 11.3347 51.3006 11.7867 52.6622 12.549C55.1098 13.9205 56.9398 16.1873 57.773 18.8799C58.1077 20.0257 58.2659 21.2165 58.242 22.4106C58.2135 23.4451 58.0363 24.4701 57.716 25.4536C57.4484 26.2719 57.0858 27.0555 56.6356 27.7882V27.7595L58.8951 31.8264C58.7987 31.6565 58.0667 30.3788 56.5874 27.786V27.7728V27.7595C57.0303 27.0285 57.387 26.248 57.6503 25.4337C57.9627 24.4549 58.1347 23.4361 58.1609 22.4084C58.18 21.2249 58.0197 20.0455 57.6854 18.9108C56.8531 16.2449 55.0362 14.0024 52.6096 12.6461C51.2603 11.8957 49.7642 11.4521 48.2263 11.3464C46.5993 11.231 44.9672 11.4851 43.4508 12.09C43.2553 12.1622 43.0649 12.2477 42.881 12.346L42.3156 12.6218L41.7742 12.9528C41.5892 13.0563 41.4126 13.1744 41.246 13.3059L40.7332 13.6899C40.5601 13.8134 40.4132 13.9745 40.2511 14.1135C40.0889 14.2526 39.9267 14.396 39.782 14.5549L39.3437 15.0359C38.2452 16.3035 37.4624 17.8164 37.0601 19.4492C36.6689 21.0113 36.6247 22.641 36.9308 24.2222C37.2296 25.7175 37.8423 27.1311 38.7279 28.3686C40.3233 30.6066 42.7029 32.1516 45.386 32.6914L46.2868 32.8304C46.5848 32.8569 46.8829 32.8635 47.1634 32.8812C47.7286 32.9042 48.2947 32.8776 48.8553 32.8017C50.729 32.5519 52.5036 31.8073 53.9991 30.6436L54.17 30.5112L54.0385 30.6855L54.021 30.6392L58.9017 31.8109Z" fill="#263238"/>
<path d="M45.1102 22.0794C45.1102 22.254 45.0588 22.4247 44.9625 22.5698C44.8662 22.715 44.7292 22.8281 44.5691 22.8949C44.4089 22.9617 44.2326 22.9792 44.0626 22.9451C43.8925 22.9111 43.7363 22.827 43.6137 22.7036C43.4911 22.5801 43.4076 22.4229 43.3738 22.2516C43.34 22.0804 43.3573 21.9029 43.4237 21.7417C43.49 21.5804 43.6024 21.4425 43.7465 21.3455C43.8907 21.2485 44.0602 21.1968 44.2336 21.1968C44.4661 21.1968 44.6891 21.2898 44.8535 21.4553C45.0179 21.6208 45.1102 21.8453 45.1102 22.0794Z" fill="#263238"/>
<path d="M48.6083 22.0794C48.6083 22.254 48.5569 22.4247 48.4605 22.5698C48.3642 22.715 48.2273 22.8281 48.0671 22.8949C47.9069 22.9617 47.7307 22.9792 47.5606 22.9451C47.3905 22.9111 47.2343 22.827 47.1117 22.7036C46.9891 22.5801 46.9057 22.4229 46.8718 22.2516C46.838 22.0804 46.8554 21.9029 46.9217 21.7417C46.9881 21.5804 47.1004 21.4425 47.2446 21.3455C47.3888 21.2485 47.5582 21.1968 47.7316 21.1968C47.9641 21.1968 48.1871 21.2898 48.3515 21.4553C48.5159 21.6208 48.6083 21.8453 48.6083 22.0794Z" fill="#263238"/>
<path d="M52.1 21.6383C52.1872 21.7894 52.2279 21.9632 52.2169 22.1376C52.2059 22.312 52.1437 22.4792 52.0382 22.618C51.9327 22.7568 51.7887 22.861 51.6243 22.9173C51.46 22.9736 51.2828 22.9795 51.1151 22.9342C50.9475 22.889 50.7969 22.7947 50.6825 22.6632C50.5682 22.5318 50.4951 22.3691 50.4727 22.1958C50.4502 22.0225 50.4794 21.8464 50.5565 21.6898C50.6335 21.5332 50.755 21.4031 50.9056 21.3161C51.1065 21.2 51.345 21.1687 51.5688 21.229C51.7926 21.2894 51.9836 21.4365 52.1 21.6383Z" fill="#263238"/>
<path d="M101.992 91.2607C101.992 91.2938 79.7121 91.3181 52.2424 91.3181C24.7726 91.3181 2.49268 91.2938 2.49268 91.2607C2.49268 91.2276 24.7661 91.2034 52.2533 91.2034C79.7406 91.2034 101.992 91.2299 101.992 91.2607Z" fill="#263238"/>
<path d="M73.8398 91.3161C74.3541 90.5281 75.0477 89.8752 75.8631 89.4116C76.6785 88.9479 77.592 88.687 78.5277 88.6504C81.7297 88.5401 83.3295 91.3161 83.3295 91.3161H73.8398Z" fill="#455A64"/>
<path d="M79.9766 91.2299C79.9343 91.0719 79.9029 90.9112 79.8824 90.7489C79.7103 89.9834 79.2569 89.3118 78.6134 88.8688C78.4717 88.7889 78.3348 88.7005 78.2036 88.604C78.369 88.6295 78.5269 88.6913 78.666 88.785C79.0154 88.9903 79.3147 89.2716 79.5422 89.6083C79.7697 89.945 79.9196 90.3287 79.981 90.7312C80.0154 90.8958 80.0139 91.066 79.9766 91.2299Z" fill="#263238"/>
<path d="M71.8585 91.1991V91.1771C71.8533 90.8524 71.7214 90.5428 71.4913 90.3153C71.2612 90.0878 70.9515 89.9606 70.629 89.9612H43.3784C43.0523 89.9612 42.7396 90.0916 42.509 90.3238C42.2785 90.5559 42.1489 90.8708 42.1489 91.1991H71.8585Z" fill="#455A64"/>
<path d="M19.6899 43.1249C19.6899 43.703 20.1283 78.1622 20.1283 78.1622L45.551 84.321H47.6396L46.3027 36.2158H44.3916L19.6899 43.1249Z" fill="#263238"/>
<path d="M25.0654 76.73L17.1865 91.2675H24.3882C23.0995 91.1395 35.7846 91.2675 35.7846 91.2675L24.3882 88.2245L27.9539 80.0709L27.6493 76.73H25.0654Z" fill="#263238"/>
<path d="M25.2412 79.4134L24.3887 52.3179L32.1295 51.5698L33.0828 80.5013L30.3192 80.6426L25.2412 79.4134Z" fill="#263238"/>
<path d="M34.1645 81.5736C34.1645 81.5736 34.1645 81.5316 34.1645 81.4478C34.1645 81.3639 34.1645 81.2382 34.1645 81.0771C34.1645 80.7461 34.1645 80.2628 34.1645 79.6383C34.1645 78.3783 34.1535 76.549 34.147 74.2475C34.147 69.6422 34.136 63.1612 34.1272 55.6453L34.182 55.7005H25.032L25.089 55.6431V56.8921C25.089 64.2226 25.089 71.0434 25.0781 76.7277V76.7388C22.7067 81.1146 20.7408 84.7467 19.3645 87.2844C18.6763 88.551 18.135 89.544 17.7646 90.2237C17.5805 90.5591 17.4381 90.8151 17.3417 90.9938C17.2452 91.1725 17.1904 91.2542 17.1904 91.2542C17.1904 91.2542 17.2365 91.1615 17.3285 90.9872C17.4205 90.8128 17.5608 90.5458 17.7383 90.2082C18.1043 89.5264 18.6369 88.529 19.3163 87.2579L24.9926 76.6924V76.7167C24.9926 71.0324 24.9926 64.2116 24.9926 56.881V55.5747H34.2368V55.6299C34.2368 63.1458 34.2215 69.6267 34.2171 74.232C34.2171 76.5313 34.2039 78.3629 34.1996 79.6229C34.1996 80.2474 34.1996 80.7262 34.1996 81.0616C34.1996 81.2227 34.1996 81.3463 34.1996 81.4323C34.1996 81.5184 34.1645 81.5736 34.1645 81.5736Z" fill="#455A64"/>
<path d="M27.9544 80.0711C27.9829 80.0821 26.8871 82.6352 25.5064 85.7687C24.1257 88.9021 22.9817 91.4354 22.9532 91.4221C22.9247 91.4089 24.0205 88.858 25.4012 85.7224C26.7819 82.5867 27.926 80.0579 27.9544 80.0711Z" fill="#455A64"/>
<path d="M45.5391 84.3298C45.5391 84.3298 45.5391 84.2878 45.5391 84.2062C45.5391 84.1245 45.5391 83.9988 45.5391 83.8421C45.5391 83.5177 45.5281 83.0477 45.5216 82.4431C45.5216 81.2294 45.4843 79.4729 45.4427 77.3016C45.3616 72.9588 45.1665 66.9634 44.9276 60.3412C44.6887 53.719 44.5068 47.7169 44.4455 43.3742C44.4126 41.2028 44.3973 39.4441 44.4038 38.2304C44.4038 37.6258 44.4038 37.1558 44.4038 36.8314C44.4038 36.6747 44.4038 36.5556 44.4038 36.4673C44.4038 36.3791 44.4038 36.3438 44.4038 36.3438C44.4038 36.3438 44.4038 36.3857 44.4038 36.4673C44.4038 36.549 44.4038 36.6747 44.4038 36.8314C44.4038 37.1558 44.4038 37.6258 44.4214 38.2304C44.4214 39.4441 44.4564 41.2006 44.5003 43.372C44.5945 47.7147 44.7896 53.7168 45.0284 60.3368C45.2673 66.9567 45.4492 72.9566 45.5106 77.2993C45.5435 79.4707 45.5566 81.2294 45.5522 82.4431C45.5522 83.0477 45.5522 83.5177 45.5522 83.8421C45.5522 83.9988 45.5522 84.1201 45.5522 84.2062C45.5522 84.2923 45.5391 84.3298 45.5391 84.3298Z" fill="#455A64"/>
<path d="M32.7767 55.4446C32.8096 55.4446 32.8337 61.2084 32.8337 68.316C32.8337 75.4237 32.8096 81.1875 32.7767 81.1875C32.7438 81.1875 32.7197 75.4259 32.7197 68.316C32.7197 61.2062 32.746 55.4446 32.7767 55.4446Z" fill="#455A64"/>
<path d="M19.0823 88.999C19.0408 88.9512 19.0041 88.8995 18.9727 88.8445C18.9354 88.7915 18.8938 88.7275 18.8456 88.6547C18.7876 88.5683 18.7349 88.4784 18.6878 88.3855C18.3664 87.8017 18.1323 87.1734 17.993 86.5209C17.7909 85.5512 17.745 84.555 17.8571 83.5706C17.9943 82.3654 18.3151 81.1887 18.8083 80.0819C19.0692 79.5104 19.403 78.9755 19.8011 78.4909C19.8918 78.3707 19.9891 78.2558 20.0926 78.1466C20.1934 78.0363 20.2898 77.926 20.3906 77.82C20.6098 77.6192 20.8005 77.414 21.0175 77.2397C21.4173 76.8972 21.843 76.5866 22.2908 76.3107C22.5099 76.1915 22.7094 76.0657 22.9154 75.9664C23.1214 75.8671 23.3165 75.7612 23.5137 75.6906C24.1228 75.4279 24.7665 75.2554 25.4248 75.1787C25.6027 75.1542 25.7822 75.1431 25.9617 75.1456C26.0245 75.1403 26.0875 75.1403 26.1502 75.1456C26.0886 75.1562 26.0264 75.1628 25.9639 75.1654C25.7855 75.1737 25.6077 75.1921 25.4314 75.2206C24.7807 75.3138 24.1457 75.4964 23.5444 75.7634C23.3493 75.8363 23.1609 75.9466 22.9548 76.0415C22.7488 76.1364 22.5516 76.2621 22.339 76.3901C21.898 76.6669 21.4789 76.9775 21.0854 77.3191C20.8662 77.4912 20.6756 77.6965 20.4674 77.8951C20.3687 77.9988 20.2723 78.1157 20.1737 78.2172C20.0729 78.3262 19.9778 78.4403 19.8888 78.5593C19.497 79.0375 19.1684 79.5649 18.9113 80.1282C18.4229 81.2235 18.1029 82.3872 17.9623 83.5794C17.846 84.553 17.883 85.539 18.0719 86.501C18.2044 87.1488 18.4256 87.7749 18.7294 88.3612C18.773 88.4557 18.8228 88.5471 18.8784 88.6349L18.9946 88.8313C19.0275 88.8851 19.0568 88.9412 19.0823 88.999Z" fill="#455A64"/>
</g>
<defs>
<linearGradient id="paint0_linear_1708_6050" x1="11.25" y1="71.1112" x2="17.8595" y2="71.1153" gradientUnits="userSpaceOnUse">
<stop stop-color="#3961F4"/>
<stop offset="1" stop-color="#11BAFC"/>
</linearGradient>
<linearGradient id="paint1_linear_1708_6050" x1="9.34082" y1="59.332" x2="14.1162" y2="59.3329" gradientUnits="userSpaceOnUse">
<stop stop-color="#3961F4"/>
<stop offset="1" stop-color="#11BAFC"/>
</linearGradient>
<linearGradient id="paint2_linear_1708_6050" x1="-3.5156e-08" y1="61.6016" x2="7.87593" y2="61.6045" gradientUnits="userSpaceOnUse">
<stop stop-color="#3961F4"/>
<stop offset="1" stop-color="#11BAFC"/>
</linearGradient>
<linearGradient id="paint3_linear_1708_6050" x1="49.646" y1="72.381" x2="66.9768" y2="72.3848" gradientUnits="userSpaceOnUse">
<stop stop-color="#3961F4"/>
<stop offset="1" stop-color="#11BAFC"/>
</linearGradient>
<linearGradient id="paint4_linear_1708_6050" x1="62.4224" y1="70.4468" x2="88.09" y2="70.4537" gradientUnits="userSpaceOnUse">
<stop stop-color="#3961F4"/>
<stop offset="1" stop-color="#11BAFC"/>
</linearGradient>
<linearGradient id="paint5_linear_1708_6050" x1="67.6489" y1="71.8529" x2="89.1557" y2="71.859" gradientUnits="userSpaceOnUse">
<stop stop-color="#3961F4"/>
<stop offset="1" stop-color="#11BAFC"/>
</linearGradient>
<clipPath id="clip0_1708_6050">
<rect width="102" height="90.8438" fill="white" transform="translate(0 0.578125)"/>
</clipPath>
</defs>
</svg>
